<svg width="123" height="36" viewBox="0 0 123 36" fill="none" xmlns="http://www.w3.org/2000/svg">
<path d="M29.6949 5.67512C26.4078 2.38036 22.0413 0.567383 17.3963 0.567383C7.80325 0.567383 0 8.38762 0 17.9999C0 27.6122 7.80325 35.4324 17.3963 35.4324C22.0413 35.4324 26.4113 33.6195 29.6949 30.3247C32.9819 27.0299 34.789 22.6544 34.789 17.9999C34.789 13.3454 32.9819 8.96638 29.6949 5.67512ZM17.3963 34.2262C8.46832 34.2262 1.20479 26.9463 1.20479 17.9999C1.20479 9.05354 8.46832 1.77372 17.3963 1.77372C26.3242 1.77372 33.5878 9.05354 33.5878 17.9999C33.5878 26.9463 26.3242 34.2262 17.3963 34.2262Z" fill="white"/>
<path d="M23.107 18.4119C21.9927 17.4147 20.5337 16.7488 19.12 16.1038L19.1095 16.1003C16.6164 14.9602 14.461 13.9736 14.6143 11.641C14.6804 10.752 15.3246 10.2151 15.8538 9.92564C16.4492 9.59794 17.2397 9.40271 17.9709 9.40271C18.058 9.40271 18.145 9.4062 18.2286 9.40968C20.3561 9.55266 22.0345 10.4556 23.6745 12.3314L23.772 12.4464L23.887 12.3488L24.5276 11.791L24.6426 11.6898L24.5415 11.5748C22.7134 9.47592 20.7287 8.41951 18.3017 8.25564C18.1973 8.24519 18.0858 8.2417 17.9639 8.2417C17.8908 8.2417 17.8108 8.2417 17.7272 8.24519H17.6228C16.0314 8.24519 14.2869 8.76816 12.9603 9.64673C11.376 10.6962 10.488 12.1396 10.4637 13.712C10.401 17.5367 13.5244 18.8232 16.2787 19.9634L16.2857 19.9668L16.3135 19.9773C18.751 20.9883 20.8541 21.86 20.8088 24.1959C20.7879 25.737 18.5873 26.5877 17.0761 26.5877H17.0133H16.8637V26.5912C14.6108 26.525 12.5981 25.5522 10.8815 23.7079L10.7771 23.5963L10.6656 23.6974L10.0424 24.2762L9.93091 24.3808L10.0354 24.4923C11.9853 26.5947 14.3914 27.7243 16.9959 27.7557H17.1144C18.7962 27.7557 20.6242 27.3025 22.0032 26.5389C23.7303 25.5941 24.7365 24.2169 24.841 22.6619C24.9594 20.9535 24.3918 19.5624 23.107 18.4119ZM15.0217 15.0857C16.014 15.9364 17.3581 16.5466 18.6569 17.1358L18.6813 17.1462C20.0566 17.7807 21.3589 18.3804 22.3026 19.2137C23.3472 20.1342 23.7894 21.201 23.6954 22.5712C23.6083 23.9275 22.6021 24.834 21.6863 25.3814C21.8639 25.0188 21.9613 24.6248 21.9718 24.2065C21.9927 22.7979 21.453 21.6718 20.3178 20.7582C19.3255 19.9599 18.0093 19.4194 16.7348 18.893C14.085 17.8017 11.5814 16.7697 11.6267 13.7225C11.6406 12.551 12.344 11.4423 13.6079 10.6021C13.6498 10.5742 13.6915 10.5463 13.7368 10.5184C13.587 10.8461 13.5035 11.1878 13.4826 11.5469C13.3816 12.9589 13.8865 14.1165 15.0217 15.0857Z" fill="white"/>
<path d="M54.1087 15.4254L54.9175 13.8059C53.7313 13.0231 52.0869 12.5103 50.3886 12.5103C47.8006 12.5103 45.4553 13.6709 45.4553 16.3701C45.4283 21.3907 53.3809 19.6362 53.3 23.0912C53.2731 24.5218 51.9252 25.1697 50.2538 25.1697C48.5824 25.1697 46.7493 24.4948 45.5362 23.3611L44.7274 24.8997C46.0753 26.1954 48.1511 26.8971 50.1729 26.8971C52.8957 26.8971 55.3758 25.6555 55.3758 22.8753C55.3758 17.7737 47.4502 19.4203 47.4502 16.2082C47.4502 14.8586 48.6633 14.2917 50.2538 14.2917C51.5747 14.2917 53.0035 14.7236 54.1087 15.4254Z" fill="white"/>
<path d="M64.437 12.5371C60.3124 12.564 57.401 15.4793 57.401 19.717C57.401 23.9548 60.2854 26.8969 64.4639 26.8969C66.8362 26.8969 68.8311 26.0332 70.179 24.5487L69.0198 23.334C67.9146 24.4947 66.3779 25.1425 64.6256 25.1425C61.8491 25.1425 59.8272 23.307 59.4768 20.4998H71.0686C71.2842 15.6952 69.0198 12.5371 64.437 12.5371ZM59.4768 18.8263C59.7733 16.0731 61.7142 14.2915 64.437 14.2915C67.2137 14.2915 69.0467 16.0731 69.1816 18.8263H59.4768Z" fill="white"/>
<path d="M84.5984 16.1001L85.7576 14.6424C84.4636 13.3198 82.5765 12.5371 80.2851 12.5371C76.1876 12.5371 73.2491 15.5063 73.2491 19.717C73.2491 23.9548 76.1607 26.8969 80.2851 26.8969C82.7383 26.8969 84.7062 25.9792 85.9732 24.4407L84.7601 23.1991C83.7627 24.3867 82.2261 25.0345 80.366 25.0345C77.4276 25.0345 75.3249 22.8752 75.3249 19.717C75.3249 16.5859 77.4276 14.4265 80.366 14.4265C82.0913 14.4265 83.5201 15.0474 84.5984 16.1001Z" fill="white"/>
<path d="M91.8917 15.7762V12.618H89.7891V26.816H91.8917V19.2581C92.1344 16.397 93.9944 14.5345 96.9865 14.5884V12.5371C94.5875 12.564 92.8352 13.6977 91.8917 15.7762Z" fill="white"/>
<path d="M105.426 12.5371C101.302 12.564 98.3906 15.4793 98.3906 19.717C98.3906 23.9548 101.275 26.8969 105.454 26.8969C107.826 26.8969 109.82 26.0332 111.168 24.5487L110.009 23.334C108.904 24.4947 107.368 25.1425 105.615 25.1425C102.838 25.1425 100.817 23.307 100.466 20.4998H112.058C112.273 15.6952 110.009 12.5371 105.426 12.5371ZM100.466 18.8263C100.763 16.0731 102.704 14.2915 105.426 14.2915C108.203 14.2915 110.036 16.0731 110.171 18.8263H100.466Z" fill="white"/>
<path d="M122.407 24.2249C121.625 24.6838 120.87 24.9267 120.143 24.9537C118.93 24.9537 118.255 24.2519 118.255 22.5245V14.6967H122.757V13.0501H118.255V9.3252H116.179V13.0501H114.131V14.6967H116.179V22.8754C116.179 25.6825 117.716 26.9242 119.792 26.8972C120.924 26.8972 122.003 26.5193 123 25.8445L122.407 24.2249Z" fill="white"/>
</svg>
