<svg width="16" height="16" viewBox="0 0 16 16" fill="none" xmlns="http://www.w3.org/2000/svg">
<path d="M12.6187 5.33351C12.1269 4.4817 11.4092 3.78248 10.5448 3.31315C9.68038 2.84382 8.70304 2.62267 7.7208 2.67415C6.73856 2.72563 5.78969 3.04773 4.97909 3.60484C4.1685 4.16194 3.52775 4.93236 3.12769 5.83091M13.8454 3.67708L13.3591 5.78344C13.2763 6.14219 12.9183 6.36588 12.5596 6.28306L10.4532 5.79678" stroke="white" stroke-width="1.5" stroke-linecap="round"/>
<path d="M12.2411 9.73793C12.3982 9.35464 12.8362 9.17124 13.2195 9.32829C13.6028 9.48534 13.7862 9.92337 13.6291 10.3067L12.2411 9.73793ZM12.2277 6.23002C11.8182 5.25192 11.0822 4.44607 10.1451 3.94979L10.8471 2.62421C12.0909 3.28292 13.0678 4.35249 13.6113 5.6507L12.2277 6.23002ZM10.1451 3.94979C9.20803 3.45351 8.12787 3.29749 7.08866 3.50834L6.79041 2.03829C8.16972 1.75844 9.60339 1.96551 10.8471 2.62421L10.1451 3.94979ZM7.08866 3.50834C6.04946 3.71918 5.11551 4.28383 4.44595 5.10608L3.28281 4.15892C4.17149 3.06758 5.4111 2.31813 6.79041 2.03829L7.08866 3.50834ZM4.44595 5.10608C3.77639 5.92832 3.41265 6.9573 3.4167 8.01767L1.91671 8.0234C1.91133 6.616 2.39412 5.25027 3.28281 4.15892L4.44595 5.10608ZM3.4167 8.01767C3.42075 9.07804 3.79234 10.1042 4.46817 10.9213L3.3123 11.8773C2.41529 10.7928 1.92209 9.4308 1.91671 8.0234L3.4167 8.01767ZM4.46817 10.9213C5.14399 11.7384 6.08223 12.2959 7.12302 12.4988L6.836 13.9711C5.4546 13.7018 4.2093 12.9618 3.3123 11.8773L4.46817 10.9213ZM7.12302 12.4988C8.1638 12.7017 9.24274 12.5374 10.176 12.034L10.8881 13.3542C9.64946 14.0224 8.21741 14.2404 6.836 13.9711L7.12302 12.4988ZM10.176 12.034C11.1092 11.5306 11.8391 10.7191 12.2411 9.73793L13.6291 10.3067C13.0955 11.609 12.1268 12.686 10.8881 13.3542L10.176 12.034Z" fill="white"/>
</svg>
