<?xml version="1.0" encoding="UTF-8"?>
<svg xmlns="http://www.w3.org/2000/svg" xmlns:xlink="http://www.w3.org/1999/xlink" width="64px" height="64px" viewBox="0 0 64 64" version="1.1">
<defs>
<clipPath id="clip1">
  <path d="M 0 0 L 63.933594 0 L 63.933594 63.933594 L 0 63.933594 Z M 0 0 "/>
</clipPath>
<linearGradient id="linear0" gradientUnits="userSpaceOnUse" x1="242.077" y1="-0.00000466013" x2="624.633" y2="770.209" gradientTransform="matrix(0.0830091,0,0,0.0830091,0,0)">
<stop offset="0" style="stop-color:rgb(83.137255%,74.117647%,92.156863%);stop-opacity:1;"/>
<stop offset="1" style="stop-color:rgb(52.156863%,38.039216%,66.27451%);stop-opacity:1;"/>
</linearGradient>
<linearGradient id="linear1" gradientUnits="userSpaceOnUse" x1="223.358" y1="-1.57828" x2="683.768" y2="735.079" gradientTransform="matrix(0.0830091,0,0,0.0830091,0,0)">
<stop offset="0" style="stop-color:rgb(97.647059%,95.686275%,100%);stop-opacity:1;"/>
<stop offset="1" style="stop-color:rgb(78.823529%,69.019608%,90.588235%);stop-opacity:1;"/>
<stop offset="1" style="stop-color:rgb(78.823529%,69.019608%,90.588235%);stop-opacity:1;"/>
</linearGradient>
<linearGradient id="linear2" gradientUnits="userSpaceOnUse" x1="307.144" y1="129.747" x2="307.144" y2="616.204" gradientTransform="matrix(0.0830091,0,0,0.0830091,0,0)">
<stop offset="0" style="stop-color:rgb(30.196078%,17.647059%,47.058824%);stop-opacity:1;"/>
<stop offset="1" style="stop-color:rgb(52.156863%,38.039216%,66.27451%);stop-opacity:1;"/>
</linearGradient>
<linearGradient id="linear3" gradientUnits="userSpaceOnUse" x1="451.138" y1="110.828" x2="451.138" y2="618.235" gradientTransform="matrix(0.0830091,0,0,0.0830091,0,0)">
<stop offset="0" style="stop-color:rgb(52.156863%,38.039216%,66.27451%);stop-opacity:1;"/>
<stop offset="1" style="stop-color:rgb(30.196078%,17.647059%,47.058824%);stop-opacity:1;"/>
</linearGradient>
<clipPath id="clip2">
  <path d="M 0 0 L 63.933594 0 L 63.933594 63.933594 L 0 63.933594 Z M 0 0 "/>
</clipPath>
</defs>
<g id="surface1">
<g clip-path="url(#clip1)" clip-rule="nonzero">
<path style=" stroke:none;fill-rule:nonzero;fill:url(#linear0);" d="M 63.933594 31.96875 C 63.933594 49.621094 49.621094 63.933594 31.96875 63.933594 C 14.3125 63.933594 0 49.621094 0 31.96875 C 0 14.3125 14.3125 0 31.96875 0 C 49.621094 0 63.933594 14.3125 63.933594 31.96875 Z M 63.933594 31.96875 "/>
</g>
<path style=" stroke:none;fill-rule:nonzero;fill:url(#linear1);" d="M 58.433594 31.664062 C 58.433594 46.28125 46.585938 58.132812 31.964844 58.132812 C 17.347656 58.132812 5.496094 46.28125 5.496094 31.664062 C 5.496094 17.042969 17.347656 5.195312 31.964844 5.195312 C 46.585938 5.195312 58.433594 17.042969 58.433594 31.664062 Z M 58.433594 31.664062 "/>
<path style=" stroke:none;fill-rule:nonzero;fill:url(#linear2);" d="M 30.027344 15.351562 C 29.890625 14.921875 29.898438 14.460938 30.050781 14.039062 C 30.050781 14.039062 30.050781 14.046875 30.050781 14.050781 L 19.125 45.207031 C 19.023438 45.464844 18.976562 45.742188 18.984375 46.015625 C 18.992188 46.292969 19.054688 46.5625 19.167969 46.816406 C 19.285156 47.066406 19.449219 47.292969 19.652344 47.476562 C 19.859375 47.664062 20.097656 47.804688 20.359375 47.898438 C 20.617188 47.988281 20.894531 48.027344 21.171875 48.007812 C 21.445312 47.988281 21.714844 47.914062 21.960938 47.789062 C 22.207031 47.667969 22.425781 47.492188 22.605469 47.28125 C 22.785156 47.070312 22.917969 46.824219 23 46.5625 L 31.984375 20.929688 L 30.046875 15.410156 C 30.039062 15.390625 30.03125 15.371094 30.027344 15.351562 Z M 30.027344 15.351562 "/>
<path style=" stroke:none;fill-rule:nonzero;fill:url(#linear3);" d="M 44.847656 45.207031 L 33.921875 14.050781 C 33.914062 14.03125 33.90625 14.011719 33.902344 13.992188 C 33.710938 13.492188 33.335938 13.082031 32.847656 12.855469 C 32.363281 12.628906 31.808594 12.601562 31.300781 12.78125 C 30.796875 12.957031 30.378906 13.328125 30.140625 13.808594 C 29.902344 14.289062 29.863281 14.84375 30.03125 15.351562 C 30.03125 15.371094 30.042969 15.390625 30.046875 15.410156 L 40.976562 46.5625 C 41.164062 47.066406 41.539062 47.476562 42.027344 47.703125 C 42.515625 47.933594 43.070312 47.960938 43.578125 47.78125 C 44.085938 47.605469 44.503906 47.234375 44.742188 46.75 C 44.980469 46.269531 45.015625 45.710938 44.847656 45.203125 Z M 44.847656 45.207031 "/>
<path style=" stroke:none;fill-rule:nonzero;fill:rgb(47.843137%,33.333333%,62.352941%);fill-opacity:1;" d="M 33.050781 31.96875 L 31.335938 31.96875 C 31.109375 31.96875 30.886719 32.011719 30.679688 32.097656 C 30.472656 32.183594 30.285156 32.308594 30.125 32.46875 C 29.964844 32.628906 29.839844 32.816406 29.753906 33.023438 C 29.667969 33.230469 29.625 33.453125 29.625 33.679688 C 29.628906 34.132812 29.808594 34.566406 30.128906 34.886719 C 30.449219 35.207031 30.882812 35.386719 31.335938 35.394531 C 31.921875 35.410156 32.492188 35.410156 33.050781 35.394531 C 34.011719 35.355469 34.757812 34.625 34.757812 33.683594 C 34.761719 33.457031 34.714844 33.234375 34.628906 33.027344 C 34.542969 32.820312 34.417969 32.628906 34.257812 32.46875 C 34.101562 32.3125 33.910156 32.183594 33.703125 32.097656 C 33.496094 32.011719 33.273438 31.96875 33.050781 31.96875 Z M 33.050781 31.96875 "/>
<g clip-path="url(#clip2)" clip-rule="nonzero">
<path style="fill:none;stroke-width:38.3454;stroke-linecap:butt;stroke-linejoin:miter;stroke:rgb(36.470588%,25.882353%,52.54902%);stroke-opacity:1;stroke-miterlimit:4;" d="M 717.35376 383.664734 C 717.35376 567.144287 568.603088 715.894958 385.076477 715.894958 C 201.596924 715.894958 52.846252 567.144287 52.846252 383.664734 C 52.846252 200.138123 201.596924 51.387451 385.076477 51.387451 C 568.603088 51.387451 717.35376 200.138123 717.35376 383.664734 Z M 717.35376 383.664734 " transform="matrix(0.0830091,0,0,0.0830091,0,0)"/>
</g>
<path style=" stroke:none;fill-rule:nonzero;fill:rgb(100%,100%,100%);fill-opacity:1;" d="M 49.039062 55.082031 L 48.878906 54.84375 C 48.847656 54.855469 48.816406 54.867188 48.78125 54.875 C 48.75 54.886719 48.722656 54.890625 48.695312 54.898438 C 48.664062 54.898438 48.640625 54.902344 48.621094 54.902344 L 48.558594 54.695312 C 48.589844 54.691406 48.628906 54.683594 48.675781 54.671875 C 48.71875 54.660156 48.765625 54.648438 48.8125 54.632812 C 48.859375 54.613281 48.902344 54.59375 48.941406 54.566406 C 49 54.527344 49.042969 54.488281 49.074219 54.453125 C 49.105469 54.414062 49.121094 54.375 49.125 54.339844 C 49.125 54.300781 49.117188 54.261719 49.09375 54.226562 C 49.070312 54.191406 49.035156 54.167969 48.992188 54.15625 C 48.949219 54.144531 48.894531 54.144531 48.835938 54.148438 C 48.773438 54.152344 48.707031 54.160156 48.632812 54.167969 C 48.5625 54.175781 48.496094 54.179688 48.433594 54.183594 C 48.371094 54.183594 48.3125 54.179688 48.257812 54.167969 C 48.203125 54.160156 48.15625 54.140625 48.109375 54.113281 C 48.066406 54.085938 48.027344 54.046875 47.992188 53.996094 C 47.945312 53.925781 47.925781 53.851562 47.929688 53.769531 C 47.933594 53.6875 47.964844 53.605469 48.023438 53.527344 L 47.878906 53.304688 L 48.011719 53.183594 L 48.152344 53.398438 C 48.160156 53.390625 48.171875 53.386719 48.179688 53.378906 C 48.1875 53.375 48.195312 53.367188 48.207031 53.359375 C 48.214844 53.355469 48.226562 53.347656 48.238281 53.34375 C 48.246094 53.335938 48.257812 53.328125 48.269531 53.324219 L 48.140625 53.132812 L 48.277344 53.007812 L 48.441406 53.253906 C 48.472656 53.246094 48.503906 53.238281 48.535156 53.230469 C 48.566406 53.226562 48.597656 53.21875 48.625 53.21875 L 48.667969 53.4375 C 48.632812 53.441406 48.601562 53.445312 48.5625 53.453125 C 48.527344 53.460938 48.492188 53.472656 48.457031 53.488281 C 48.417969 53.5 48.378906 53.519531 48.339844 53.546875 C 48.273438 53.589844 48.230469 53.636719 48.203125 53.691406 C 48.175781 53.746094 48.179688 53.796875 48.210938 53.851562 C 48.238281 53.886719 48.273438 53.914062 48.316406 53.925781 C 48.359375 53.9375 48.410156 53.941406 48.46875 53.9375 C 48.53125 53.929688 48.601562 53.921875 48.679688 53.914062 C 48.746094 53.90625 48.8125 53.902344 48.875 53.902344 C 48.933594 53.898438 48.992188 53.898438 49.046875 53.910156 C 49.101562 53.917969 49.152344 53.933594 49.195312 53.960938 C 49.242188 53.988281 49.28125 54.027344 49.316406 54.082031 C 49.363281 54.152344 49.386719 54.230469 49.382812 54.3125 C 49.378906 54.398438 49.347656 54.476562 49.289062 54.558594 L 49.453125 54.808594 L 49.300781 54.90625 L 49.160156 54.691406 C 49.144531 54.699219 49.128906 54.710938 49.113281 54.722656 C 49.101562 54.734375 49.085938 54.746094 49.070312 54.757812 L 49.046875 54.773438 L 49.1875 54.984375 Z M 49.039062 55.082031 "/>
<path style=" stroke:none;fill-rule:nonzero;fill:rgb(100%,100%,100%);fill-opacity:1;" d="M 50.460938 52.910156 L 50.105469 53.210938 L 49.882812 52.59375 Z M 49.570312 52.394531 L 50.128906 53.984375 L 50.328125 53.816406 L 50.183594 53.417969 L 50.65625 53.015625 L 51.042969 53.234375 L 51.21875 53.039062 L 49.742188 52.246094 Z M 49.570312 52.394531 "/>
<path style=" stroke:none;fill-rule:nonzero;fill:rgb(100%,100%,100%);fill-opacity:1;" d="M 52.0625 51.988281 L 51.550781 52.472656 L 50.609375 51.476562 L 50.421875 51.65625 L 51.503906 52.796875 L 52.226562 52.109375 Z M 52.0625 51.988281 "/>
<path style=" stroke:none;fill-rule:nonzero;fill:rgb(100%,100%,100%);fill-opacity:1;" d="M 52.125 49.980469 L 51.265625 50.902344 L 51.417969 51.042969 L 51.753906 50.679688 L 52.753906 51.613281 L 52.933594 51.417969 L 51.933594 50.488281 L 52.300781 50.09375 Z M 52.125 49.980469 "/>
<path style=" stroke:none;fill-rule:nonzero;fill:rgb(100%,100%,100%);fill-opacity:1;" d="M 54.289062 49.921875 L 54.109375 49.816406 L 53.617188 50.390625 L 53.246094 50.070312 L 53.613281 49.640625 L 53.429688 49.535156 L 53.089844 49.933594 L 52.734375 49.628906 L 53.183594 49.105469 L 53.003906 49 L 52.410156 49.691406 L 53.605469 50.714844 Z M 54.289062 49.921875 "/>
<path style=" stroke:none;fill-rule:nonzero;fill:rgb(100%,100%,100%);fill-opacity:1;" d="M 53.808594 48.3125 C 53.851562 48.253906 53.894531 48.210938 53.9375 48.179688 C 53.980469 48.148438 54.027344 48.132812 54.074219 48.132812 C 54.125 48.132812 54.175781 48.152344 54.230469 48.191406 C 54.28125 48.226562 54.3125 48.269531 54.324219 48.320312 C 54.335938 48.367188 54.335938 48.414062 54.316406 48.46875 C 54.300781 48.519531 54.273438 48.570312 54.238281 48.625 L 54.117188 48.789062 L 53.6875 48.480469 Z M 53.363281 48.558594 L 54.636719 49.480469 L 54.789062 49.273438 L 54.289062 48.914062 L 54.390625 48.773438 C 54.40625 48.753906 54.421875 48.734375 54.4375 48.710938 C 54.453125 48.6875 54.464844 48.667969 54.472656 48.652344 L 55.175781 48.738281 L 55.339844 48.511719 L 54.554688 48.425781 C 54.570312 48.339844 54.566406 48.257812 54.542969 48.175781 C 54.515625 48.09375 54.460938 48.023438 54.378906 47.964844 C 54.289062 47.898438 54.199219 47.867188 54.109375 47.871094 C 54.023438 47.875 53.9375 47.902344 53.859375 47.960938 C 53.777344 48.015625 53.703125 48.085938 53.636719 48.179688 Z M 53.363281 48.558594 "/>
<path style=" stroke:none;fill-rule:nonzero;fill:rgb(100%,100%,100%);fill-opacity:1;" d="M 16.902344 7.035156 L 17.042969 7.285156 C 17.074219 7.277344 17.109375 7.265625 17.140625 7.257812 C 17.171875 7.253906 17.203125 7.25 17.230469 7.246094 C 17.257812 7.246094 17.28125 7.246094 17.300781 7.246094 L 17.351562 7.457031 C 17.316406 7.460938 17.277344 7.464844 17.230469 7.472656 C 17.1875 7.476562 17.140625 7.488281 17.09375 7.5 C 17.042969 7.515625 17 7.535156 16.960938 7.558594 C 16.898438 7.589844 16.851562 7.625 16.820312 7.660156 C 16.785156 7.699219 16.765625 7.734375 16.761719 7.769531 C 16.753906 7.808594 16.761719 7.847656 16.78125 7.882812 C 16.804688 7.921875 16.835938 7.949219 16.878906 7.960938 C 16.921875 7.976562 16.972656 7.980469 17.035156 7.980469 C 17.09375 7.984375 17.164062 7.980469 17.238281 7.976562 C 17.308594 7.972656 17.375 7.972656 17.4375 7.976562 C 17.5 7.980469 17.558594 7.988281 17.613281 8.003906 C 17.664062 8.019531 17.710938 8.039062 17.753906 8.070312 C 17.796875 8.101562 17.832031 8.144531 17.863281 8.195312 C 17.902344 8.269531 17.917969 8.347656 17.910156 8.429688 C 17.898438 8.511719 17.859375 8.589844 17.796875 8.660156 L 17.925781 8.894531 L 17.785156 9.003906 L 17.660156 8.78125 C 17.648438 8.785156 17.640625 8.792969 17.628906 8.796875 C 17.621094 8.804688 17.613281 8.808594 17.601562 8.816406 C 17.59375 8.820312 17.582031 8.824219 17.570312 8.832031 C 17.558594 8.835938 17.546875 8.839844 17.539062 8.84375 L 17.652344 9.046875 L 17.503906 9.160156 L 17.359375 8.902344 C 17.328125 8.910156 17.296875 8.914062 17.261719 8.917969 C 17.230469 8.921875 17.203125 8.925781 17.175781 8.925781 L 17.148438 8.703125 C 17.179688 8.703125 17.214844 8.699219 17.253906 8.695312 C 17.289062 8.691406 17.324219 8.683594 17.363281 8.671875 C 17.402344 8.660156 17.441406 8.640625 17.484375 8.617188 C 17.550781 8.582031 17.597656 8.535156 17.628906 8.484375 C 17.660156 8.433594 17.664062 8.378906 17.632812 8.328125 C 17.609375 8.285156 17.578125 8.257812 17.535156 8.242188 C 17.492188 8.230469 17.445312 8.222656 17.382812 8.222656 C 17.320312 8.222656 17.25 8.222656 17.171875 8.226562 C 17.101562 8.226562 17.039062 8.226562 16.976562 8.226562 C 16.914062 8.226562 16.855469 8.21875 16.804688 8.207031 C 16.75 8.191406 16.703125 8.171875 16.660156 8.140625 C 16.617188 8.109375 16.578125 8.070312 16.550781 8.015625 C 16.507812 7.9375 16.492188 7.859375 16.5 7.777344 C 16.511719 7.695312 16.550781 7.613281 16.613281 7.539062 L 16.464844 7.277344 L 16.625 7.191406 L 16.75 7.417969 C 16.765625 7.40625 16.78125 7.398438 16.796875 7.386719 C 16.8125 7.378906 16.828125 7.367188 16.84375 7.359375 L 16.871094 7.34375 L 16.746094 7.121094 Z M 16.902344 7.035156 "/>
<path style=" stroke:none;fill-rule:nonzero;fill:rgb(100%,100%,100%);fill-opacity:1;" d="M 15.320312 9.097656 L 15.695312 8.824219 L 15.871094 9.453125 Z M 16.167969 9.675781 L 15.730469 8.050781 L 15.523438 8.199219 L 15.632812 8.609375 L 15.132812 8.972656 L 14.761719 8.726562 L 14.574219 8.910156 L 15.984375 9.808594 Z M 16.167969 9.675781 "/>
<path style=" stroke:none;fill-rule:nonzero;fill:rgb(100%,100%,100%);fill-opacity:1;" d="M 13.652344 9.894531 L 14.199219 9.449219 L 15.066406 10.511719 L 15.265625 10.351562 L 14.273438 9.128906 L 13.496094 9.761719 Z M 13.652344 9.894531 "/>
<path style=" stroke:none;fill-rule:nonzero;fill:rgb(100%,100%,100%);fill-opacity:1;" d="M 13.441406 11.890625 L 14.367188 11.039062 L 14.226562 10.886719 L 13.863281 11.222656 L 12.9375 10.21875 L 12.742188 10.394531 L 13.667969 11.402344 L 13.273438 11.765625 Z M 13.441406 11.890625 "/>
<path style=" stroke:none;fill-rule:nonzero;fill:rgb(100%,100%,100%);fill-opacity:1;" d="M 11.28125 11.789062 L 11.453125 11.90625 L 11.984375 11.375 L 12.332031 11.71875 L 11.933594 12.121094 L 12.105469 12.238281 L 12.476562 11.863281 L 12.808594 12.195312 L 12.320312 12.6875 L 12.492188 12.804688 L 13.136719 12.160156 L 12.019531 11.046875 Z M 11.28125 11.789062 "/>
<path style=" stroke:none;fill-rule:nonzero;fill:rgb(100%,100%,100%);fill-opacity:1;" d="M 11.636719 13.429688 C 11.589844 13.484375 11.546875 13.523438 11.5 13.550781 C 11.453125 13.578125 11.40625 13.59375 11.359375 13.589844 C 11.308594 13.585938 11.261719 13.5625 11.210938 13.519531 C 11.160156 13.480469 11.132812 13.433594 11.125 13.386719 C 11.117188 13.335938 11.121094 13.289062 11.140625 13.234375 C 11.160156 13.1875 11.191406 13.136719 11.234375 13.085938 L 11.363281 12.929688 L 11.769531 13.273438 Z M 12.101562 13.214844 L 10.898438 12.203125 L 10.734375 12.398438 L 11.203125 12.792969 L 11.089844 12.925781 C 11.074219 12.945312 11.058594 12.964844 11.042969 12.984375 C 11.023438 13.007812 11.011719 13.023438 11 13.039062 L 10.308594 12.902344 L 10.128906 13.117188 L 10.902344 13.261719 C 10.878906 13.34375 10.878906 13.429688 10.898438 13.511719 C 10.917969 13.59375 10.964844 13.667969 11.042969 13.734375 C 11.128906 13.804688 11.214844 13.84375 11.304688 13.847656 C 11.390625 13.851562 11.476562 13.828125 11.5625 13.777344 C 11.648438 13.730469 11.726562 13.660156 11.800781 13.574219 Z M 12.101562 13.214844 "/>
<path style=" stroke:none;fill-rule:nonzero;fill:rgb(100%,100%,100%);fill-opacity:1;" d="M 56.9375 16.984375 L 56.6875 17.125 C 56.699219 17.15625 56.707031 17.191406 56.714844 17.222656 C 56.71875 17.257812 56.722656 17.285156 56.726562 17.316406 C 56.726562 17.34375 56.726562 17.367188 56.726562 17.386719 L 56.515625 17.433594 C 56.511719 17.402344 56.507812 17.359375 56.5 17.316406 C 56.496094 17.269531 56.484375 17.222656 56.472656 17.175781 C 56.457031 17.125 56.4375 17.082031 56.417969 17.042969 C 56.382812 16.980469 56.347656 16.933594 56.3125 16.902344 C 56.277344 16.867188 56.242188 16.847656 56.203125 16.84375 C 56.164062 16.835938 56.125 16.84375 56.089844 16.863281 C 56.050781 16.882812 56.023438 16.917969 56.011719 16.957031 C 55.996094 17 55.992188 17.054688 55.992188 17.113281 C 55.992188 17.175781 55.992188 17.242188 55.996094 17.320312 C 55.996094 17.390625 55.996094 17.453125 55.996094 17.519531 C 55.992188 17.582031 55.980469 17.636719 55.96875 17.691406 C 55.953125 17.746094 55.929688 17.792969 55.902344 17.835938 C 55.871094 17.875 55.828125 17.914062 55.773438 17.941406 C 55.699219 17.984375 55.621094 18 55.542969 17.988281 C 55.460938 17.976562 55.382812 17.9375 55.308594 17.875 L 55.074219 18.003906 L 54.964844 17.859375 L 55.191406 17.734375 C 55.183594 17.726562 55.179688 17.71875 55.175781 17.707031 C 55.167969 17.699219 55.160156 17.691406 55.15625 17.679688 C 55.152344 17.667969 55.144531 17.65625 55.140625 17.648438 C 55.132812 17.636719 55.128906 17.625 55.125 17.613281 L 54.921875 17.726562 L 54.808594 17.582031 L 55.070312 17.4375 C 55.0625 17.40625 55.058594 17.371094 55.054688 17.339844 C 55.050781 17.308594 55.046875 17.277344 55.046875 17.25 L 55.269531 17.226562 C 55.269531 17.257812 55.273438 17.292969 55.277344 17.332031 C 55.28125 17.367188 55.289062 17.402344 55.300781 17.441406 C 55.3125 17.480469 55.328125 17.519531 55.351562 17.5625 C 55.390625 17.628906 55.433594 17.679688 55.488281 17.710938 C 55.539062 17.742188 55.589844 17.742188 55.644531 17.710938 C 55.683594 17.6875 55.714844 17.65625 55.730469 17.613281 C 55.742188 17.574219 55.75 17.523438 55.75 17.460938 C 55.75 17.402344 55.75 17.332031 55.746094 17.25 C 55.746094 17.183594 55.746094 17.117188 55.75 17.058594 C 55.75 16.996094 55.757812 16.9375 55.769531 16.882812 C 55.78125 16.832031 55.804688 16.78125 55.835938 16.738281 C 55.863281 16.695312 55.90625 16.660156 55.960938 16.628906 C 56.039062 16.585938 56.117188 16.570312 56.199219 16.582031 C 56.28125 16.59375 56.359375 16.632812 56.433594 16.695312 L 56.699219 16.550781 L 56.785156 16.707031 L 56.554688 16.835938 C 56.566406 16.851562 56.578125 16.867188 56.585938 16.882812 C 56.597656 16.894531 56.605469 16.910156 56.617188 16.929688 L 56.628906 16.953125 L 56.851562 16.828125 Z M 56.9375 16.984375 "/>
<path style=" stroke:none;fill-rule:nonzero;fill:rgb(100%,100%,100%);fill-opacity:1;" d="M 54.882812 15.398438 L 55.15625 15.773438 L 54.523438 15.949219 Z M 54.300781 16.242188 L 55.929688 15.808594 L 55.777344 15.601562 L 55.371094 15.714844 L 55.007812 15.207031 L 55.253906 14.839844 L 55.074219 14.652344 L 54.167969 16.058594 Z M 54.300781 16.242188 "/>
<path style=" stroke:none;fill-rule:nonzero;fill:rgb(100%,100%,100%);fill-opacity:1;" d="M 54.089844 13.726562 L 54.535156 14.277344 L 53.46875 15.136719 L 53.628906 15.335938 L 54.855469 14.347656 L 54.226562 13.570312 Z M 54.089844 13.726562 "/>
<path style=" stroke:none;fill-rule:nonzero;fill:rgb(100%,100%,100%);fill-opacity:1;" d="M 52.09375 13.507812 L 52.945312 14.4375 L 53.097656 14.296875 L 52.761719 13.929688 L 53.773438 13.007812 L 53.59375 12.8125 L 52.585938 13.738281 L 52.21875 13.339844 Z M 52.09375 13.507812 "/>
<path style=" stroke:none;fill-rule:nonzero;fill:rgb(100%,100%,100%);fill-opacity:1;" d="M 52.207031 11.34375 L 52.089844 11.515625 L 52.621094 12.050781 L 52.273438 12.394531 L 51.875 11.996094 L 51.753906 12.167969 L 52.125 12.542969 L 51.792969 12.875 L 51.304688 12.382812 L 51.1875 12.554688 L 51.832031 13.199219 L 52.945312 12.089844 Z M 52.207031 11.34375 "/>
<path style=" stroke:none;fill-rule:nonzero;fill:rgb(100%,100%,100%);fill-opacity:1;" d="M 50.5625 11.695312 C 50.511719 11.652344 50.46875 11.605469 50.441406 11.558594 C 50.414062 11.511719 50.402344 11.464844 50.40625 11.417969 C 50.410156 11.367188 50.433594 11.320312 50.476562 11.269531 C 50.519531 11.21875 50.5625 11.191406 50.613281 11.183594 C 50.660156 11.175781 50.707031 11.179688 50.761719 11.203125 C 50.8125 11.222656 50.859375 11.253906 50.910156 11.292969 L 51.066406 11.425781 L 50.722656 11.832031 Z M 50.777344 12.164062 L 51.796875 10.964844 L 51.601562 10.796875 L 51.203125 11.265625 L 51.070312 11.152344 C 51.054688 11.136719 51.035156 11.121094 51.011719 11.101562 C 50.988281 11.085938 50.972656 11.070312 50.957031 11.0625 L 51.097656 10.367188 L 50.882812 10.1875 L 50.734375 10.964844 C 50.652344 10.941406 50.570312 10.9375 50.488281 10.957031 C 50.402344 10.976562 50.328125 11.023438 50.261719 11.101562 C 50.191406 11.1875 50.152344 11.273438 50.148438 11.359375 C 50.144531 11.449219 50.167969 11.535156 50.214844 11.621094 C 50.265625 11.707031 50.332031 11.785156 50.417969 11.859375 Z M 50.777344 12.164062 "/>
<path style=" stroke:none;fill-rule:nonzero;fill:rgb(100%,100%,100%);fill-opacity:1;" d="M 8.183594 48.34375 L 8.425781 48.1875 C 8.414062 48.15625 8.402344 48.125 8.394531 48.089844 C 8.386719 48.058594 8.378906 48.03125 8.375 48 C 8.371094 47.972656 8.371094 47.949219 8.371094 47.929688 L 8.578125 47.871094 C 8.585938 47.902344 8.589844 47.941406 8.601562 47.988281 C 8.609375 48.035156 8.621094 48.078125 8.636719 48.125 C 8.65625 48.175781 8.675781 48.21875 8.699219 48.257812 C 8.738281 48.316406 8.773438 48.359375 8.8125 48.390625 C 8.851562 48.421875 8.886719 48.4375 8.925781 48.441406 C 8.964844 48.449219 9 48.4375 9.035156 48.417969 C 9.074219 48.394531 9.097656 48.359375 9.109375 48.316406 C 9.121094 48.273438 9.125 48.21875 9.121094 48.160156 C 9.117188 48.097656 9.113281 48.03125 9.105469 47.957031 C 9.097656 47.886719 9.09375 47.820312 9.09375 47.757812 C 9.09375 47.695312 9.101562 47.636719 9.113281 47.582031 C 9.125 47.527344 9.144531 47.480469 9.171875 47.433594 C 9.199219 47.390625 9.238281 47.351562 9.289062 47.320312 C 9.363281 47.277344 9.4375 47.253906 9.519531 47.261719 C 9.601562 47.265625 9.683594 47.300781 9.757812 47.359375 L 9.984375 47.21875 L 10.101562 47.355469 L 9.886719 47.492188 C 9.890625 47.5 9.898438 47.511719 9.902344 47.519531 C 9.910156 47.527344 9.914062 47.535156 9.921875 47.546875 C 9.929688 47.554688 9.933594 47.566406 9.941406 47.578125 C 9.945312 47.589844 9.953125 47.597656 9.957031 47.609375 L 10.152344 47.484375 L 10.273438 47.625 L 10.023438 47.785156 C 10.03125 47.816406 10.039062 47.847656 10.042969 47.878906 C 10.050781 47.910156 10.054688 47.941406 10.054688 47.96875 L 9.835938 48.007812 C 9.832031 47.972656 9.828125 47.9375 9.820312 47.902344 C 9.816406 47.867188 9.804688 47.832031 9.789062 47.792969 C 9.777344 47.753906 9.757812 47.714844 9.734375 47.675781 C 9.691406 47.609375 9.644531 47.5625 9.589844 47.535156 C 9.539062 47.507812 9.484375 47.507812 9.433594 47.542969 C 9.394531 47.566406 9.367188 47.601562 9.355469 47.644531 C 9.34375 47.6875 9.339844 47.738281 9.339844 47.796875 C 9.34375 47.859375 9.351562 47.929688 9.355469 48.007812 C 9.363281 48.078125 9.367188 48.140625 9.367188 48.203125 C 9.371094 48.265625 9.367188 48.324219 9.355469 48.375 C 9.347656 48.429688 9.328125 48.480469 9.300781 48.523438 C 9.273438 48.570312 9.234375 48.609375 9.179688 48.640625 C 9.105469 48.6875 9.027344 48.707031 8.945312 48.703125 C 8.863281 48.695312 8.78125 48.664062 8.703125 48.601562 L 8.449219 48.761719 L 8.351562 48.609375 L 8.574219 48.472656 C 8.5625 48.457031 8.550781 48.441406 8.539062 48.425781 C 8.53125 48.414062 8.519531 48.398438 8.507812 48.382812 L 8.492188 48.359375 L 8.277344 48.492188 Z M 8.183594 48.34375 "/>
<path style=" stroke:none;fill-rule:nonzero;fill:rgb(100%,100%,100%);fill-opacity:1;" d="M 10.328125 49.808594 L 10.03125 49.449219 L 10.652344 49.238281 Z M 10.859375 48.929688 L 9.257812 49.457031 L 9.421875 49.65625 L 9.820312 49.523438 L 10.214844 50.003906 L 9.988281 50.386719 L 10.179688 50.5625 L 11.003906 49.105469 Z M 10.859375 48.929688 "/>
<path style=" stroke:none;fill-rule:nonzero;fill:rgb(100%,100%,100%);fill-opacity:1;" d="M 11.214844 51.429688 L 10.742188 50.910156 L 11.753906 49.984375 L 11.582031 49.796875 L 10.417969 50.855469 L 11.089844 51.59375 Z M 11.214844 51.429688 "/>
<path style=" stroke:none;fill-rule:nonzero;fill:rgb(100%,100%,100%);fill-opacity:1;" d="M 13.21875 51.535156 L 12.316406 50.65625 L 12.171875 50.804688 L 12.527344 51.148438 L 11.574219 52.128906 L 11.765625 52.3125 L 12.71875 51.332031 L 13.105469 51.710938 Z M 13.21875 51.535156 "/>
<path style=" stroke:none;fill-rule:nonzero;fill:rgb(100%,100%,100%);fill-opacity:1;" d="M 13.234375 53.699219 L 13.34375 53.519531 L 12.78125 53.019531 L 13.109375 52.652344 L 13.527344 53.027344 L 13.636719 52.847656 L 13.246094 52.5 L 13.558594 52.148438 L 14.074219 52.609375 L 14.179688 52.433594 L 13.503906 51.824219 L 12.453125 53 Z M 13.234375 53.699219 "/>
<path style=" stroke:none;fill-rule:nonzero;fill:rgb(100%,100%,100%);fill-opacity:1;" d="M 14.855469 53.253906 C 14.910156 53.296875 14.953125 53.339844 14.984375 53.382812 C 15.011719 53.429688 15.027344 53.476562 15.027344 53.523438 C 15.027344 53.570312 15.007812 53.621094 14.96875 53.675781 C 14.929688 53.726562 14.882812 53.757812 14.835938 53.765625 C 14.789062 53.777344 14.738281 53.773438 14.6875 53.757812 C 14.636719 53.742188 14.585938 53.714844 14.53125 53.675781 L 14.371094 53.550781 L 14.6875 53.128906 Z M 14.617188 52.800781 L 13.667969 54.054688 L 13.871094 54.210938 L 14.242188 53.722656 L 14.378906 53.824219 C 14.398438 53.839844 14.417969 53.855469 14.441406 53.871094 C 14.464844 53.886719 14.484375 53.898438 14.5 53.910156 L 14.398438 54.609375 L 14.621094 54.777344 L 14.726562 53.992188 C 14.808594 54.011719 14.894531 54.011719 14.972656 53.988281 C 15.058594 53.960938 15.128906 53.910156 15.191406 53.828125 C 15.257812 53.738281 15.289062 53.652344 15.289062 53.5625 C 15.289062 53.476562 15.257812 53.390625 15.207031 53.308594 C 15.152344 53.226562 15.082031 53.152344 14.992188 53.082031 Z M 14.617188 52.800781 "/>
</g>
</svg>
