<?xml version="1.0" encoding="UTF-8"?>
<svg xmlns="http://www.w3.org/2000/svg" xmlns:xlink="http://www.w3.org/1999/xlink" width="100px" height="100px" viewBox="0 0 100 100" version="1.1">
<g id="surface1">
<path style=" stroke:none;fill-rule:evenodd;fill:rgb(13.333333%,14.117647%,18.431373%);fill-opacity:1;" d="M 99 50 C 99 77.0625 77.0625 99 50 99 C 22.9375 99 1 77.0625 1 50 C 1 22.9375 22.9375 1 50 1 C 77.0625 1 99 22.9375 99 50 Z M 99 50 "/>
<path style=" stroke:none;fill-rule:nonzero;fill:rgb(30.980392%,48.627451%,73.333333%);fill-opacity:1;" d="M 50 0 C 77.613281 0 100 22.386719 100 50 C 100 77.613281 77.613281 100 50 100 C 22.386719 100 0 77.613281 0 50 C 0 22.386719 22.386719 0 50 0 Z M 50 5 C 25.148438 5 5 25.148438 5 50 C 5 74.851562 25.148438 95 50 95 C 74.851562 95 95 74.851562 95 50 C 95 25.148438 74.851562 5 50 5 Z M 50 5 "/>
<path style=" stroke:none;fill-rule:evenodd;fill:rgb(30.980392%,48.627451%,73.333333%);fill-opacity:1;" d="M 21.246094 35.957031 L 48.90625 35.957031 L 48.90625 40.992188 L 21.246094 40.992188 Z M 21.246094 35.957031 "/>
<path style=" stroke:none;fill-rule:evenodd;fill:rgb(30.980392%,48.627451%,73.333333%);fill-opacity:1;" d="M 53.933594 35.957031 L 79.078125 35.957031 L 79.078125 40.992188 L 53.933594 40.992188 Z M 53.933594 35.957031 "/>
<path style=" stroke:none;fill-rule:evenodd;fill:rgb(30.980392%,48.627451%,73.333333%);fill-opacity:1;" d="M 53.933594 27.148438 L 79.078125 27.148438 L 79.078125 32.183594 L 53.933594 32.183594 Z M 53.933594 27.148438 "/>
<path style=" stroke:none;fill-rule:evenodd;fill:rgb(30.980392%,48.627451%,73.333333%);fill-opacity:1;" d="M 26.277344 27.148438 L 42.621094 27.148438 L 42.621094 32.183594 L 26.277344 32.183594 Z M 26.277344 27.148438 "/>
<path style=" stroke:none;fill-rule:evenodd;fill:rgb(30.980392%,48.627451%,73.333333%);fill-opacity:1;" d="M 62.152344 19.230469 L 70.152344 27.238281 L 66.597656 30.796875 L 58.59375 22.789062 Z M 62.152344 19.230469 "/>
<path style=" stroke:none;fill-rule:evenodd;fill:rgb(30.980392%,48.627451%,73.333333%);fill-opacity:1;" d="M 42.621094 32.175781 L 36.851562 40.421875 L 32.730469 37.535156 L 38.5 29.289062 Z M 42.621094 32.175781 "/>
<path style=" stroke:none;fill-rule:evenodd;fill:rgb(30.980392%,48.627451%,73.333333%);fill-opacity:1;" d="M 34.261719 20.886719 L 19.121094 42.535156 L 15 39.644531 L 30.144531 18 Z M 34.261719 20.886719 "/>
<path style=" stroke:none;fill-rule:evenodd;fill:rgb(30.980392%,48.627451%,73.333333%);fill-opacity:1;" d="M 60.757812 63.253906 L 55.976562 73.515625 L 51.421875 71.390625 L 56.203125 61.125 Z M 60.757812 63.253906 "/>
<path style=" stroke:none;fill-rule:evenodd;fill:rgb(30.980392%,48.627451%,73.333333%);fill-opacity:1;" d="M 71.535156 63.253906 L 78.441406 78.078125 L 83 75.949219 L 76.09375 61.125 Z M 71.535156 63.253906 "/>
<path style=" stroke:none;fill-rule:evenodd;fill:rgb(30.980392%,48.627451%,73.333333%);fill-opacity:1;" d="M 53.933594 52.316406 L 79.078125 52.316406 L 79.078125 57.351562 L 53.933594 57.351562 Z M 53.933594 52.316406 "/>
<path style=" stroke:none;fill-rule:evenodd;fill:rgb(30.980392%,48.627451%,73.333333%);fill-opacity:1;" d="M 57.707031 74.964844 L 69.019531 74.964844 L 69.019531 80 L 57.707031 80 Z M 57.707031 74.964844 "/>
<path style=" stroke:none;fill-rule:evenodd;fill:rgb(30.980392%,48.627451%,73.333333%);fill-opacity:1;" d="M 22.503906 57.351562 L 47.648438 57.351562 L 47.648438 62.382812 L 22.503906 62.382812 Z M 22.503906 57.351562 "/>
<path style=" stroke:none;fill-rule:evenodd;fill:rgb(30.980392%,48.627451%,73.333333%);fill-opacity:1;" d="M 23.761719 47.28125 L 46.390625 47.28125 L 46.390625 51.058594 L 23.761719 51.058594 Z M 23.761719 47.28125 "/>
<path style=" stroke:none;fill-rule:evenodd;fill:rgb(30.980392%,48.627451%,73.333333%);fill-opacity:1;" d="M 21.246094 39.734375 L 26.277344 39.734375 L 26.277344 62.382812 L 21.246094 62.382812 Z M 21.246094 39.734375 "/>
<path style=" stroke:none;fill-rule:evenodd;fill:rgb(30.980392%,48.627451%,73.333333%);fill-opacity:1;" d="M 32.5625 39.734375 L 37.589844 39.734375 L 37.589844 62.382812 L 32.5625 62.382812 Z M 32.5625 39.734375 "/>
<path style=" stroke:none;fill-rule:evenodd;fill:rgb(30.980392%,48.627451%,73.333333%);fill-opacity:1;" d="M 53.933594 39.734375 L 58.964844 39.734375 L 58.964844 53.574219 L 53.933594 53.574219 Z M 53.933594 39.734375 "/>
<path style=" stroke:none;fill-rule:evenodd;fill:rgb(30.980392%,48.627451%,73.333333%);fill-opacity:1;" d="M 63.992188 54.832031 L 69.019531 54.832031 L 69.019531 80 L 63.992188 80 Z M 63.992188 54.832031 "/>
<path style=" stroke:none;fill-rule:evenodd;fill:rgb(30.980392%,48.627451%,73.333333%);fill-opacity:1;" d="M 21.246094 66.160156 L 26.277344 66.160156 L 26.277344 77.484375 L 21.246094 77.484375 Z M 21.246094 66.160156 "/>
<path style=" stroke:none;fill-rule:evenodd;fill:rgb(30.980392%,48.627451%,73.333333%);fill-opacity:1;" d="M 28.789062 66.160156 L 33.820312 66.160156 L 33.820312 77.484375 L 28.789062 77.484375 Z M 28.789062 66.160156 "/>
<path style=" stroke:none;fill-rule:evenodd;fill:rgb(30.980392%,48.627451%,73.333333%);fill-opacity:1;" d="M 36.332031 66.160156 L 41.363281 66.160156 L 41.363281 77.484375 L 36.332031 77.484375 Z M 36.332031 66.160156 "/>
<path style=" stroke:none;fill-rule:evenodd;fill:rgb(30.980392%,48.627451%,73.333333%);fill-opacity:1;" d="M 43.875 66.160156 L 48.90625 66.160156 L 48.90625 71.191406 L 43.875 71.191406 Z M 43.875 66.160156 "/>
<path style=" stroke:none;fill-rule:evenodd;fill:rgb(30.980392%,48.627451%,73.333333%);fill-opacity:1;" d="M 74.050781 39.734375 L 79.078125 39.734375 L 79.078125 53.574219 L 74.050781 53.574219 Z M 74.050781 39.734375 "/>
<path style=" stroke:none;fill-rule:evenodd;fill:rgb(30.980392%,48.627451%,73.333333%);fill-opacity:1;" d="M 43.875 39.734375 L 48.90625 39.734375 L 48.90625 62.382812 L 43.875 62.382812 Z M 43.875 39.734375 "/>
</g>
</svg>
