<?xml version="1.0" encoding="UTF-8"?>
<svg xmlns="http://www.w3.org/2000/svg" xmlns:xlink="http://www.w3.org/1999/xlink" width="100px" height="100px" viewBox="0 0 100 100" version="1.1">
<g id="surface1">
<path style=" stroke:none;fill-rule:nonzero;fill:rgb(30.980392%,48.627451%,73.333333%);fill-opacity:1;" d="M 50 100 C 77.613281 100 100 77.613281 100 50 C 100 22.386719 77.613281 0 50 0 C 22.386719 0 0 22.386719 0 50 C 0 77.613281 22.386719 100 50 100 Z M 50 100 "/>
<path style=" stroke:none;fill-rule:nonzero;fill:rgb(9.803922%,9.803922%,9.803922%);fill-opacity:1;" d="M 96.78125 49.996094 C 96.78125 72.410156 81.011719 91.144531 59.960938 95.707031 L 59.65625 94.300781 C 56.484375 94.988281 53.246094 95.332031 50.003906 95.332031 C 27.3125 95.332031 7.988281 78.394531 5.050781 55.9375 C 4.792969 53.964844 4.667969 51.980469 4.667969 49.996094 L 3.21875 49.996094 C 3.21875 24.164062 24.164062 3.21875 50 3.21875 L 50 4.65625 C 75.007812 4.65625 95.339844 24.992188 95.339844 49.992188 Z M 96.78125 49.996094 "/>
<path style=" stroke:none;fill-rule:nonzero;fill:rgb(30.980392%,48.627451%,73.333333%);fill-opacity:1;" d="M 74.054688 85.6875 L 72.449219 83.292969 C 90.476562 71.136719 95.546875 46.765625 83.871094 28.386719 L 86.292969 26.832031 C 98.8125 46.535156 93.378906 72.65625 74.054688 85.6875 Z M 74.054688 85.6875 "/>
<path style=" stroke:none;fill-rule:nonzero;fill:rgb(30.980392%,48.627451%,73.333333%);fill-opacity:1;" d="M 14.386719 74.0625 C 11.0625 69.179688 8.789062 63.671875 7.703125 57.878906 C 6.621094 52.085938 6.75 46.136719 8.082031 40.394531 C 9.417969 34.652344 11.929688 29.246094 15.460938 24.511719 C 18.992188 19.78125 23.46875 15.820312 28.609375 12.878906 L 30.054688 15.375 C 17.609375 22.503906 9.875 35.789062 9.875 50.042969 C 9.863281 58.03125 12.269531 65.839844 16.785156 72.449219 Z M 14.386719 74.0625 "/>
<path style=" stroke:none;fill-rule:nonzero;fill:rgb(30.980392%,48.627451%,73.333333%);fill-opacity:1;" d="M 33.605469 83.722656 C 14.914062 74.59375 7.210938 52.132812 16.402344 33.558594 C 17.089844 32.164062 17.867188 30.816406 18.722656 29.515625 L 21.140625 31.097656 C 17.402344 36.738281 15.414062 43.34375 15.425781 50.097656 C 15.425781 63.382812 22.882812 75.273438 34.882812 81.140625 Z M 33.605469 83.722656 "/>
<path style=" stroke:none;fill-rule:nonzero;fill:rgb(30.980392%,48.627451%,73.333333%);fill-opacity:1;" d="M 86.257812 59.570312 L 83.476562 58.839844 C 84.226562 55.964844 84.605469 53.003906 84.605469 50.03125 C 84.605469 30.9375 69.121094 15.402344 50.089844 15.402344 L 50.089844 12.523438 C 70.738281 12.523438 87.476562 29.316406 87.476562 50.03125 C 87.476562 53.25 87.066406 56.457031 86.257812 59.570312 Z M 86.257812 59.570312 "/>
<path style=" stroke:none;fill-rule:nonzero;fill:rgb(100%,100%,100%);fill-opacity:1;" d="M 78.242188 36.289062 C 71.421875 46.6875 65.351562 43.535156 58.097656 42.128906 C 50.847656 40.71875 46.839844 48.40625 46.839844 48.40625 C 46.839844 48.40625 46.847656 48.382812 46.851562 48.367188 C 46.714844 48.621094 46.582031 48.875 46.453125 49.132812 C 46.21875 49.585938 46.007812 50.058594 45.808594 50.542969 C 45.832031 50.015625 45.910156 49.492188 46.046875 48.984375 C 46.179688 48.46875 46.351562 47.96875 46.5625 47.480469 C 46.824219 46.875 47.140625 46.296875 47.507812 45.75 C 48.636719 38.476562 42.632812 35.679688 35.050781 31.300781 C 26.609375 26.425781 30.386719 21.109375 30.386719 21.109375 C 30.386719 21.109375 16.113281 35.949219 25.636719 49.984375 C 35.164062 64.015625 47.210938 67.984375 34.652344 89.105469 C 34.652344 89.105469 43.183594 94.066406 56.914062 91.640625 C 53.324219 76.300781 54.230469 70.519531 59.914062 65.308594 L 59.292969 65.535156 C 59.070312 65.609375 58.84375 65.667969 58.617188 65.726562 L 58.277344 65.816406 C 58.167969 65.84375 58.054688 65.859375 57.933594 65.882812 C 57.707031 65.921875 57.472656 65.960938 57.242188 65.992188 C 57.011719 66.027344 56.777344 66.027344 56.542969 66.042969 C 56.433594 66.042969 56.3125 66.054688 56.195312 66.054688 C 56.078125 66.058594 55.960938 66.046875 55.847656 66.035156 C 55.613281 66.023438 55.382812 66.003906 55.152344 65.976562 C 55.378906 65.90625 55.605469 65.847656 55.820312 65.792969 C 55.933594 65.765625 56.042969 65.738281 56.152344 65.710938 L 56.476562 65.613281 C 56.691406 65.546875 56.90625 65.488281 57.125 65.425781 C 57.339844 65.367188 57.546875 65.277344 57.757812 65.210938 C 57.863281 65.175781 57.96875 65.144531 58.074219 65.105469 L 58.386719 64.984375 C 58.589844 64.902344 58.804688 64.835938 59.007812 64.75 L 59.621094 64.492188 C 59.828125 64.410156 60.023438 64.308594 60.226562 64.21875 C 61.035156 63.847656 61.828125 63.445312 62.613281 63.011719 L 63.179688 62.699219 C 65.875 61.34375 68.257812 59.804688 70.449219 57.839844 C 83.914062 45.800781 78.242188 36.289062 78.242188 36.289062 Z M 78.242188 36.289062 "/>
</g>
</svg>
