<svg
  width="40"
  height="40"
  viewBox="0 0 40 40"
  fill="none"
  xmlns="http://www.w3.org/2000/svg"
>
  <path
    d="M20 40C31.0457 40 40 31.0457 40 20C40 8.9543 31.0457 0 20 0C8.9543 0 0 8.9543 0 20C0 31.0457 8.9543 40 20 40Z"
    fill="#2E3148"
  />
  <path
    d="M20 31.6049C26.4092 31.6049 31.6049 26.4092 31.6049 20C31.6049 13.5907 26.4092 8.39502 20 8.39502C13.5907 8.39502 8.39502 13.5907 8.39502 20C8.39502 26.4092 13.5907 31.6049 20 31.6049Z"
    fill="#1B1E36"
  />
  <path
    d="M20.0411 2.55151C17.8822 2.55151 16.1317 10.3819 16.1317 20.0413C16.1317 29.7006 17.8822 37.531 20.0411 37.531C22.2 37.531 23.9505 29.7006 23.9505 20.0413C23.9505 10.3819 22.2 2.55151 20.0411 2.55151ZM20.311 36.544C20.0641 36.8733 19.8173 36.6262 19.8173 36.6262C18.823 35.4742 18.3259 33.3341 18.3259 33.3341C16.5869 27.7374 17.0008 15.721 17.0008 15.721C17.8181 6.18111 19.3048 3.92751 19.8107 3.42719C19.8624 3.37613 19.9304 3.34493 20.0028 3.33907C20.0752 3.33322 20.1473 3.35309 20.2065 3.39519C20.9406 3.91535 21.5563 6.09071 21.5563 6.09071C23.3744 12.8397 23.2097 19.1771 23.2097 19.1771C23.3744 24.6915 22.2987 30.8643 22.2987 30.8643C21.4707 35.5555 20.311 36.544 20.311 36.544Z"
    fill="#6F7390"
  />
  <path
    d="M35.2115 11.3374C34.1367 9.46413 26.4741 11.8427 18.0915 16.6494C9.70899 21.4561 3.79603 26.8717 4.87011 28.7441C5.94419 30.6166 13.6075 28.2389 21.9901 23.4321C30.3727 18.6254 36.2856 13.2099 35.2115 11.3374ZM5.86179 28.4872C5.45027 28.4353 5.54323 28.0971 5.54323 28.0971C6.04803 26.6617 7.65443 25.1654 7.65443 25.1654C11.6453 20.8716 22.2751 15.251 22.2751 15.251C30.9557 11.2123 33.652 11.3827 34.336 11.571C34.4062 11.5906 34.4672 11.6344 34.5082 11.6947C34.5492 11.755 34.5676 11.8278 34.56 11.9003C34.4778 12.7963 32.8933 14.4123 32.8933 14.4123C27.9474 19.3497 22.368 22.3612 22.368 22.3612C17.6667 25.2492 11.7771 27.3867 11.7771 27.3867C7.29571 29.0016 5.86195 28.4872 5.86195 28.4872H5.86179Z"
    fill="#6F7390"
  />
  <path
    d="M35.1736 28.8066C36.2568 26.9382 30.3587 21.4979 22.0056 16.655C13.6525 11.8122 5.99087 9.40417 4.90863 11.2757C3.82639 13.1472 9.72351 18.5843 18.0814 23.4272C26.4393 28.2701 34.0913 30.6782 35.1736 28.8066ZM5.62639 11.9976C5.46639 11.6182 5.80415 11.5269 5.80415 11.5269C7.29951 11.2445 9.39999 11.888 9.39999 11.888C15.1144 13.1893 25.304 19.572 25.304 19.572C33.1493 25.0618 34.3525 27.4798 34.5328 28.1662C34.5511 28.2366 34.544 28.3113 34.5127 28.3769C34.4814 28.4426 34.4278 28.4951 34.3616 28.5251C33.5435 28.8997 31.3525 28.3416 31.3525 28.3416C24.5993 26.5309 19.1985 23.2133 19.1985 23.2133C14.3459 20.596 9.54751 16.5688 9.54751 16.5688C5.90143 13.4989 5.62751 12.0018 5.62751 12.0018L5.62639 11.9976Z"
    fill="#6F7390"
  />
  <path
    d="M20 22.0576C21.1364 22.0576 22.0576 21.1364 22.0576 20C22.0576 18.8636 21.1364 17.9424 20 17.9424C18.8636 17.9424 17.9424 18.8636 17.9424 20C17.9424 21.1364 18.8636 22.0576 20 22.0576Z"
    fill="#B7B9C8"
  />
  <path
    d="M28.4362 13.3333C29.0953 13.3333 29.6296 12.7805 29.6296 12.0987C29.6296 11.4169 29.0953 10.8641 28.4362 10.8641C27.7771 10.8641 27.2427 11.4169 27.2427 12.0987C27.2427 12.7805 27.7771 13.3333 28.4362 13.3333Z"
    fill="#B7B9C8"
  />
  <path
    d="M8.84768 17.5309C9.50679 17.5309 10.0411 16.9782 10.0411 16.2963C10.0411 15.6145 9.50679 15.0618 8.84768 15.0618C8.18856 15.0618 7.65424 15.6145 7.65424 16.2963C7.65424 16.9782 8.18856 17.5309 8.84768 17.5309Z"
    fill="#B7B9C8"
  />
  <path
    d="M17.572 32.6749C18.2311 32.6749 18.7654 32.1221 18.7654 31.4403C18.7654 30.7585 18.2311 30.2057 17.572 30.2057C16.9129 30.2057 16.3785 30.7585 16.3785 31.4403C16.3785 32.1221 16.9129 32.6749 17.572 32.6749Z"
    fill="#B7B9C8"
  />
</svg>
