<svg width="40" height="40" viewBox="0 0 40 40" fill="none" xmlns="http://www.w3.org/2000/svg">
<path d="M27.3574 39.9402C34.3451 39.9402 40.0098 34.1333 40.0098 26.9701C40.0098 19.8069 34.3451 14 27.3574 14C20.3696 14 14.7049 19.8069 14.7049 26.9701C14.7049 34.1333 20.3696 39.9402 27.3574 39.9402Z" fill="url(#paint0_linear_1191_35)"/>
<g clip-path="url(#clip0_1191_35)">
<path d="M27.3869 39.0625C34.0143 39.0625 39.3869 33.6899 39.3869 27.0625C39.3869 20.4351 34.0143 15.0625 27.3869 15.0625C20.7595 15.0625 15.3869 20.4351 15.3869 27.0625C15.3869 33.6899 20.7595 39.0625 27.3869 39.0625Z" fill="#2E3148"/>
<path d="M27.3869 34.0254C31.2324 34.0254 34.3498 30.908 34.3498 27.0625C34.3498 23.2169 31.2324 20.0995 27.3869 20.0995C23.5413 20.0995 20.4239 23.2169 20.4239 27.0625C20.4239 30.908 23.5413 34.0254 27.3869 34.0254Z" fill="#1B1E36"/>
<path d="M27.4115 16.5934C26.1162 16.5934 25.0659 21.2916 25.0659 27.0872C25.0659 32.8829 26.1162 37.5811 27.4115 37.5811C28.7068 37.5811 29.7572 32.8829 29.7572 27.0872C29.7572 21.2916 28.7068 16.5934 27.4115 16.5934ZM27.5735 36.9889C27.4253 37.1864 27.2772 37.0382 27.2772 37.0382C26.6807 36.347 26.3824 35.0629 26.3824 35.0629C25.339 31.7049 25.5873 24.495 25.5873 24.495C26.0777 18.7711 26.9697 17.419 27.2733 17.1188C27.3043 17.0882 27.3451 17.0694 27.3885 17.0659C27.432 17.0624 27.4753 17.0743 27.5108 17.0996C27.9512 17.4117 28.3206 18.7169 28.3206 18.7169C29.4115 22.7663 29.3127 26.5687 29.3127 26.5687C29.4115 29.8774 28.7661 33.5811 28.7661 33.5811C28.2693 36.3958 27.5735 36.9889 27.5735 36.9889Z" fill="#6F7390"/>
<path d="M36.5138 21.865C35.8689 20.741 31.2713 22.1681 26.2418 25.0522C21.2122 27.9362 17.6645 31.1855 18.3089 32.309C18.9534 33.4325 23.5514 32.0058 28.5809 29.1218C33.6105 26.2378 37.1582 22.9885 36.5138 21.865ZM18.9039 32.1548C18.657 32.1237 18.7128 31.9208 18.7128 31.9208C19.0157 31.0596 19.9795 30.1618 19.9795 30.1618C22.374 27.5855 28.7519 24.2131 28.7519 24.2131C33.9603 21.7899 35.5781 21.8921 35.9885 22.0051C36.0306 22.0169 36.0672 22.0432 36.0918 22.0793C36.1164 22.1155 36.1274 22.1592 36.1229 22.2027C36.0735 22.7403 35.1228 23.7099 35.1228 23.7099C32.1553 26.6724 28.8077 28.4793 28.8077 28.4793C25.9869 30.2121 22.4531 31.4945 22.4531 31.4945C19.7643 32.4635 18.904 32.1548 18.904 32.1548H18.9039Z" fill="#6F7390"/>
<path d="M36.4911 32.3465C37.141 31.2255 33.6021 27.9613 28.5903 25.0555C23.5784 22.1498 18.9814 20.705 18.3321 21.8279C17.6827 22.9508 21.221 26.2131 26.2358 29.1188C31.2505 32.0246 35.8417 33.4695 36.4911 32.3465ZM18.7627 22.2611C18.6667 22.0335 18.8694 21.9786 18.8694 21.9786C19.7666 21.8092 21.0269 22.1953 21.0269 22.1953C24.4555 22.9761 30.5693 26.8057 30.5693 26.8057C35.2765 30.0996 35.9984 31.5504 36.1066 31.9623C36.1176 32.0045 36.1133 32.0493 36.0945 32.0887C36.0757 32.1281 36.0436 32.1596 36.0039 32.1776C35.513 32.4023 34.1984 32.0675 34.1984 32.0675C30.1465 30.981 26.906 28.9905 26.906 28.9905C23.9944 27.4201 21.1154 25.0038 21.1154 25.0038C18.9278 23.1618 18.7634 22.2636 18.7634 22.2636L18.7627 22.2611Z" fill="#6F7390"/>
<path d="M27.3869 28.2971C28.0687 28.2971 28.6214 27.7443 28.6214 27.0625C28.6214 26.3807 28.0687 25.8279 27.3869 25.8279C26.705 25.8279 26.1523 26.3807 26.1523 27.0625C26.1523 27.7443 26.705 28.2971 27.3869 28.2971Z" fill="#B7B9C8"/>
<path d="M32.4485 23.0625C32.844 23.0625 33.1646 22.7308 33.1646 22.3217C33.1646 21.9126 32.844 21.581 32.4485 21.581C32.0531 21.581 31.7325 21.9126 31.7325 22.3217C31.7325 22.7308 32.0531 23.0625 32.4485 23.0625Z" fill="#B7B9C8"/>
<path d="M20.6955 25.581C21.091 25.581 21.4116 25.2494 21.4116 24.8403C21.4116 24.4312 21.091 24.0995 20.6955 24.0995C20.3 24.0995 19.9794 24.4312 19.9794 24.8403C19.9794 25.2494 20.3 25.581 20.6955 25.581Z" fill="#B7B9C8"/>
<path d="M25.9301 34.6674C26.3256 34.6674 26.6461 34.3358 26.6461 33.9267C26.6461 33.5176 26.3256 33.186 25.9301 33.186C25.5346 33.186 25.214 33.5176 25.214 33.9267C25.214 34.3358 25.5346 34.6674 25.9301 34.6674Z" fill="#B7B9C8"/>
</g>
<path d="M18.6596 22.8146C20.9889 22.8146 22.8771 20.879 22.8771 18.4912C22.8771 16.1035 20.9889 14.1678 18.6596 14.1678C16.3304 14.1678 14.4421 16.1035 14.4421 18.4912C14.4421 20.879 16.3304 22.8146 18.6596 22.8146Z" fill="url(#paint1_linear_1191_35)"/>
<path d="M18.6596 22.1661C20.6395 22.1661 22.2445 20.5208 22.2445 18.4912C22.2445 16.4616 20.6395 14.8163 18.6596 14.8163C16.6798 14.8163 15.0748 16.4616 15.0748 18.4912C15.0748 20.5208 16.6798 22.1661 18.6596 22.1661Z" fill="black"/>
<path fill-rule="evenodd" clip-rule="evenodd" d="M20.2468 17.0153C20.3145 17.0847 20.4244 17.076 20.4752 16.998C20.5259 16.9373 20.5175 16.8419 20.4583 16.7899C19.9001 16.2437 19.4011 15.9663 18.5723 16.0097C17.7012 16.053 16.9316 16.5212 16.9823 17.5095C17.0246 18.3851 17.8534 18.7059 18.5808 18.992C19.1389 19.2087 19.6295 19.3995 19.6548 19.8069C19.6802 20.2578 19.232 20.5265 18.8429 20.5525C18.1072 20.5959 17.6758 20.3271 17.1938 19.8503C17.1346 19.7896 17.0415 19.7896 16.9823 19.8416C16.9147 19.9023 16.9147 20.0063 16.9739 20.0757C17.5151 20.6306 18.0733 20.908 18.8852 20.8646C19.6971 20.804 20.6951 20.3358 20.6443 19.3475C20.602 18.4892 19.8071 18.1684 19.0882 17.891C18.4962 17.6569 17.9465 17.4401 17.9211 16.946C17.9042 16.5905 18.3186 16.3304 18.6146 16.3131C19.3335 16.2784 19.7817 16.5385 20.2468 17.0153ZM20.3399 19.3648C20.3399 19.7463 20.1369 20.0757 19.8324 20.2664L19.8155 20.2578C19.9255 20.1017 19.9424 19.9023 19.9424 19.7116C19.9424 19.1481 19.3419 18.9313 18.7076 18.6972C18.0057 18.4371 17.2699 18.1684 17.2699 17.4055C17.2699 17.0587 17.4221 16.6859 17.7181 16.5125L17.7266 16.5298C17.6505 16.6946 17.6166 16.8766 17.6166 17.0587C17.6166 17.6829 18.2848 17.9343 18.9613 18.1944C19.6548 18.4545 20.3399 18.7146 20.3399 19.3648Z" fill="white"/>
<path d="M13.0051 25.2373C20.1877 25.2373 26.0103 19.5877 26.0103 12.6186C26.0103 5.64955 20.1877 0 13.0051 0C5.8226 0 0 5.64955 0 12.6186C0 19.5877 5.8226 25.2373 13.0051 25.2373Z" fill="url(#paint2_linear_1191_35)"/>
<g clip-path="url(#clip1_1191_35)">
<path fill-rule="evenodd" clip-rule="evenodd" d="M13.005 0.63092C19.8286 0.63092 25.36 5.99804 25.36 12.6186C25.36 19.2392 19.8286 24.6063 13.005 24.6063C6.18174 24.6063 0.650269 19.2392 0.650269 12.6186C0.650269 5.99804 6.18174 0.63092 13.005 0.63092Z" fill="#6039FF"/>
<path fill-rule="evenodd" clip-rule="evenodd" d="M13.1071 6.73456C16.4568 6.73456 19.1726 9.3696 19.1726 12.6198C19.1726 15.8703 16.4568 18.5054 13.1071 18.5054C9.75699 18.5054 7.04123 15.8703 7.04123 12.6201C7.04123 9.3696 9.75737 6.73456 13.1071 6.73456Z" fill="white" fill-opacity="0.2"/>
<path fill-rule="evenodd" clip-rule="evenodd" d="M12.7812 3.9972C12.9025 3.88182 13.0484 3.79565 13.2125 3.79565C13.3762 3.79565 13.5225 3.88182 13.6438 3.9972C13.7673 4.11445 13.8874 4.28191 14.0017 4.49319C14.2468 4.94572 14.4673 5.60018 14.6518 6.40523C14.8565 7.29906 15.014 8.36072 15.1159 9.5224C16.2047 9.02716 17.2313 8.62894 18.1313 8.35398C18.9428 8.10673 19.6374 7.96438 20.164 7.94377C20.41 7.93441 20.6196 7.95126 20.7864 7.99622C20.9497 8.04042 21.0999 8.12022 21.1818 8.2577C21.2636 8.39556 21.2598 8.56114 21.2177 8.72072C21.1748 8.88368 21.0849 9.06799 20.9536 9.26954C20.6718 9.70184 20.1976 10.2136 19.5706 10.7717C18.8753 11.3899 18.0058 12.0529 17.0193 12.7197C18.0058 13.3866 18.8753 14.0496 19.5706 14.6677C20.1976 15.2259 20.6721 15.738 20.9536 16.17C21.0849 16.3715 21.1748 16.5558 21.2177 16.7188C21.2602 16.878 21.264 17.0439 21.1818 17.1818C21.0999 17.3193 20.9501 17.3991 20.7864 17.4433C20.6192 17.4882 20.4096 17.5055 20.164 17.4957C19.6374 17.4755 18.9428 17.3331 18.1313 17.0855C17.2313 16.8105 16.2047 16.4123 15.1159 15.9167C15.014 17.0784 14.8565 18.1393 14.6518 19.0328C14.4673 19.8382 14.2468 20.4923 14.0017 20.9448C13.8874 21.1557 13.7677 21.3232 13.6438 21.4412C13.5225 21.5562 13.3762 21.6423 13.2125 21.6423C13.0484 21.6423 12.9025 21.5562 12.7808 21.4412C12.6573 21.3235 12.5376 21.1557 12.4229 20.9448C12.1778 20.4923 11.9577 19.8382 11.7731 19.0328C11.5685 18.1393 11.411 17.0784 11.3087 15.9167C10.2199 16.412 9.1933 16.8105 8.29293 17.0855C7.48137 17.3331 6.78718 17.4751 6.26017 17.4957C6.01461 17.5055 5.80458 17.4882 5.63818 17.4433C5.47447 17.3991 5.32429 17.3193 5.24243 17.1818C5.16058 17.0439 5.16444 16.8784 5.20653 16.7188C5.24977 16.5558 5.33934 16.3715 5.471 16.17C5.75246 15.738 6.22658 15.2259 6.85359 14.6677C7.54932 14.0496 8.41841 13.3866 9.40487 12.7197C8.41841 12.0529 7.54932 11.3899 6.85359 10.7717C6.22658 10.2136 5.75246 9.70184 5.471 9.26954C5.33973 9.06799 5.24977 8.88368 5.20653 8.7211C5.16444 8.56151 5.16058 8.39518 5.24243 8.25807C5.32429 8.12022 5.47447 8.0408 5.63818 7.99622C5.80497 7.95126 6.01461 7.93441 6.26017 7.94377C6.7868 7.964 7.48137 8.10635 8.29293 8.35398C9.1933 8.62894 10.2199 9.02753 11.3087 9.52278C11.4106 8.36072 11.5681 7.29906 11.7731 6.40523C11.9577 5.5998 12.1778 4.94572 12.4229 4.49319C12.5372 4.28228 12.6577 4.11483 12.7812 3.9972ZM11.2755 9.93111C10.1504 9.41339 9.09253 8.99981 8.1744 8.7196C7.37713 8.4761 6.72077 8.34499 6.24472 8.32663C6.02195 8.31801 5.85709 8.33487 5.74435 8.36559C5.62814 8.39706 5.593 8.43564 5.58451 8.4495C5.5764 8.46374 5.55941 8.51244 5.58914 8.62557C5.61849 8.73571 5.68567 8.88218 5.80497 9.065C6.05902 9.45535 6.50456 9.94085 7.12076 10.4889C7.83001 11.1198 8.72806 11.8016 9.75313 12.4875C10.2252 12.1772 10.7043 11.8772 11.1902 11.5877C11.2064 11.0205 11.2353 10.4664 11.2755 9.93111ZM11.5928 11.3502C11.6083 10.9276 11.6299 10.5136 11.6585 10.1102C12.033 10.2881 12.4137 10.4765 12.7986 10.6751C12.3928 10.8936 11.9909 11.1186 11.5928 11.3502ZM11.1797 12.0447C10.8099 12.2687 10.4508 12.4942 10.1049 12.7197C10.4592 12.9506 10.8175 13.1757 11.1797 13.3948C11.172 12.9448 11.172 12.4947 11.1797 12.0447ZM11.5797 13.6338C11.5654 13.0245 11.5654 12.415 11.5797 11.8057C12.1166 11.489 12.6609 11.1842 13.2121 10.8916C13.7636 11.1842 14.3081 11.489 14.8453 11.8057C14.8597 12.415 14.8597 13.0245 14.8453 13.6338C14.3081 13.9505 13.7636 14.2553 13.2121 14.5479C12.6607 14.2553 12.1163 13.9505 11.5793 13.6338H11.5797ZM11.1898 13.8522C10.7042 13.5625 10.2253 13.2624 9.75351 12.952C8.72844 13.6379 7.83001 14.3194 7.12038 14.9506C6.50456 15.4986 6.0594 15.9841 5.80497 16.3745C5.68567 16.5573 5.61849 16.7042 5.58914 16.8139C5.55941 16.9271 5.5764 16.9758 5.58451 16.99C5.593 17.0038 5.62814 17.0424 5.74435 17.0743C5.85709 17.1046 6.02234 17.1215 6.24472 17.1129C6.72077 17.0941 7.37713 16.963 8.1744 16.7195C9.09253 16.4397 10.1504 16.0261 11.2755 15.5084C11.2344 14.957 11.2055 14.4048 11.1898 13.8522ZM11.6585 15.3293C11.6294 14.9164 11.6075 14.503 11.5928 14.0893C11.9908 14.3209 12.3928 14.5459 12.7986 14.7644C12.4219 14.9589 12.0418 15.1473 11.6585 15.3293ZM11.6901 15.7406C11.7905 16.9439 11.95 18.0385 12.1589 18.9496C12.3403 19.7408 12.5511 20.3574 12.7727 20.7665C12.8762 20.9575 12.9735 21.0875 13.0573 21.167C13.1434 21.2486 13.1955 21.2591 13.2125 21.2591C13.2295 21.2591 13.2812 21.2486 13.3677 21.167C13.4515 21.0875 13.5484 20.9575 13.6523 20.7661C13.8739 20.3574 14.0847 19.7408 14.2661 18.9492C14.4746 18.0389 14.6345 16.9439 14.7345 15.7406C14.2213 15.4994 13.7137 15.2471 13.2121 14.9839C12.7106 15.2471 12.2032 15.4994 11.6901 15.7406ZM13.626 14.7644C14.0105 14.9629 14.3916 15.1517 14.7661 15.3293C14.7947 14.9259 14.8167 14.5115 14.8318 14.0893C14.4337 14.3208 14.0317 14.5458 13.626 14.7644ZM15.2348 13.8518C15.2189 14.4046 15.1904 14.9569 15.1491 15.5084C16.2742 16.0261 17.3321 16.4397 18.2498 16.7199C19.0475 16.9634 19.7038 17.0945 20.1799 17.1129C20.4023 17.1215 20.5671 17.1046 20.6799 17.0743C20.7961 17.0428 20.8312 17.0038 20.8397 16.99C20.8482 16.9758 20.8652 16.9271 20.8351 16.8139C20.8061 16.7038 20.7386 16.5573 20.6196 16.3749C20.3648 15.9841 19.9197 15.4983 19.3038 14.9506C18.5946 14.3197 17.6962 13.6379 16.6711 12.952C16.1993 13.2622 15.7204 13.5623 15.2348 13.8518ZM16.6711 12.4875C17.6962 11.8016 18.5946 11.1201 19.3038 10.4889C19.9197 9.94085 20.3652 9.45535 20.6196 9.065C20.7386 8.88218 20.8061 8.73571 20.8351 8.62557C20.8652 8.51244 20.8482 8.46374 20.8397 8.4495C20.8312 8.43564 20.7961 8.39706 20.6799 8.36559C20.5671 8.33487 20.4023 8.31801 20.1799 8.32663C19.7038 8.34536 19.0475 8.47648 18.2498 8.71998C17.3321 8.99981 16.2742 9.41339 15.1495 9.93111C15.1897 10.4664 15.2182 11.0209 15.2344 11.5877C15.7202 11.8772 16.1992 12.1772 16.6711 12.4875ZM15.2453 12.0451C15.6147 12.2687 15.9738 12.4942 16.3197 12.7197C15.9655 12.9505 15.6073 13.1754 15.2453 13.3944C15.253 12.9447 15.253 12.4948 15.2453 12.0451ZM14.8321 11.3505C14.8175 10.9367 14.7956 10.5232 14.7665 10.1102C14.3831 10.2922 14.0028 10.4805 13.626 10.6751C14.0317 10.8938 14.4341 11.119 14.8321 11.3505ZM13.2121 10.4552C12.7106 10.1921 12.2032 9.93997 11.6901 9.69885C11.7905 8.49521 11.95 7.39983 12.1589 6.48839C12.3403 5.6972 12.5511 5.08059 12.7727 4.67151C12.8762 4.48045 12.9735 4.35046 13.0573 4.27104C13.1434 4.18938 13.1955 4.17889 13.2125 4.17889C13.2295 4.17889 13.2812 4.18938 13.3677 4.27104C13.4515 4.35046 13.5484 4.48083 13.6523 4.67188C13.8739 5.08059 14.0847 5.6972 14.2661 6.48877C14.4746 7.39983 14.6345 8.49483 14.7348 9.69885C14.2364 9.93261 13.7272 10.1855 13.2121 10.4552Z" fill="white"/>
<path fill-rule="evenodd" clip-rule="evenodd" d="M7.00842 10.1585C7.36593 10.1585 7.65589 10.4245 7.65589 10.7523C7.65589 11.08 7.36632 11.3456 7.00842 11.3456C6.65128 11.3456 6.36133 11.0797 6.36133 10.7523C6.36133 10.4245 6.6509 10.1585 7.00842 10.1585ZM17.2939 8.32849C17.6514 8.32849 17.9413 8.59409 17.9413 8.92188C17.9413 9.24967 17.6518 9.51527 17.2939 9.51527C16.9363 9.51527 16.6464 9.2493 16.6464 8.92188C16.6464 8.59409 16.936 8.32849 17.2939 8.32849ZM11.8156 17.4399C12.1731 17.4399 12.4631 17.7055 12.4631 18.0329C12.4631 18.3607 12.1735 18.6263 11.8156 18.6263C11.4577 18.6263 11.1678 18.3603 11.1678 18.0329C11.1678 17.7055 11.4577 17.4399 11.8156 17.4399ZM13.2631 11.4816C13.4071 11.4816 13.5497 11.5091 13.6827 11.5626C13.8157 11.6161 13.9366 11.6944 14.0384 11.7932C14.1402 11.892 14.221 12.0093 14.2761 12.1384C14.3312 12.2675 14.3596 12.4058 14.3596 12.5455C14.3596 12.6853 14.3312 12.8236 14.2761 12.9527C14.221 13.0818 14.1402 13.199 14.0384 13.2978C13.9366 13.3966 13.8157 13.475 13.6827 13.5285C13.5497 13.5819 13.4071 13.6094 13.2631 13.6094C12.9723 13.6094 12.6934 13.4974 12.4877 13.2978C12.2821 13.0983 12.1666 12.8277 12.1666 12.5455C12.1666 12.2634 12.2821 11.9928 12.4877 11.7932C12.6934 11.5937 12.9723 11.4816 13.2631 11.4816Z" fill="#F3E7FF"/>
</g>
<path d="M4.37838 8.51758C6.77256 8.51758 8.71343 6.6344 8.71343 4.31137C8.71343 1.98835 6.77256 0.105164 4.37838 0.105164C1.9842 0.105164 0.043335 1.98835 0.043335 4.31137C0.043335 6.6344 1.9842 8.51758 4.37838 8.51758Z" fill="url(#paint3_linear_1191_35)"/>
<path d="M4.37839 7.88664C6.41345 7.88664 8.06319 6.28593 8.06319 4.31136C8.06319 2.33679 6.41345 0.736084 4.37839 0.736084C2.34334 0.736084 0.693604 2.33679 0.693604 4.31136C0.693604 6.28593 2.34334 7.88664 4.37839 7.88664Z" fill="black"/>
<path fill-rule="evenodd" clip-rule="evenodd" d="M6.00982 2.87553C6.07936 2.94301 6.19237 2.93458 6.24453 2.85866C6.29668 2.79962 6.28799 2.70684 6.22714 2.65623C5.6534 2.12485 5.14051 1.85494 4.2886 1.89711C3.39322 1.93929 2.60215 2.39476 2.65431 3.35631C2.69778 4.20821 3.54969 4.52029 4.29729 4.79863C4.87103 5.0095 5.37523 5.19506 5.4013 5.59149C5.42738 6.03009 4.96665 6.29157 4.56678 6.31687C3.81048 6.35905 3.36714 6.09757 2.87164 5.63367C2.81079 5.57462 2.71516 5.57462 2.65431 5.62523C2.58477 5.68427 2.58477 5.78549 2.64562 5.85297C3.20197 6.39278 3.77571 6.66269 4.61024 6.62052C5.44477 6.56148 6.47055 6.10601 6.41839 5.14445C6.37492 4.30942 5.55778 3.99734 4.81887 3.72743C4.21036 3.4997 3.64532 3.28883 3.61924 2.80806C3.60185 2.46223 4.02781 2.20919 4.33206 2.19233C5.07097 2.15859 5.5317 2.41163 6.00982 2.87553ZM6.10544 5.16132C6.10544 5.53245 5.89681 5.85297 5.58386 6.03853L5.56647 6.03009C5.67948 5.87827 5.69687 5.68427 5.69687 5.49871C5.69687 4.95046 5.07966 4.73959 4.42769 4.51186C3.70617 4.25882 2.94987 3.99734 2.94987 3.25509C2.94987 2.91771 3.10635 2.55502 3.4106 2.38632L3.4193 2.40319C3.34106 2.56345 3.30629 2.74058 3.30629 2.91771C3.30629 3.525 3.99304 3.76961 4.68848 4.02265C5.4013 4.27569 6.10544 4.52873 6.10544 5.16132Z" fill="white"/>
<defs>
<linearGradient id="paint0_linear_1191_35" x1="27.3574" y1="14" x2="27.3574" y2="39.9402" gradientUnits="userSpaceOnUse">
<stop stop-color="#B977FF"/>
<stop offset="1" stop-color="#606DC8"/>
</linearGradient>
<linearGradient id="paint1_linear_1191_35" x1="16.1118" y1="14.1678" x2="20.7983" y2="22.7179" gradientUnits="userSpaceOnUse">
<stop stop-color="#B977FF"/>
<stop offset="1" stop-color="#606DC8"/>
</linearGradient>
<linearGradient id="paint2_linear_1191_35" x1="13.0051" y1="0" x2="13.0051" y2="25.2373" gradientUnits="userSpaceOnUse">
<stop stop-color="#B977FF"/>
<stop offset="1" stop-color="#606DC8"/>
</linearGradient>
<linearGradient id="paint3_linear_1191_35" x1="1.75952" y1="0.105163" x2="6.18157" y2="8.62855" gradientUnits="userSpaceOnUse">
<stop stop-color="#B977FF"/>
<stop offset="1" stop-color="#606DC8"/>
</linearGradient>
<clipPath id="clip0_1191_35">
<rect width="24" height="24" fill="white" transform="translate(15.3869 15.0625)"/>
</clipPath>
<clipPath id="clip1_1191_35">
<rect width="24.7098" height="23.9754" fill="white" transform="translate(0.650269 0.63092)"/>
</clipPath>
</defs>
</svg>
