<svg width="40" height="40" viewBox="0 0 40 40" fill="none" xmlns="http://www.w3.org/2000/svg">
<g clip-path="url(#clip0_1263_50)">
<mask id="mask0_1263_50" style="mask-type:luminance" maskUnits="userSpaceOnUse" x="14" y="13" width="26" height="27">
<path d="M39.3342 13.3871H14.0303V39.3176H39.3342V13.3871Z" fill="white"/>
</mask>
<g mask="url(#mask0_1263_50)">
<path d="M26.6822 39.3176C33.6697 39.3176 39.3342 33.5129 39.3342 26.3524C39.3342 19.1919 33.6697 13.3871 26.6822 13.3871C19.6948 13.3871 14.0303 19.1919 14.0303 26.3524C14.0303 33.5129 19.6948 39.3176 26.6822 39.3176Z" fill="#2E3148"/>
<path d="M26.6822 33.8754C30.7367 33.8754 34.0235 30.5073 34.0235 26.3524C34.0235 22.1975 30.7367 18.8293 26.6822 18.8293C22.6277 18.8293 19.3409 22.1975 19.3409 26.3524C19.3409 30.5073 22.6277 33.8754 26.6822 33.8754Z" fill="#1B1E36"/>
<path d="M26.7082 15.0412C25.3425 15.0412 24.2351 20.1173 24.2351 26.3791C24.2351 32.6409 25.3425 37.7171 26.7082 37.7171C28.0739 37.7171 29.1813 32.6409 29.1813 26.3791C29.1813 20.1173 28.0739 15.0412 26.7082 15.0412ZM26.879 37.0772C26.7228 37.2907 26.5666 37.1305 26.5666 37.1305C25.9377 36.3837 25.6232 34.9963 25.6232 34.9963C24.523 31.3682 24.7849 23.5784 24.7849 23.5784C25.3019 17.3941 26.2424 15.9332 26.5625 15.6088C26.5951 15.5757 26.6382 15.5555 26.6839 15.5517C26.7297 15.5479 26.7754 15.5608 26.8128 15.5881C27.2772 15.9253 27.6667 17.3355 27.6667 17.3355C28.8169 21.7106 28.7126 25.8189 28.7126 25.8189C28.8169 29.3937 28.1364 33.3953 28.1364 33.3953C27.6126 36.4364 26.879 37.0772 26.879 37.0772Z" fill="#6F7390"/>
<path d="M36.305 20.7368C35.625 19.5224 30.7777 21.0643 25.4749 24.1803C20.1721 27.2964 16.4316 30.807 17.1111 32.0209C17.7905 33.2348 22.6383 31.6934 27.9412 28.5773C33.2439 25.4613 36.9845 21.9507 36.305 20.7368ZM17.7384 31.8543C17.4781 31.8207 17.5369 31.6015 17.5369 31.6015C17.8562 30.671 18.8724 29.701 18.8724 29.701C21.397 26.9174 28.1214 23.2738 28.1214 23.2738C33.6128 20.6557 35.3185 20.7661 35.7512 20.8882C35.7956 20.901 35.8341 20.9293 35.8601 20.9684C35.886 21.0075 35.8977 21.0547 35.8929 21.1017C35.8409 21.6826 34.8385 22.7301 34.8385 22.7301C31.7097 25.9309 28.1802 27.8832 28.1802 27.8832C25.2062 29.7553 21.4805 31.1409 21.4805 31.1409C18.6455 32.1878 17.7384 31.8543 17.7384 31.8543Z" fill="#6F7390"/>
<path d="M36.281 32.0613C36.9663 30.8502 33.2351 27.3234 27.9509 24.184C22.6668 21.0445 17.8201 19.4835 17.1354 20.6967C16.4508 21.9099 20.1813 25.4346 25.4686 28.5741C30.7558 31.7136 35.5964 33.2747 36.281 32.0613ZM17.5895 21.1647C17.4883 20.9188 17.702 20.8595 17.702 20.8595C18.6479 20.6765 19.9767 21.0937 19.9767 21.0937C23.5916 21.9372 30.0375 26.0749 30.0375 26.0749C35.0004 29.6338 35.7616 31.2013 35.8757 31.6462C35.8873 31.6919 35.8827 31.7403 35.863 31.7828C35.8431 31.8254 35.8093 31.8594 35.7673 31.8789C35.2499 32.1217 33.8638 31.7599 33.8638 31.7599C29.5918 30.5861 26.1752 28.4354 26.1752 28.4354C23.1054 26.7387 20.07 24.128 20.07 24.128C17.7635 22.1379 17.5902 21.1674 17.5902 21.1674L17.5895 21.1647Z" fill="#6F7390"/>
<path d="M26.6822 27.6862C27.4011 27.6862 27.9839 27.089 27.9839 26.3524C27.9839 25.6157 27.4011 25.0185 26.6822 25.0185C25.9633 25.0185 25.3806 25.6157 25.3806 26.3524C25.3806 27.089 25.9633 27.6862 26.6822 27.6862Z" fill="#B7B9C8"/>
<path d="M32.019 22.0306C32.4359 22.0306 32.774 21.6723 32.774 21.2303C32.774 20.7882 32.4359 20.43 32.019 20.43C31.602 20.43 31.264 20.7882 31.264 21.2303C31.264 21.6723 31.602 22.0306 32.019 22.0306Z" fill="#B7B9C8"/>
<path d="M19.6273 24.7518C20.0443 24.7518 20.3823 24.3935 20.3823 23.9514C20.3823 23.5094 20.0443 23.1511 19.6273 23.1511C19.2103 23.1511 18.8723 23.5094 18.8723 23.9514C18.8723 24.3935 19.2103 24.7518 19.6273 24.7518Z" fill="#B7B9C8"/>
<path d="M25.1463 34.569C25.5633 34.569 25.9013 34.2107 25.9013 33.7687C25.9013 33.3267 25.5633 32.9684 25.1463 32.9684C24.7294 32.9684 24.3914 33.3267 24.3914 33.7687C24.3914 34.2107 24.7294 34.569 25.1463 34.569Z" fill="#B7B9C8"/>
</g>
<path d="M17.8481 21.9169C20.2998 21.9169 22.2874 19.8801 22.2874 17.3677C22.2874 14.8552 20.2998 12.8185 17.8481 12.8185C15.3964 12.8185 13.4088 14.8552 13.4088 17.3677C13.4088 19.8801 15.3964 21.9169 17.8481 21.9169Z" fill="url(#paint0_linear_1263_50)"/>
<path d="M17.848 21.2345C19.932 21.2345 21.6214 19.5032 21.6214 17.3676C21.6214 15.232 19.932 13.5008 17.848 13.5008C15.764 13.5008 14.0746 15.232 14.0746 17.3676C14.0746 19.5032 15.764 21.2345 17.848 21.2345Z" fill="black"/>
<mask id="mask1_1263_50" style="mask-type:luminance" maskUnits="userSpaceOnUse" x="15" y="14" width="6" height="6">
<path d="M20.2564 14.7518H15.3621V19.8331H20.2564V14.7518Z" fill="white"/>
</mask>
<g mask="url(#mask1_1263_50)">
<path d="M20.2564 16.2901C20.2564 16.212 20.2172 16.1415 20.1518 16.1015L18.0536 14.821C17.9029 14.7288 17.7156 14.7288 17.5648 14.821L15.4667 16.1016C15.402 16.1411 15.3631 16.2104 15.3621 16.2874C15.3621 16.3816 15.3622 16.5356 15.3622 16.6298C15.3596 16.7108 15.3991 16.7846 15.4667 16.8259L16.2043 17.2762C16.2164 17.2836 16.2164 17.3015 16.2043 17.3089L15.4667 17.759C15.4014 17.7989 15.3622 17.8692 15.3621 17.9472C15.3621 18.0427 15.3621 18.1991 15.3621 18.2947C15.3621 18.3729 15.4013 18.4434 15.4667 18.4832L17.5648 19.7639C17.6402 19.8101 17.7247 19.8331 17.8093 19.8331C17.8939 19.8331 17.9782 19.8101 18.0536 19.7639L20.1517 18.4832C20.2172 18.4434 20.2564 18.3729 20.2564 18.2947C20.2564 18.1991 20.2564 18.0427 20.2564 17.9472C20.2562 17.8692 20.2171 17.7989 20.1517 17.759L19.4141 17.3089C19.4021 17.3015 19.4021 17.2836 19.4141 17.2762L20.1517 16.8259C20.2172 16.7859 20.2564 16.7155 20.2564 16.6374V16.2901ZM17.664 16.9961C17.7088 16.9689 17.7591 16.9551 17.8093 16.9551C17.8596 16.9551 17.9096 16.9688 17.9544 16.9961L18.4399 17.2925L17.9544 17.5888C17.8648 17.6435 17.7536 17.6435 17.664 17.5888L17.1785 17.2925L17.664 16.9961ZM19.7708 18.1049C19.7828 18.1122 19.7828 18.1302 19.7708 18.1375L17.9544 19.2461C17.8648 19.3009 17.7536 19.3009 17.664 19.2461L15.8477 18.1375C15.8356 18.1301 15.8356 18.1122 15.8477 18.1049L16.1881 17.897C16.2546 17.8564 16.2953 17.7829 16.2953 17.7036V17.3768C16.2953 17.3575 16.3158 17.3456 16.3319 17.3555L17.5648 18.1066C17.6402 18.1525 17.7247 18.1756 17.8093 18.1756C17.8939 18.1756 17.9782 18.1525 18.0536 18.1066L18.4134 17.887C18.4803 17.8461 18.5211 17.772 18.5207 17.6921L18.5189 17.3846C18.5187 17.3653 18.5393 17.3532 18.5555 17.3631L19.7708 18.1049ZM19.3191 17.2054C19.3191 17.2247 19.2987 17.2366 19.2826 17.2267L18.0536 16.4783C17.9029 16.3863 17.7156 16.3863 17.5648 16.4783L17.2028 16.6993C17.1358 16.7401 17.095 16.8143 17.0955 16.8941L17.0973 17.2089C17.0974 17.2237 17.0817 17.2329 17.0693 17.2253L15.8477 16.48C15.8356 16.4727 15.8356 16.4547 15.8477 16.4474L17.664 15.3388C17.7088 15.3113 17.7591 15.2976 17.8093 15.2976C17.8596 15.2976 17.9096 15.3113 17.9544 15.3388L19.7708 16.4474C19.7828 16.4547 19.7828 16.4727 19.7708 16.48L19.4264 16.6902C19.3599 16.7308 19.3191 16.8043 19.3191 16.8837V17.2054Z" fill="white"/>
</g>
</g>
<g clip-path="url(#clip1_1263_50)">
<path d="M12.525 23.85C19.3043 23.85 24.8 18.5782 24.8 12.075C24.8 5.57185 19.3043 0.300003 12.525 0.300003C5.7457 0.300003 0.25 5.57185 0.25 12.075C0.25 18.5782 5.7457 23.85 12.525 23.85Z" fill="#E50571"/>
<path d="M12.5502 1.8022C11.2252 1.8022 10.1508 6.41235 10.1508 12.0993C10.1508 17.7862 11.2252 22.3964 12.5502 22.3964C13.8752 22.3964 14.9496 17.7862 14.9496 12.0993C14.9496 6.41235 13.8752 1.8022 12.5502 1.8022ZM12.7158 21.8153C12.5643 22.0091 12.4128 21.8637 12.4128 21.8637C11.8026 21.1854 11.4975 19.9254 11.4975 19.9254C10.4301 16.6304 10.6842 9.55571 10.6842 9.55571C11.1858 3.93913 12.0983 2.61232 12.4088 2.31776C12.4405 2.28769 12.4822 2.26932 12.5267 2.26588C12.5711 2.26243 12.6154 2.27413 12.6517 2.29892C13.1023 2.60516 13.4801 3.8859 13.4801 3.8859C14.596 7.85935 14.4949 11.5905 14.4949 11.5905C14.596 14.8371 13.9358 18.4714 13.9358 18.4714C13.4276 21.2333 12.7158 21.8153 12.7158 21.8153Z" fill="white"/>
<path d="M21.8611 6.97494C21.2014 5.87205 16.4985 7.27243 11.3537 10.1024C6.20892 12.9323 2.57984 16.1207 3.23905 17.2231C3.89827 18.3256 8.60166 16.9257 13.7465 14.0957C18.8913 11.2658 22.5203 8.07737 21.8611 6.97494V6.97494ZM3.8477 17.0719C3.59513 17.0413 3.65218 16.8422 3.65218 16.8422C3.962 15.9971 4.94793 15.1162 4.94793 15.1162C7.39733 12.5882 13.9213 9.27907 13.9213 9.27907C19.2491 6.90128 20.904 7.0016 21.3238 7.11247C21.3669 7.12401 21.4043 7.14981 21.4295 7.18529C21.4546 7.22077 21.4659 7.26365 21.4612 7.30634C21.4108 7.83386 20.4383 8.78528 20.4383 8.78528C17.4027 11.6922 13.9784 13.4652 13.9784 13.4652C11.093 15.1655 7.47825 16.424 7.47825 16.424C4.72777 17.3747 3.8478 17.0719 3.8478 17.0719H3.8477Z" fill="white"/>
<path d="M21.8378 17.2599C22.5026 16.1599 18.8827 12.9569 13.7559 10.1056C8.6292 7.2544 3.9269 5.83669 3.26267 6.93855C2.59845 8.04041 6.21781 11.2415 11.3475 14.0928C16.4772 16.944 21.1736 18.3618 21.8378 17.2599ZM3.7032 7.36358C3.605 7.14023 3.8123 7.08645 3.8123 7.08645C4.73008 6.92018 6.01925 7.29905 6.01925 7.29905C9.52646 8.06518 15.7803 11.823 15.7803 11.823C20.5954 15.0551 21.3338 16.4788 21.4445 16.8829C21.4558 16.9243 21.4514 16.9682 21.4322 17.0069C21.4129 17.0456 21.3801 17.0765 21.3394 17.0942C20.8373 17.3147 19.4926 16.9861 19.4926 16.9861C15.3479 15.9201 12.0331 13.9668 12.0331 13.9668C9.0548 12.4259 6.10979 10.0549 6.10979 10.0549C3.872 8.24746 3.70389 7.36603 3.70389 7.36603L3.7032 7.36358Z" fill="white"/>
<path d="M12.5251 13.2864C13.2225 13.2864 13.7879 12.744 13.7879 12.075C13.7879 11.4059 13.2225 10.8636 12.5251 10.8636C11.8276 10.8636 11.2622 11.4059 11.2622 12.075C11.2622 12.744 11.8276 13.2864 12.5251 13.2864Z" fill="white"/>
<path d="M17.7027 8.14997C18.1072 8.14997 18.4352 7.82455 18.4352 7.42312C18.4352 7.02169 18.1072 6.69627 17.7027 6.69627C17.2982 6.69627 16.9702 7.02169 16.9702 7.42312C16.9702 7.82455 17.2982 8.14997 17.7027 8.14997Z" fill="white"/>
<path d="M5.68023 10.6213C6.08476 10.6213 6.4127 10.2959 6.4127 9.89447C6.4127 9.49304 6.08476 9.16762 5.68023 9.16762C5.27569 9.16762 4.94775 9.49304 4.94775 9.89447C4.94775 10.2959 5.27569 10.6213 5.68023 10.6213Z" fill="white"/>
<path d="M11.0348 19.5373C11.4394 19.5373 11.7673 19.2119 11.7673 18.8105C11.7673 18.4091 11.4394 18.0836 11.0348 18.0836C10.6303 18.0836 10.3024 18.4091 10.3024 18.8105C10.3024 19.2119 10.6303 19.5373 11.0348 19.5373Z" fill="white"/>
</g>
<defs>
<linearGradient id="paint0_linear_1263_50" x1="15.1663" y1="12.8185" x2="20.0967" y2="21.8166" gradientUnits="userSpaceOnUse">
<stop stop-color="#B977FF"/>
<stop offset="1" stop-color="#606DC8"/>
</linearGradient>
<clipPath id="clip0_1263_50">
<rect width="26.6357" height="27.2953" fill="white" transform="translate(13.3644 12.7047)"/>
</clipPath>
<clipPath id="clip1_1263_50">
<rect width="24.55" height="23.55" fill="white" transform="translate(0.25 0.300003)"/>
</clipPath>
</defs>
</svg>
