<?xml version="1.0" standalone="no"?>
<!DOCTYPE svg PUBLIC "-//W3C//DTD SVG 20010904//EN"
 "http://www.w3.org/TR/2001/REC-SVG-20010904/DTD/svg10.dtd">
<svg version="1.0" xmlns="http://www.w3.org/2000/svg"
 width="40.000000pt" height="40.000000pt" viewBox="0 0 420.000000 420.000000"
 preserveAspectRatio="xMidYMid meet">

<g transform="translate(0.000000,420.000000) scale(0.100000,-0.100000)"
fill="#000000" stroke="none">
<path d="M2052 4037 l-22 -23 0 -1520 0 -1519 -583 583 c-429 429 -588 582
-605 582 -60 0 -102 -49 -88 -102 3 -13 300 -318 660 -677 624 -624 657 -655
691 -655 34 0 67 31 696 660 625 625 659 661 659 695 0 65 -58 97 -118 65 -15
-8 -279 -267 -587 -575 l-560 -561 -5 1516 -5 1516 -24 19 c-32 26 -82 25
-109 -4z"/>
<path d="M131 2114 c-21 -26 -21 -34 -21 -653 0 -720 0 -714 90 -896 115 -231
330 -407 585 -477 l80 -23 1185 -3 c827 -2 1211 0 1270 8 297 39 554 223 690
495 97 193 94 167 95 898 l0 639 -24 19 c-33 27 -77 24 -106 -7 l-24 -26 -3
-626 c-4 -617 -4 -628 -27 -702 -75 -250 -269 -440 -526 -516 -56 -17 -142
-18 -1235 -22 -772 -2 -1202 1 -1253 7 -171 23 -289 83 -422 216 -103 103
-161 200 -197 332 -20 75 -21 100 -22 695 l-1 616 -24 26 c-33 36 -82 35 -110
0z"/>
</g>
</svg>
