<svg xmlns="http://www.w3.org/2000/svg" width="40" height="40" viewBox="0 0 400 400" version="1.1">
    <defs>
        <linearGradient id="gradient" x1="0%" y1="0%" x2="100%" y2="0%">
            <stop offset="0%" stop-color="#c702fd" />
            <stop offset="100%" stop-color="#05fbbc" />
        </linearGradient>
    </defs>
    <circle cx="200" cy="200" r="200" fill="#0c141c" fill-rule="evenodd" />
    <path
        d="M 163.472 69.361 C 154.009 73.923, 146.091 80.191, 136.147 90.992 C 127.081 100.840, 119.979 106.171, 108.769 111.543 C 96.034 117.647, 85.009 116.047, 62.738 104.866 C 41.609 94.259, 34.110 92.704, 29.649 98.005 C 26.412 101.853, 25.551 107.703, 26.351 120.432 C 27.461 138.119, 34.374 166.733, 43.640 192 C 49.040 206.723, 64.020 236.307, 72.510 249.015 C 83.050 264.792, 89.286 272.281, 105 288.033 C 124.283 307.364, 144.966 322.461, 167.829 333.893 C 213.628 356.794, 269.291 361.207, 318 345.798 C 336.109 340.069, 353 330.480, 353 325.927 C 353 322.847, 349.328 323.509, 333.551 329.431 C 312.995 337.146, 300.947 340.005, 289.102 339.978 C 281.904 339.962, 278.472 339.489, 275.395 338.092 C 267.085 334.318, 264.039 327.947, 266.008 318.463 C 268.715 305.420, 276.004 296.377, 294.539 283.064 C 299.468 279.524, 308.225 272.811, 314 268.145 C 325.574 258.794, 358.265 226.392, 367.158 215.457 C 377.702 202.490, 384.471 186.708, 387.049 169.078 C 389.444 152.701, 386.322 136.872, 380.404 135.387 C 376.504 134.408, 365.905 137.738, 343.032 147.129 C 303.049 163.546, 293.704 165.886, 265 166.668 C 242.625 167.277, 231.375 165.940, 218.098 161.095 C 209.147 157.828, 199.961 152.158, 197.092 148.129 C 191.179 139.826, 190.768 127.384, 195.551 101.465 C 198.409 85.974, 198.348 81, 195.303 81 C 194.390 81, 190.175 84.375, 185.937 88.500 C 181.698 92.625, 177.489 96, 176.583 96 C 171.361 96, 163 89.647, 163 85.680 C 163 84.523, 166.007 80.550, 170 76.432 C 173.850 72.462, 177 68.490, 177 67.607 C 177 64.920, 171.095 65.686, 163.472 69.361"
        stroke="none" fill="url(#gradient)" fill-rule="evenodd" />
</svg>