<svg xmlns="http://www.w3.org/2000/svg" width="40" height="40" version="1.1">
<path d="M19.9609 40C31.0282 40 40 31.0282 40 19.9609C40 8.89367 31.0282 -0.078125 19.9609 -0.078125C8.89367 -0.078125 -0.078125 8.89367 -0.078125 19.9609C-0.078125 31.0282 8.89367 40 19.9609 40Z" fill="white"></path><path d="M26.6406 10.3487H13.2812V13.2812H26.6406V10.3487Z" fill="#E50913"></path><path d="M20.0194 32.8316C18.757 32.8316 17.6258 32.6238 16.6257 32.2084C15.6256 31.793 14.8223 31.1782 14.2157 30.364C13.6255 29.5498 13.3141 28.5694 13.2812 27.4228H17.757C17.8225 28.0709 18.0438 28.5694 18.4209 28.9183C18.798 29.2506 19.2898 29.4168 19.8964 29.4168C20.5194 29.4168 21.0112 29.2755 21.3719 28.993C21.7326 28.694 21.9129 28.2869 21.9129 27.7718C21.9129 27.3397 21.7653 26.9825 21.4702 26.7C21.1916 26.4175 20.8391 26.1848 20.4128 26.0021C20.003 25.8193 19.4127 25.6116 18.6422 25.379C17.5274 25.03 16.6175 24.681 15.9126 24.3321C15.2076 23.9831 14.601 23.468 14.0927 22.7867C13.5845 22.1055 13.3305 21.2165 13.3305 20.1198C13.3305 18.4913 13.9124 17.2202 15.0764 16.3063C16.2405 15.3757 17.757 14.9105 19.6259 14.9105C21.5277 14.9105 23.0605 15.3757 24.2245 16.3063C25.3885 17.2202 26.0115 18.4996 26.0934 20.1447H21.544C21.5113 19.5797 21.3063 19.1394 20.9292 18.8237C20.5522 18.4913 20.0685 18.3252 19.4784 18.3252C18.9701 18.3252 18.5602 18.4664 18.2487 18.7489C17.9373 19.0148 17.7815 19.4052 17.7815 19.9204C17.7815 20.4853 18.0438 20.9257 18.5684 21.2414C19.093 21.5571 19.9128 21.8977 21.0276 22.2634C22.1424 22.6455 23.0441 23.0111 23.7327 23.36C24.4377 23.709 25.0442 24.2158 25.5524 24.8805C26.0607 25.5452 26.3148 26.4009 26.3148 27.4477C26.3148 28.4448 26.0607 29.3503 25.5524 30.1645C25.0606 30.9787 24.3393 31.6268 23.3884 32.1088C22.4375 32.5906 21.3145 32.8316 20.0194 32.8316Z" fill="black"></path>
</svg>