<svg width="40" height="40" viewBox="0 0 40 40" fill="none" xmlns="http://www.w3.org/2000/svg">
<path d="M16.7214 33.2355C25.5579 33.2355 32.7214 26.0721 32.7214 17.2355C32.7214 8.39899 25.5579 1.23555 16.7214 1.23555C7.8848 1.23555 0.721352 8.39899 0.721352 17.2355C0.721352 26.0721 7.8848 33.2355 16.7214 33.2355Z" fill="url(#paint0_radial_158_130)"/>
<path d="M16.7312 23.745C20.3208 23.745 23.2307 20.8351 23.2307 17.2454C23.2307 13.6558 20.3208 10.7458 16.7312 10.7458C13.1415 10.7458 10.2316 13.6558 10.2316 17.2454C10.2316 20.8351 13.1415 23.745 16.7312 23.745Z" fill="#1E2251"/>
<path d="M16.7542 7.47307C15.545 7.47307 14.5646 11.8586 14.5646 17.2686C14.5646 22.6785 15.545 27.064 16.7542 27.064C17.9633 27.064 18.9437 22.6785 18.9437 17.2686C18.9437 11.8586 17.9633 7.47307 16.7542 7.47307ZM16.9053 26.5112C16.7671 26.6957 16.6288 26.5573 16.6288 26.5573C16.0719 25.9121 15.7935 24.7135 15.7935 24.7135C14.8195 21.5789 15.0514 14.8489 15.0514 14.8489C15.5091 9.5059 16.3418 8.24372 16.6251 7.96351C16.6541 7.93491 16.6922 7.91743 16.7327 7.91416C16.7733 7.91088 16.8137 7.92201 16.8468 7.94559C17.258 8.23691 17.6028 9.45527 17.6028 9.45527C18.621 13.2352 18.5288 16.7846 18.5288 16.7846C18.621 19.873 18.0186 23.3302 18.0186 23.3302C17.5548 25.9576 16.9053 26.5112 16.9053 26.5112Z" fill="url(#paint1_angular_158_130)"/>
<path d="M25.2507 12.3938C24.6486 11.3447 20.3571 12.6768 15.6623 15.3689C10.9674 18.061 7.65577 21.0941 8.25733 22.1428C8.85889 23.1915 13.1509 21.8598 17.8457 19.1677C22.5405 16.4756 25.8522 13.4426 25.2507 12.3938V12.3938ZM8.81274 21.9989C8.58226 21.9699 8.63433 21.7804 8.63433 21.7804C8.91705 20.9765 9.81675 20.1385 9.81675 20.1385C12.0519 17.7337 18.0053 14.5857 18.0053 14.5857C22.8671 12.3238 24.3772 12.4192 24.7603 12.5247C24.7996 12.5357 24.8338 12.5602 24.8568 12.5939C24.8797 12.6277 24.89 12.6685 24.8858 12.7091C24.8397 13.2109 23.9523 14.116 23.9523 14.116C21.1822 16.8813 18.0574 18.568 18.0574 18.568C15.4243 20.1854 12.1258 21.3826 12.1258 21.3826C9.61584 22.287 8.81283 21.9989 8.81283 21.9989H8.81274Z" fill="url(#paint2_angular_158_130)"/>
<path d="M25.2294 22.1777C25.8361 21.1313 22.5328 18.0844 17.8544 15.372C13.1761 12.6597 8.88507 11.311 8.27894 12.3592C7.67281 13.4074 10.9756 16.4526 15.6566 19.1649C20.3376 21.8773 24.6233 23.226 25.2294 22.1777ZM8.68094 12.7635C8.59132 12.5511 8.78049 12.4999 8.78049 12.4999C9.618 12.3417 10.7944 12.7021 10.7944 12.7021C13.9949 13.431 19.7018 17.0057 19.7018 17.0057C24.0957 20.0804 24.7695 21.4347 24.8705 21.8191C24.8808 21.8585 24.8768 21.9003 24.8593 21.9371C24.8417 21.9739 24.8118 22.0033 24.7747 22.0201C24.3165 22.2299 23.0893 21.9173 23.0893 21.9173C19.3071 20.9032 16.2823 19.0451 16.2823 19.0451C13.5645 17.5792 10.877 15.3237 10.877 15.3237C8.83498 13.6044 8.68156 12.7659 8.68156 12.7659L8.68094 12.7635Z" fill="url(#paint3_angular_158_130)"/>
<path d="M16.7311 18.3978C17.3676 18.3978 17.8835 17.8819 17.8835 17.2454C17.8835 16.609 17.3676 16.093 16.7311 16.093C16.0947 16.093 15.5787 16.609 15.5787 17.2454C15.5787 17.8819 16.0947 18.3978 16.7311 18.3978Z" fill="#EBF2FF"/>
<path d="M21.456 13.5116C21.8251 13.5116 22.1244 13.202 22.1244 12.8202C22.1244 12.4383 21.8251 12.1287 21.456 12.1287C21.0868 12.1287 20.7876 12.4383 20.7876 12.8202C20.7876 13.202 21.0868 13.5116 21.456 13.5116Z" fill="#EBF2FF"/>
<path d="M10.4851 15.8626C10.8542 15.8626 11.1535 15.553 11.1535 15.1711C11.1535 14.7893 10.8542 14.4797 10.4851 14.4797C10.1159 14.4797 9.81667 14.7893 9.81667 15.1711C9.81667 15.553 10.1159 15.8626 10.4851 15.8626Z" fill="#EBF2FF"/>
<path d="M15.3713 24.3443C15.7405 24.3443 16.0397 24.0347 16.0397 23.6528C16.0397 23.271 15.7405 22.9614 15.3713 22.9614C15.0021 22.9614 14.7029 23.271 14.7029 23.6528C14.7029 24.0347 15.0021 24.3443 15.3713 24.3443Z" fill="#EBF2FF"/>
<g filter="url(#filter0_d_158_130)">
<path d="M28.2577 38.587C27.4032 38.8421 27.0753 38.8278 26.2965 38.5079C25.0679 38.0033 24.1567 35.8645 24.1567 35.8645L26.4856 32.5185L31.0801 32.7335C31.0801 32.7335 30.9779 37.7749 28.2577 38.587Z" fill="url(#paint4_linear_158_130)"/>
<path d="M33.9313 31.2781C29.9845 33.7518 23.9672 35.4285 26.2796 38.4679C23.7019 37.2307 21.9223 34.5961 21.9223 31.5458C21.9223 27.3076 25.358 23.8719 29.5962 23.8719C32.0756 23.8719 34.2804 25.0478 35.6833 26.8723C36.4674 27.8921 36.1586 29.882 33.9313 31.2781Z" fill="url(#paint5_linear_158_130)"/>
<path d="M23.491 31.1699C23.491 27.7399 26.3758 24.8787 29.8058 24.8787C32.5844 24.8787 34.8017 27.0889 35.5437 29.7517C34.67 31.3824 31.041 32.7809 30.5358 33.0357C30.0306 33.2905 28.9547 33.8088 27.9762 34.4514C26.3175 35.5407 25.8688 36.5905 25.8688 36.5905C24.3689 35.3628 23.4311 33.4179 23.491 31.1699Z" fill="url(#paint6_linear_158_130)"/>
<path d="M23.533 32.3624C23.4897 33.3437 24.592 35.731 25.9155 36.5542C26.9879 34.0161 33.5466 32.0929 34.8026 30.6377C34.5132 30.3403 34.3372 30.1977 33.9586 30.1052C33.039 29.8804 32.5733 30.2259 31.708 29.9745C31.1197 29.8036 30.9356 29.4031 30.3919 29.1205C29.6107 28.7146 29.203 28.764 28.4226 28.7789C24.5067 28.854 23.5895 31.0841 23.533 32.3624Z" fill="url(#paint7_linear_158_130)"/>
<path d="M32.45 32.1053C31.0807 29.839 30.2008 29.074 29.953 29.0651C28.4019 29.0092 26.937 29.7818 25.992 31.2519C24.5028 33.5688 26.3339 35.8675 26.3339 35.8675C26.3339 35.8675 27.3612 34.6751 29.3372 33.6567C30.6003 33.0057 32.4972 32.1834 32.45 32.1053Z" fill="url(#paint8_linear_158_130)"/>
<path d="M30.5922 29.9111C30.7794 30.275 30.5192 30.8572 29.9552 31.1836C29.3507 31.5334 28.8642 31.5671 28.592 31.136C28.3871 30.7818 28.6319 30.204 29.1959 29.8776C29.76 29.5512 30.4328 29.6011 30.5922 29.9111Z" fill="#F1F0F1"/>
<path d="M32.1425 30.9058C32.3043 31.4989 32.2479 31.7381 31.8797 31.9579C31.4821 32.1952 31.202 31.9608 31.0533 31.3603C30.9332 30.8028 30.866 30.1615 31.1877 30.0738C31.5522 29.9743 31.9901 30.347 32.1425 30.9058Z" fill="#E4E3E4"/>
</g>
<g filter="url(#filter1_d_158_130)">
<path d="M36.7525 32.879C37.0932 32.7773 37.224 32.783 37.5345 32.9105C38.0244 33.1117 38.3877 33.9645 38.3877 33.9645L37.4591 35.2987L35.6272 35.2129C35.6272 35.2129 35.6679 33.2028 36.7525 32.879Z" fill="url(#paint9_linear_158_130)"/>
<path d="M34.4903 35.7933C36.064 34.8069 38.4494 34.1217 37.5413 32.9264C38.569 33.4198 39.2787 34.4703 39.2787 35.6865C39.2787 37.3764 37.9087 38.7463 36.2188 38.7463C35.2302 38.7463 34.3511 38.2775 33.7917 37.5499C33.479 37.1433 33.6022 36.3499 34.4903 35.7933Z" fill="url(#paint10_linear_158_130)"/>
<path d="M38.6531 35.8364C38.6531 37.204 37.5029 38.3449 36.1352 38.3449C35.0273 38.3449 34.1432 37.4636 33.8473 36.4018C34.1958 35.7517 35.6072 35.1763 35.8086 35.0747C36.0101 34.9731 36.4391 34.7665 36.8292 34.5103C37.4906 34.0759 37.705 33.675 37.705 33.675C38.3031 34.1646 38.677 34.94 38.6531 35.8364Z" fill="url(#paint11_linear_158_130)"/>
<path d="M37.7048 33.6737C38.5458 34.3785 38.7003 35.2832 38.6479 36.0274C38.6479 36.0274 38.4907 35.345 38.0721 35.216C37.8433 35.1455 37.6861 35.2693 37.4531 35.2144C37.265 35.1701 37.1436 35.1164 37.0012 35.0081C36.8588 34.8997 36.6498 34.6227 36.6498 34.6227C37.2969 34.2393 37.7048 33.6737 37.7048 33.6737Z" fill="url(#paint12_linear_158_130)"/>
<path d="M36.3846 34.7818C35.3083 35.3214 34.8272 35.5139 34.3394 35.898C34.3394 35.898 34.6302 36.1854 34.6917 36.3982C34.788 36.7313 34.7626 36.8853 34.9104 37.1551C35.3143 37.8924 36.2731 38.2545 36.9057 38.2187C37.8405 37.9405 38.3034 37.1712 38.4231 36.8569C38.2229 36.8227 37.6807 36.4445 37.3243 35.844C37.0392 35.3636 36.6758 34.9131 36.3846 34.7818Z" fill="url(#paint13_linear_158_130)"/>
<path d="M36.5713 35.5146C36.4229 35.6427 36.1352 35.7091 36.0193 35.6227C35.9033 35.5362 36.0149 35.314 36.21 35.1457C36.3929 34.9879 36.6134 34.9492 36.7029 35.0529C36.8018 35.1675 36.7198 35.3865 36.5713 35.5146Z" fill="white"/>
<path d="M37.3629 35.5235C37.4068 35.7631 37.3538 35.9435 37.2177 35.9685C37.0816 35.9934 36.941 35.7428 36.9053 35.548C36.8614 35.3084 36.8792 35.1663 37.0153 35.1413C37.1514 35.1164 37.334 35.3656 37.3629 35.5235Z" fill="white"/>
</g>
<defs>
<filter id="filter0_d_158_130" x="20.9223" y="23.3748" width="16.151" height="16.8926" filterUnits="userSpaceOnUse" color-interpolation-filters="sRGB">
<feFlood flood-opacity="0" result="BackgroundImageFix"/>
<feColorMatrix in="SourceAlpha" type="matrix" values="0 0 0 0 0 0 0 0 0 0 0 0 0 0 0 0 0 0 127 0" result="hardAlpha"/>
<feOffset dy="0.502952"/>
<feGaussianBlur stdDeviation="0.5"/>
<feComposite in2="hardAlpha" operator="out"/>
<feColorMatrix type="matrix" values="0 0 0 0 0.75 0 0 0 0 0.75 0 0 0 0 0.75 0 0 0 1 0"/>
<feBlend mode="normal" in2="BackgroundImageFix" result="effect1_dropShadow_158_130"/>
<feBlend mode="normal" in="SourceGraphic" in2="effect1_dropShadow_158_130" result="shape"/>
</filter>
<filter id="filter1_d_158_130" x="31.6244" y="31.2993" width="9.66606" height="9.96174" filterUnits="userSpaceOnUse" color-interpolation-filters="sRGB">
<feFlood flood-opacity="0" result="BackgroundImageFix"/>
<feColorMatrix in="SourceAlpha" type="matrix" values="0 0 0 0 0 0 0 0 0 0 0 0 0 0 0 0 0 0 127 0" result="hardAlpha"/>
<feOffset dy="0.502952"/>
<feGaussianBlur stdDeviation="1.0059"/>
<feComposite in2="hardAlpha" operator="out"/>
<feColorMatrix type="matrix" values="0 0 0 0 0.75 0 0 0 0 0.75 0 0 0 0 0.75 0 0 0 1 0"/>
<feBlend mode="normal" in2="BackgroundImageFix" result="effect1_dropShadow_158_130"/>
<feBlend mode="normal" in="SourceGraphic" in2="effect1_dropShadow_158_130" result="shape"/>
</filter>
<radialGradient id="paint0_radial_158_130" cx="0" cy="0" r="1" gradientUnits="userSpaceOnUse" gradientTransform="translate(16.7214 17.2355) rotate(90) scale(16)">
<stop stop-color="#273989"/>
<stop offset="1" stop-color="#151C38"/>
</radialGradient>
<radialGradient id="paint1_angular_158_130" cx="0" cy="0" r="1" gradientUnits="userSpaceOnUse" gradientTransform="translate(16.7542 17.2686) rotate(102.712) scale(12.4719 6.35604)">
<stop stop-color="#EBF2FF"/>
<stop offset="0.691098" stop-color="#EBF2FF"/>
<stop offset="0.731425" stop-color="#EBF2FF" stop-opacity="0.63"/>
<stop offset="0.877863" stop-color="#EBF2FF" stop-opacity="0"/>
<stop offset="0.96512" stop-color="#EBF2FF"/>
<stop offset="1" stop-color="#EBF2FF" stop-opacity="0.21"/>
</radialGradient>
<radialGradient id="paint2_angular_158_130" cx="0" cy="0" r="1" gradientUnits="userSpaceOnUse" gradientTransform="translate(16.754 17.2682) rotate(-45.4662) scale(6.76504 2.64866)">
<stop stop-color="#EBF2FF"/>
<stop offset="0.691098" stop-color="#EBF2FF"/>
<stop offset="0.731425" stop-color="#EBF2FF" stop-opacity="0.63"/>
<stop offset="0.768264" stop-color="#EBF2FF" stop-opacity="0"/>
<stop offset="1" stop-color="#EBF2FF" stop-opacity="0.21"/>
</radialGradient>
<radialGradient id="paint3_angular_158_130" cx="0" cy="0" r="1" gradientUnits="userSpaceOnUse" gradientTransform="translate(16.7542 17.2685) rotate(-162.618) scale(13.4197 5.29068)">
<stop stop-color="#EBF2FF"/>
<stop offset="0.691098" stop-color="#EBF2FF"/>
<stop offset="0.731425" stop-color="#EBF2FF" stop-opacity="0.63"/>
<stop offset="0.759747" stop-color="#EBF2FF" stop-opacity="0"/>
<stop offset="1" stop-color="#EBF2FF" stop-opacity="0.21"/>
</radialGradient>
<linearGradient id="paint4_linear_158_130" x1="29.6013" y1="38.0232" x2="27.6184" y2="34.739" gradientUnits="userSpaceOnUse">
<stop stop-color="#BEBEBE"/>
<stop offset="0.881488" stop-color="#9A9A9A"/>
</linearGradient>
<linearGradient id="paint5_linear_158_130" x1="34.7749" y1="25.6428" x2="23.3191" y2="36.0272" gradientUnits="userSpaceOnUse">
<stop stop-color="#9B9B9B"/>
<stop offset="1" stop-color="#B9B9B9"/>
</linearGradient>
<linearGradient id="paint6_linear_158_130" x1="33.7859" y1="26.3433" x2="23.4883" y2="32.6481" gradientUnits="userSpaceOnUse">
<stop stop-color="#B9B9B9"/>
<stop offset="1" stop-color="#C7C7C7"/>
</linearGradient>
<linearGradient id="paint7_linear_158_130" x1="31.8079" y1="29.4751" x2="25.6267" y2="36.5542" gradientUnits="userSpaceOnUse">
<stop stop-color="#606060"/>
<stop offset="0.177083" stop-color="#323232"/>
<stop offset="0.84375" stop-color="#858585"/>
<stop offset="1" stop-color="#686868"/>
</linearGradient>
<linearGradient id="paint8_linear_158_130" x1="25.4085" y1="33.6783" x2="32.4508" y2="31.9476" gradientUnits="userSpaceOnUse">
<stop stop-color="#070707"/>
<stop offset="1" stop-color="#303030"/>
</linearGradient>
<linearGradient id="paint9_linear_158_130" x1="36.2168" y1="33.1038" x2="37.3621" y2="35.2274" gradientUnits="userSpaceOnUse">
<stop stop-color="#CACACA"/>
<stop offset="0.692726" stop-color="#9C9C9C"/>
</linearGradient>
<linearGradient id="paint10_linear_158_130" x1="34.1539" y1="38.0402" x2="38.7217" y2="33.8996" gradientUnits="userSpaceOnUse">
<stop stop-color="#9B9B9B"/>
<stop offset="0.494792" stop-color="#B4B3B3"/>
<stop offset="1" stop-color="#949494"/>
</linearGradient>
<linearGradient id="paint11_linear_158_130" x1="35.7687" y1="38.3449" x2="38.6542" y2="36.1672" gradientUnits="userSpaceOnUse">
<stop stop-color="#3E3E3E"/>
<stop offset="1" stop-color="#6B6A6B"/>
</linearGradient>
<linearGradient id="paint12_linear_158_130" x1="37.6612" y1="36.0274" x2="37.6612" y2="33.6757" gradientUnits="userSpaceOnUse">
<stop offset="0.338961" stop-color="#BBBBBB"/>
<stop offset="1" stop-color="#B9B9B9"/>
</linearGradient>
<linearGradient id="paint13_linear_158_130" x1="34.809" y1="36.945" x2="38.4231" y2="36.8718" gradientUnits="userSpaceOnUse">
<stop stop-color="#050505"/>
<stop offset="1" stop-color="#494949"/>
</linearGradient>
<rect width="40" height="40" fill="white"/>
<rect width="32" height="32" fill="white" transform="translate(0.721352 1.23555)"/>
</defs>
</svg>
