<svg width="40" height="40" fill="none" xmlns="http://www.w3.org/2000/svg">
<path d="M14.6008 36.7518C12.6315 37.3397 11.8758 37.3068 10.0809 36.5696C7.2496 35.4067 5.14951 30.4776 5.14951 30.4776L10.5169 22.7663L21.1053 23.2617C21.1053 23.2617 20.8698 34.8803 14.6008 36.7518Z" fill="url(#paint0_linear_158_73)"></path><path d="M27.6764 19.9075C18.5805 25.6086 4.71283 29.4727 10.042 36.4775C4.10146 33.6261 0 27.5543 0 20.5246C0 10.7572 7.91806 2.8391 17.6855 2.8391C23.3997 2.8391 28.481 5.54912 31.7141 9.75402C33.5212 12.1042 32.8096 16.6902 27.6764 19.9075Z" fill="url(#paint1_linear_158_73)"></path><path d="M3.61549 19.6583C3.61549 11.7534 10.2638 5.15942 18.1687 5.15942C24.5723 5.15942 29.6823 10.253 31.3924 16.3899C29.3787 20.1479 21.0153 23.371 19.851 23.9583C18.6866 24.5455 16.2071 25.74 13.9521 27.2208C10.1293 29.7313 9.09538 32.1507 9.09538 32.1507C5.63868 29.3212 3.47735 24.839 3.61549 19.6583Z" fill="url(#paint2_linear_158_73)"></path><path d="M3.71224 22.4065C3.6124 24.6681 6.15279 30.1699 9.20304 32.0671C11.6745 26.2178 26.7897 21.7854 29.6843 18.4317C29.0175 17.7463 28.6118 17.4177 27.7393 17.2045C25.6199 16.6865 24.5466 17.4828 22.5526 16.9035C21.1966 16.5095 20.7723 15.5864 19.5193 14.9353C17.7189 13.9997 16.7794 14.1136 14.9809 14.148C5.95614 14.3209 3.8423 19.4606 3.71224 22.4065Z" fill="url(#paint3_linear_158_73)"></path><path d="M24.2625 21.814C21.1068 16.591 19.0791 14.8281 18.5079 14.8075C14.9331 14.6786 11.5571 16.4593 9.37935 19.8473C5.94726 25.1869 10.1673 30.4846 10.1673 30.4846C10.1673 30.4846 12.5348 27.7366 17.0887 25.3894C19.9996 23.8891 24.3713 21.9941 24.2625 21.814Z" fill="url(#paint4_linear_158_73)"></path><path d="M19.9811 16.7573C20.4123 17.5958 19.8128 18.9377 18.5129 19.6899C17.1198 20.4959 15.9985 20.5737 15.3714 19.5801C14.8991 18.764 15.4632 17.4322 16.7631 16.68C18.0631 15.9278 19.6136 16.0427 19.9811 16.7573Z" fill="#F1F0F1"></path><path d="M23.5539 19.0496C23.9267 20.4165 23.7968 20.9677 22.9482 21.4742C22.0318 22.0212 21.3862 21.4809 21.0436 20.0972C20.7669 18.8123 20.6119 17.3343 21.3533 17.1321C22.1935 16.9029 23.2026 17.7617 23.5539 19.0496Z" fill="#E4E3E4"></path><path d="M34.1782 23.5971C34.9634 23.3626 35.2647 23.3758 35.9804 23.6697C37.1094 24.1334 37.9467 26.0988 37.9467 26.0988L35.8066 29.1735L31.5847 28.976C31.5847 28.976 31.6786 24.3433 34.1782 23.5971Z" fill="url(#paint5_linear_158_73)"></path><path d="M28.9646 30.3134C32.5914 28.0402 38.0889 26.461 35.996 23.7064C38.3646 24.8434 40 27.2644 40 30.0674C40 33.9619 36.8428 37.1191 32.9483 37.1191C30.6698 37.1191 28.6438 36.0385 27.3546 34.3619C26.6341 33.4248 26.9178 31.5962 28.9646 30.3134Z" fill="url(#paint6_linear_158_73)"></path><path d="M38.5584 30.4128C38.5584 33.5647 35.9075 36.1939 32.7556 36.1939C30.2023 36.1939 28.1648 34.163 27.4829 31.716C28.2858 30.2175 31.5387 28.8916 32.0029 28.6575C32.4672 28.4233 33.4559 27.9471 34.355 27.3566C35.8792 26.3556 36.3734 25.4316 36.3734 25.4316C37.7517 26.5599 38.6135 28.3471 38.5584 30.4128Z" fill="url(#paint7_linear_158_73)"></path><path d="M36.3728 25.4287C38.311 27.0528 38.667 29.138 38.5463 30.853C38.5463 30.853 38.1841 29.2804 37.2192 28.983C36.692 28.8205 36.3297 29.1059 35.7927 28.9793C35.3594 28.8772 35.0794 28.7536 34.7513 28.5039C34.4232 28.2542 33.9415 27.6156 33.9415 27.6156C35.4328 26.732 36.3728 25.4287 36.3728 25.4287Z" fill="url(#paint8_linear_158_73)"></path><path d="M33.3302 27.9824C30.8498 29.2259 29.741 29.6696 28.6169 30.5547C28.6169 30.5547 29.2871 31.2171 29.4288 31.7074C29.6507 32.4753 29.5922 32.83 29.9329 33.4519C30.8637 35.1511 33.0734 35.9856 34.5311 35.9031C36.6855 35.2619 37.7523 33.4889 38.0282 32.7647C37.5669 32.6859 36.3174 31.8143 35.4959 30.4303C34.8388 29.3231 34.0013 28.285 33.3302 27.9824Z" fill="url(#paint9_linear_158_73)"></path><path d="M33.7606 29.6712C33.4185 29.9664 32.7554 30.1195 32.4883 29.9202C32.2212 29.721 32.4783 29.209 32.928 28.8209C33.3494 28.4573 33.8576 28.3681 34.064 28.6072C34.2918 28.8712 34.1027 29.376 33.7606 29.6712Z" fill="white"></path><path d="M35.5849 29.6918C35.686 30.244 35.5639 30.6597 35.2503 30.7171C34.9366 30.7746 34.6125 30.1971 34.5303 29.7482C34.4292 29.196 34.4703 28.8684 34.7839 28.8109C35.0975 28.7535 35.5183 29.3278 35.5849 29.6918Z" fill="white"></path><defs><linearGradient id="paint0_linear_158_73" x1="17.6974" y1="35.4525" x2="13.1274" y2="27.8838" gradientUnits="userSpaceOnUse"><stop stop-color="#BEBEBE"></stop><stop offset="0.881488" stop-color="#9A9A9A"></stop></linearGradient><linearGradient id="paint1_linear_158_73" x1="29.6206" y1="6.92028" x2="3.21913" y2="30.8525" gradientUnits="userSpaceOnUse"><stop stop-color="#9B9B9B"></stop><stop offset="1" stop-color="#B9B9B9"></stop></linearGradient><linearGradient id="paint2_linear_158_73" x1="27.3413" y1="8.53476" x2="3.60924" y2="23.0651" gradientUnits="userSpaceOnUse"><stop stop-color="#B9B9B9"></stop><stop offset="1" stop-color="#C7C7C7"></stop></linearGradient><linearGradient id="paint3_linear_158_73" x1="22.7828" y1="15.7524" x2="8.5374" y2="32.0671" gradientUnits="userSpaceOnUse"><stop stop-color="#606060"></stop><stop offset="0.177083" stop-color="#323232"></stop><stop offset="0.84375" stop-color="#858585"></stop><stop offset="1" stop-color="#686868"></stop></linearGradient><linearGradient id="paint4_linear_158_73" x1="8.0345" y1="25.4393" x2="24.2644" y2="21.4506" gradientUnits="userSpaceOnUse"><stop stop-color="#070707"></stop><stop offset="1" stop-color="#303030"></stop></linearGradient><linearGradient id="paint5_linear_158_73" x1="32.9435" y1="24.1152" x2="35.5831" y2="29.0093" gradientUnits="userSpaceOnUse"><stop stop-color="#CACACA"></stop><stop offset="0.692726" stop-color="#9C9C9C"></stop></linearGradient><linearGradient id="paint6_linear_158_73" x1="28.1894" y1="35.4918" x2="38.7164" y2="25.9493" gradientUnits="userSpaceOnUse"><stop stop-color="#9B9B9B"></stop><stop offset="0.494792" stop-color="#B4B3B3"></stop><stop offset="1" stop-color="#949494"></stop></linearGradient><linearGradient id="paint7_linear_158_73" x1="31.9108" y1="36.1939" x2="38.5609" y2="31.1751" gradientUnits="userSpaceOnUse"><stop stop-color="#3E3E3E"></stop><stop offset="1" stop-color="#6B6A6B"></stop></linearGradient><linearGradient id="paint8_linear_158_73" x1="36.2723" y1="30.853" x2="36.2723" y2="25.4332" gradientUnits="userSpaceOnUse"><stop offset="0.338961" stop-color="#BBBBBB"></stop><stop offset="1" stop-color="#B9B9B9"></stop></linearGradient><linearGradient id="paint9_linear_158_73" x1="29.6991" y1="32.9676" x2="38.0282" y2="32.799" gradientUnits="userSpaceOnUse"><stop stop-color="#050505"></stop><stop offset="1" stop-color="#494949"></stop></linearGradient></defs></svg>