<svg xmlns="http://www.w3.org/2000/svg" width="32" height="32" viewBox="0 0 32 32">
    <defs>
        <linearGradient id="4b2ox0agla" x1=".5" x2=".5" y2="1" gradientUnits="objectBoundingBox">
            <stop offset="0" stop-color="#bf9e32"/>
            <stop offset="1" stop-color="#9b7d1c"/>
        </linearGradient>
    </defs>
    <g>
        <g>
            <g fill="url(#4b2ox0agla)" stroke="#fff" stroke-width="0.5px">
                <circle cx="16" cy="16" r="16" stroke="none"/>
                <circle cx="16" cy="16" r="15.75" fill="none"/>
            </g>
        </g>
    </g>
    <path fill="#fff" d="M.577 14.4A5.318 5.318 0 0 1 0 11.854a6.1 6.1 0 0 1 .454-2.42 7.1 7.1 0 0 1 1.014-1.723 4.082 4.082 0 0 1 1.345-1.044 3.752 3.752 0 0 1 1.695-.4 2.8 2.8 0 0 1 2.009.714l2.289-1.915a10.532 10.532 0 0 1-.07-1.2Q8.736 0 10.78 0a1 1 0 0 1 .82.366 1.6 1.6 0 0 1 .332.94 2.875 2.875 0 0 1-.542 1.671A10.155 10.155 0 0 1 9.784 4.8a40.222 40.222 0 0 1 .542 4.909 9.493 9.493 0 0 1-.332 2.507 7.26 7.26 0 0 1-1.014 2.197 4.557 4.557 0 0 1-1.869 1.549 6.438 6.438 0 0 1-2.761.557 4 4 0 0 1-3.407-1.531 9.037 9.037 0 0 0-.314 2.489A4.486 4.486 0 0 0 1.363 20a2.238 2.238 0 0 0 1.922 1.131q.087 0 .087.174.017.174-.087.174a2.662 2.662 0 0 1-2.271-1.306A4.934 4.934 0 0 1 .122 17.3a8.9 8.9 0 0 1 .455-2.9zm6.237-7.089a2.454 2.454 0 0 1 .489 1.5 3.987 3.987 0 0 1-.262 1.48 2.668 2.668 0 0 1-.891 1.149 2.327 2.327 0 0 1-1.468.487.424.424 0 0 1-.28-.087.518.518 0 0 1-.122-.278 1.843 1.843 0 0 0 1.38-.7 3.136 3.136 0 0 0 .909-2.193 2.552 2.552 0 0 0-.192-.975 28.335 28.335 0 0 0-3.3 3.273A10.625 10.625 0 0 0 1.1 14.448a3.415 3.415 0 0 0 3.127 1.6 4.547 4.547 0 0 0 2.289-.557 3.971 3.971 0 0 0 1.555-1.48 8.583 8.583 0 0 0 1.1-4.474q0-.644-.315-3.917zm-.7.017a2.013 2.013 0 0 0-1.537-.592 3.373 3.373 0 0 0-1.765.47 4.9 4.9 0 0 0-2.078 2.925 5.828 5.828 0 0 0-.28 1.793 5.282 5.282 0 0 0 .332 1.9q1.206-3.014 5.329-6.496zm3.513-4.351a11.89 11.89 0 0 0 .087 1.253q1.73-1.689 1.73-2.855 0-.905-.664-.905-1.153 0-1.153 2.507z" transform="translate(9.625 5.857)"/>
</svg>
