<svg width="40" height="40" viewBox="0 0 40 40" fill="none" xmlns="http://www.w3.org/2000/svg">
<path d="M34.1427 5.86C30.3634 2.08 25.3429 0 20.0021 0C8.97208 0 0 8.972 0 20C0 31.028 8.97208 40 20.0021 40C25.3429 40 30.3674 37.92 34.1427 34.14C37.9221 30.36 40 25.34 40 20C40 14.66 37.9221 9.636 34.1427 5.86ZM20.0021 38.616C9.73677 38.616 1.38525 30.264 1.38525 20C1.38525 9.736 9.73677 1.384 20.0021 1.384C30.2672 1.384 38.6187 9.736 38.6187 20C38.6187 30.264 30.2672 38.616 20.0021 38.616Z" fill="#040506"/>
<path d="M20.002 38.1654C9.89834 38.1654 1.67834 29.9449 1.67834 19.8425C1.67834 9.74016 9.89834 1.51968 20.002 1.51968C30.1055 1.51968 38.3255 9.74016 38.3255 19.8425C38.3255 29.9449 30.1055 38.1654 20.002 38.1654Z" fill="#040506"/>
<path d="M30.7155 15.66C30.7155 15.3219 30.5416 15.0168 30.2512 14.8437L20.9421 9.29925C20.2732 8.90025 19.4423 8.90025 18.7734 9.29925L9.4643 14.8438C9.17721 15.0149 9.00477 15.315 9.00012 15.6484C9.00026 16.0561 9.00047 16.723 9.00054 17.1307C8.98892 17.4818 9.16445 17.8012 9.46423 17.9798L12.7368 19.9296C12.7904 19.9615 12.7904 20.0391 12.7368 20.071L9.46423 22.0201C9.17439 22.1929 9.00061 22.4973 9.00005 22.8347C9.00005 23.2485 9.00005 23.9255 9.00005 24.3393C9.00005 24.6781 9.1739 24.9832 9.4643 25.1555L18.7734 30.7008C19.1078 30.9003 19.4826 31 19.8581 31C20.2336 31 20.6076 30.9003 20.9421 30.7008L30.2511 25.1555C30.5415 24.9832 30.7154 24.6781 30.7154 24.3393C30.7154 23.9255 30.7154 23.2485 30.7154 22.8347C30.7148 22.4973 30.541 22.1929 30.2511 22.0202L26.9786 20.0711C26.925 20.0391 26.925 19.9615 26.9786 19.9297L30.2511 17.9799C30.5415 17.8068 30.7154 17.5018 30.7154 17.1636V15.6601L30.7155 15.66ZM19.2135 18.7169C19.4122 18.5989 19.6351 18.5394 19.8581 18.5394C20.0811 18.5394 20.3033 18.5988 20.5021 18.7169L22.6561 20.0004L20.5021 21.2831C20.1045 21.52 19.611 21.52 19.2135 21.2831L17.0594 20.0004L19.2135 18.7169ZM28.5608 23.5175C28.6144 23.5494 28.6144 23.627 28.5608 23.6589L20.5021 28.4587C20.1045 28.6957 19.611 28.6957 19.2135 28.4587L11.1546 23.6588C11.1011 23.6269 11.1011 23.5493 11.1546 23.5175L12.6649 22.6177C12.96 22.4418 13.1408 22.1236 13.1408 21.78V20.3651C13.1408 20.2818 13.2315 20.2302 13.3031 20.2728L18.7734 23.525C19.1078 23.7237 19.4826 23.8235 19.8581 23.8235C20.2336 23.8235 20.6076 23.7237 20.9421 23.525L22.5383 22.574C22.8352 22.3971 23.0163 22.0762 23.0143 21.7305L23.0063 20.3988C23.0058 20.3152 23.0968 20.2631 23.1687 20.3059L28.5608 23.5175ZM26.557 19.6232C26.557 19.7064 26.4663 19.758 26.3947 19.7155L20.9421 16.4749C20.2732 16.0767 19.4423 16.0767 18.7734 16.4749L17.167 17.4317C16.8699 17.6087 16.6888 17.9296 16.6909 18.2753L16.6991 19.6382C16.6995 19.7023 16.6298 19.7422 16.5748 19.7094L11.1547 16.4825C11.1012 16.4506 11.1011 16.373 11.1547 16.3411L19.2135 11.5412C19.4122 11.4224 19.6351 11.363 19.8581 11.363C20.0811 11.363 20.3033 11.4224 20.5021 11.5412L28.5608 16.3411C28.6144 16.373 28.6144 16.4506 28.5608 16.4825L27.033 17.3926C26.7378 17.5684 26.557 17.8867 26.557 18.2303V19.6232Z" fill="#FF3912"/>
</svg>
