<svg width="40" height="40" viewBox="0 0 40 40" fill="none" xmlns="http://www.w3.org/2000/svg">
<path fill-rule="evenodd" clip-rule="evenodd" d="M18.2058 0.0460337C17.4066 0.111202 14.7443 0.592931 14.5627 0.705141C14.5251 0.72836 14.1705 0.841261 13.7744 0.956061C13.3784 1.07095 12.9416 1.22373 12.8038 1.29563C12.666 1.36744 12.5189 1.42648 12.477 1.42683C11.9011 1.4308 8.66759 3.36962 7.24592 4.56337C5.93134 5.66709 5.37507 6.24938 3.98023 7.98173C-5.10021 19.2592 2.29095 37.7099 16.7076 39.7535C18.4687 40.0032 18.8595 40.0265 20.5358 39.9816C36.0766 39.5651 45.1254 22.5631 36.8947 9.24453C35.6669 7.25789 34.2061 5.70636 31.6251 3.64825C30.9697 3.12569 29.1394 2.10173 28.0437 1.64486C27.7352 1.51616 27.3663 1.35838 27.2239 1.29407C27.0815 1.22985 26.6932 1.09512 26.3609 0.994558C26.0287 0.894086 25.6628 0.773417 25.5481 0.726375C25.3344 0.638937 24.2363 0.407093 22.944 0.176802C22.0545 0.0181538 19.4332 -0.0541789 18.2058 0.0460337ZM17.8606 1.77097C17.7894 1.81784 17.5952 1.85694 17.4291 1.85772C16.5003 1.86212 13.5012 2.70197 12.545 3.22548C12.4546 3.27502 12.0506 3.47778 11.6471 3.67613C10.7979 4.09364 9.50787 4.87437 9.02935 5.26046C6.20258 7.54092 4.87523 9.13267 3.55245 11.8284C3.27294 12.3981 2.99281 13.0001 2.92999 13.1663C2.86716 13.3325 2.79053 13.5072 2.75972 13.5547C2.72891 13.6022 2.63925 13.8547 2.56046 14.1158C2.48176 14.3769 2.33842 14.852 2.24202 15.1717C2.0809 15.7058 1.86196 16.9819 1.65321 18.6042C1.38845 20.6612 1.94774 24.6478 2.76128 26.5021C2.80296 26.597 2.93991 26.9272 3.06573 27.2358C4.97801 31.9256 9.99054 36.5082 14.387 37.5858C14.565 37.6294 14.9243 37.7271 15.1853 37.8028C17.1609 38.3757 21.445 38.6638 22.5638 38.2989C22.7062 38.2525 23.1916 38.1494 23.6425 38.0699C33.7057 36.2944 41.0304 24.4472 37.7855 15.1947C37.7355 15.0523 37.6045 14.6445 37.4943 14.2884C36.7131 11.7649 34.9984 8.98093 33.0196 7.0238C32.3484 6.36003 30.7661 5.02732 30.4443 4.85495C30.3343 4.79599 30.0154 4.59962 29.7358 4.41862C28.2683 3.46889 25.7082 2.42067 24.015 2.07627C22.4123 1.75025 18.2083 1.54171 17.8606 1.77097ZM16.5229 9.56028C13.2839 11.3563 12.8725 11.9462 12.5028 15.3242C12.4066 16.2025 12.2915 17.057 12.247 17.2231C11.936 18.3816 12.5092 18.9169 15.1485 19.9334C17.5243 20.8483 23.4131 20.8513 25.8456 19.9388C26.5917 19.659 28.4431 18.7515 28.7341 18.5231C29.0593 18.2679 28.9453 16.362 28.5221 14.9789C28.4567 14.7653 28.3775 14.4379 28.3461 14.2514C27.8509 11.3118 25.1376 9.06836 23.0384 9.86273C20.8925 10.6748 20.9208 10.6746 19.2413 9.88629C17.7391 9.18127 17.3012 9.12878 16.5229 9.56028ZM28.1676 19.3633C26.1739 20.3985 25.5192 20.6193 23.3405 20.9913C21.4611 21.3122 16.6287 21.0413 15.4443 20.5488C15.1833 20.4401 14.8725 20.3225 14.7538 20.2873C14.6352 20.252 14.1886 20.047 13.7614 19.8318C13.3342 19.6164 12.8579 19.3765 12.7029 19.2987C12.0106 18.951 11.6743 19.2086 11.5524 20.1797C11.3603 21.7094 12.4964 22.7646 15.4494 23.7997L16.264 24.0852L20.3988 24.11C25.3782 24.1399 25.7845 24.1067 26.8276 23.5852C29.031 22.4836 29.4334 21.9739 29.4179 20.3047C29.4049 18.8965 29.2669 18.7926 28.1676 19.3633ZM29.8718 20.1355C29.8291 20.219 29.7917 20.5494 29.7885 20.8697C29.7506 24.6311 21.9821 26.3609 15.1255 24.1345C12.7993 23.3792 11.7522 22.5509 11.2272 21.0508C10.932 20.2072 10.9113 20.2026 9.69272 20.7135C8.79781 21.0886 8.27545 21.2322 6.33979 21.6354C4.88929 21.9375 4.59321 22.2079 4.94064 22.9131C6.69586 26.4754 17.4953 29.2628 24.2237 27.8902C29.6264 26.788 34.4053 24.6432 35.1999 22.9639C35.4695 22.3943 35.3096 22.2534 33.3906 21.3701C30.8367 20.1945 29.9927 19.8984 29.8718 20.1355ZM33.2133 23.6563C32.9478 23.8641 32.1711 24.3091 31.4873 24.6453C30.8037 24.9814 30.1472 25.3095 30.0286 25.3744C29.812 25.4927 28.6616 25.9456 27.4903 26.3735C27.3255 26.4337 27.2682 26.4946 27.3238 26.5502C27.4197 26.6461 28.0811 26.4662 28.7772 26.1547C29.0146 26.0485 29.3058 25.933 29.4245 25.898C30.1816 25.6747 33.1369 24.1207 33.5884 23.7086C34.148 23.1976 33.8524 23.1565 33.2133 23.6563ZM9.14447 25.2412C9.14447 25.3792 9.35633 25.4906 10.3095 25.8538C10.8316 26.0529 11.3364 26.2507 11.4314 26.2935C11.7457 26.4354 12.3573 26.6316 12.485 26.6316C12.702 26.6316 12.5524 26.4232 12.2879 26.3572C11.8318 26.2434 10.759 25.855 10.6494 25.764C10.5903 25.715 10.4314 25.642 10.2963 25.602C10.1611 25.5618 9.84668 25.4476 9.59754 25.3479C9.34831 25.2483 9.14447 25.2003 9.14447 25.2412Z" fill="#010000"/>
<path fill-rule="evenodd" clip-rule="evenodd" d="M17.8438 2.09475C17.7745 2.14062 17.5855 2.17888 17.4237 2.17964C16.5195 2.18395 13.5996 3.00584 12.6687 3.51814C12.5807 3.56663 12.1873 3.76505 11.7945 3.95916C10.9678 4.36774 9.71179 5.13177 9.24591 5.5096C6.49381 7.74128 5.20153 9.29899 3.9137 11.9371C3.64156 12.4946 3.36884 13.0837 3.30768 13.2463C3.24651 13.4089 3.1719 13.58 3.14191 13.6264C3.11191 13.6729 3.02462 13.92 2.94791 14.1755C2.87129 14.431 2.73173 14.896 2.63788 15.2088C2.48102 15.7315 2.26787 16.9803 2.06463 18.5679C1.80686 20.5809 2.35138 24.4822 3.14342 26.2969C3.184 26.3898 3.31734 26.7129 3.43984 27.0149C5.30159 31.6043 10.1817 36.0889 14.462 37.1435C14.6353 37.1862 14.9851 37.2818 15.2393 37.3559C17.1626 37.9165 21.3336 38.1985 22.4228 37.8414C22.5614 37.796 23.034 37.695 23.473 37.6172C33.2704 35.8798 40.4016 24.286 37.2423 15.2314C37.1937 15.092 37.0661 14.6929 36.9588 14.3444C36.1983 11.8749 34.5289 9.15049 32.6024 7.23523C31.9489 6.58565 30.4084 5.28145 30.0951 5.11276C29.988 5.05507 29.6776 4.8629 29.4053 4.68577C27.9766 3.75635 25.4842 2.73055 23.8356 2.39352C22.2753 2.07448 18.1823 1.8704 17.8438 2.09475ZM16.5415 9.71745C13.3881 11.475 12.9875 12.0524 12.6275 15.3581C12.534 16.2175 12.4219 17.0538 12.3785 17.2164C12.0758 18.3501 12.6339 18.8739 15.2034 19.8687C17.5164 20.764 23.2496 20.767 25.6179 19.874C26.3443 19.6001 28.1468 18.7121 28.4301 18.4886C28.7467 18.2388 28.6357 16.3737 28.2237 15.0202C28.1601 14.8111 28.0829 14.4907 28.0523 14.3082C27.5702 11.4315 24.9286 9.23606 22.8849 10.0134C20.7956 10.8081 20.8232 10.8079 19.1881 10.0365C17.7256 9.34654 17.2992 9.29518 16.5415 9.71745ZM27.8786 19.3108C25.9375 20.3239 25.3001 20.5399 23.179 20.9039C21.3492 21.218 16.6445 20.9529 15.4914 20.4709C15.2372 20.3646 14.9347 20.2494 14.8192 20.215C14.7036 20.1805 14.2688 19.9799 13.853 19.7692C13.4371 19.5585 12.9733 19.3237 12.8224 19.2476C12.1484 18.9073 11.821 19.1594 11.7023 20.1097C11.5153 21.6067 12.6213 22.6393 15.4963 23.6523L16.2895 23.9317L20.315 23.956C25.1629 23.9852 25.5584 23.9528 26.574 23.4424C28.7191 22.3643 29.1109 21.8655 29.0958 20.232C29.0832 18.8539 28.9488 18.7523 27.8786 19.3108ZM29.5377 20.0665C29.4962 20.1482 29.4597 20.4715 29.4566 20.785C29.4197 24.4659 21.8564 26.1587 15.181 23.98C12.9162 23.2408 11.8968 22.4302 11.3857 20.9622C11.0983 20.1366 11.0782 20.1321 9.89175 20.6321C9.02049 20.9992 8.51192 21.1398 6.6274 21.5343C5.21522 21.83 4.92696 22.0945 5.26521 22.7846C6.97406 26.2708 17.4882 28.9985 24.0389 27.6553C29.2988 26.5767 33.9515 24.4777 34.7251 22.8344C34.9875 22.277 34.8318 22.1391 32.9635 21.2747C30.4772 20.1242 29.6554 19.8344 29.5377 20.0665ZM32.791 23.512C32.5324 23.7153 31.7763 24.1508 31.1106 24.4798C30.445 24.8087 29.8059 25.1298 29.6904 25.1933C29.4796 25.3091 28.3595 25.7523 27.2191 26.171C27.0587 26.23 27.0029 26.2895 27.0571 26.344C27.1504 26.4379 27.7943 26.2617 28.4721 25.9569C28.7031 25.853 28.9867 25.74 29.1022 25.7057C29.8393 25.4871 32.7166 23.9664 33.1561 23.5631C33.701 23.063 33.4132 23.0228 32.791 23.512ZM9.35799 25.0629C9.35799 25.198 9.56425 25.3071 10.4922 25.6625C11.0005 25.8573 11.492 26.0509 11.5845 26.0928C11.8905 26.2316 12.4859 26.4236 12.6102 26.4236C12.8215 26.4236 12.6759 26.2197 12.4183 26.1551C11.9743 26.0437 10.9299 25.6636 10.8232 25.5746C10.7656 25.5266 10.6109 25.4552 10.4794 25.416C10.3478 25.3767 10.0416 25.2649 9.79908 25.1673C9.55644 25.0699 9.35799 25.0229 9.35799 25.0629Z" fill="#C8A0FF"/>
</svg>
