<?xml version="1.0" encoding="utf-8"?>
<!-- Generator: Adobe Illustrator 26.0.3, SVG Export Plug-In . SVG Version: 6.00 Build 0)  -->
<svg version="1.1"
	 id="f2708c3f-e193-4a63-a3fb-08763417c112" inkscape:version="1.1.2 (b8e25be8, 2022-02-05)" sodipodi:docname="logo-transparent-large.svg" xmlns:inkscape="http://www.inkscape.org/namespaces/inkscape" xmlns:sodipodi="http://sodipodi.sourceforge.net/DTD/sodipodi-0.dtd" xmlns:svg="http://www.w3.org/2000/svg"
	 xmlns="http://www.w3.org/2000/svg" xmlns:xlink="http://www.w3.org/1999/xlink" x="0px" y="0px" viewBox="0 0 64 64"
	 style="enable-background:new 0 0 64 64;" xml:space="preserve">
<style type="text/css">
	.st0{opacity:0.55;}
	.st1{fill:#242424;}
	.st2{fill:#171717;}
	.st3{opacity:0.49;}
	.st4{fill:#CCAD6E;}
	.st5{opacity:0.44;}
	.st6{opacity:0.39;}
	.st7{opacity:0.34;}
	.st8{opacity:0.29;}
	.st9{opacity:0.24;}
	.st10{opacity:0.19;}
	.st11{opacity:9.000000e-02;}
	.st12{opacity:4.000000e-02;}
	.st13{fill:url(#SVGID_1_);}
	.st14{fill:url(#SVGID_00000106130843529822610950000016888596382563610764_);}
</style>
<sodipodi:namedview  bordercolor="#666666" borderopacity="1.0" id="namedview929" inkscape:current-layer="f2708c3f-e193-4a63-a3fb-08763417c112" inkscape:cx="0.69728428" inkscape:cy="15.498728" inkscape:guide-bbox="true" inkscape:pagecheckerboard="0" inkscape:pageopacity="0.0" inkscape:pageshadow="2" inkscape:window-height="969" inkscape:window-maximized="0" inkscape:window-width="2001" inkscape:window-x="322" inkscape:window-y="177" inkscape:zoom="15.775488" pagecolor="#ffffff" scale-x="342" showgrid="false" showguides="true">
	
		<sodipodi:guide  id="guide1015" inkscape:color="rgb(0,0,255)" inkscape:label="" inkscape:locked="true" orientation="0,1" position="-13.035325,16">
		</sodipodi:guide>
	
		<sodipodi:guide  id="guide1017" inkscape:color="rgb(0,0,255)" inkscape:label="" inkscape:locked="true" orientation="-1,0" position="16,22.488915">
		</sodipodi:guide>
	<sodipodi:guide  id="guide1037" orientation="1,0" position="25.6875,15.859375"></sodipodi:guide>
	<sodipodi:guide  id="guide1057" orientation="0,-1" position="16.859375,25.617188"></sodipodi:guide>
</sodipodi:namedview>
<g id="bdc5f81e-33d9-4ba6-8b90-29cf5f2c6055" class="st0">
	<path class="st1" d="M0.5,56.3c3-12,6.6-20.3,11.1-25.2c3.7-4.1,7.9-6,13.3-6c3.1,0,6.3,0.6,9.4,1.2c3,0.6,6.1,1.2,9.1,1.2
		c4.1,0,7.4-1.1,10.3-3.6c3.5-3,6.5-8,9.1-15.3l0.9,0.3c-3.1,12.2-6.8,20.6-11.4,25.7c-3.8,4.1-8.1,6-13.7,6c-3,0-6.1-0.5-9.1-1.1
		c-2.9-0.5-5.9-1-8.8-1c-4.1,0-7.4,1.1-10.3,3.5c-3.5,2.9-6.4,7.7-8.9,14.7L0.5,56.3z"/>
	<path class="st2" d="M63.1,8.7C56.6,34.9,47.7,40,38.4,40c-5.9,0-12-2.1-17.9-2.1c-7.4,0-14.3,3.3-19.6,18.5
		c6.4-25.7,14.9-30.8,23.9-30.8c6.1,0,12.4,2.4,18.5,2.4C50.6,27.9,57.5,24.4,63.1,8.7 M62.2,8.4c-2.6,7.2-5.5,12.1-9,15.1
		c-2.8,2.4-6,3.5-10,3.5c-2.9,0-6-0.6-9-1.2c-3.1-0.6-6.3-1.2-9.5-1.2c-5.5,0-9.8,1.9-13.6,6.1C6.7,35.7,3,44,0,56.2l1.8,0.5
		c2.5-6.9,5.3-11.7,8.8-14.5c2.8-2.3,5.9-3.3,10-3.3c2.8,0,5.7,0.5,8.7,1c3,0.5,6.1,1.1,9.2,1.1c5.8,0,10.2-1.9,14.1-6.1
		c4.7-5.1,8.5-13.5,11.5-25.9L62.2,8.4z"/>
	<g class="st3">
		<path class="st4" d="M56,24.5c-1.7,3.5-3.5,6.4-5.4,8.5c-3.4,3.6-7.1,5.3-12.2,5.3c-2.8,0-5.8-0.5-8.7-1c-3-0.5-6.1-1.1-9.1-1.1
			c-4.7,0-8.4,1.3-11.6,3.9c-0.4,0.3-0.8,0.7-1.2,1.1c5.4-12,11.5-14,17.1-14c2.9,0,5.8,0.6,9,1.2c3.1,0.6,6.3,1.2,9.5,1.2
			c4.6,0,8.4-1.4,11.7-4.1C55.3,25.2,55.6,24.9,56,24.5 M63.1,8.7c-5.6,15.7-12.5,19.2-19.8,19.2c-6,0-12.4-2.4-18.5-2.4
			c-9,0-17.5,5.2-23.9,30.8c5.4-15.1,12.3-18.5,19.6-18.5c5.8,0,11.9,2.1,17.9,2.1C47.7,40,56.6,34.9,63.1,8.7L63.1,8.7z"/>
	</g>
	<g id="b7001666-ec36-44c0-b575-26483f4faec0" class="st3">
		<path class="st4" d="M24.6,27.2c3.1,0,6.1,1.1,9.3,2.2c3.3,1.2,6.6,2.3,10.1,2.3c3.1,0,5.8-0.9,8.4-2.8c-1.2,1.9-2.6,3.6-4.2,5.1
			c-2.9,2.8-5.9,4.1-9.4,4.1c-3.1,0-6.1-1-9.3-2.1c-3.2-1.1-6.5-2.2-9.9-2.2c-3.1,0-5.8,0.9-8.4,2.7c1.2-2,2.7-3.8,4.3-5.4
			C18.4,28.5,21.3,27.2,24.6,27.2 M60.1,17C54.5,27.4,49.2,30.3,44,30.3c-6.5,0-12.8-4.5-19.4-4.5c-6.5,0-13.3,4.5-20.7,22.3
			c5.3-10,10.5-12.8,15.7-12.8c6.4,0,12.7,4.2,19.3,4.2C45.6,39.6,52.6,35.1,60.1,17L60.1,17z"/>
	</g>
	<g id="bc2b84d1-dfb3-4456-9f57-367b943ae680" class="st5">
		<path class="st4" d="M25.2,27.2c3,0,5.8,1.5,8.7,3c3,1.6,6.1,3.3,9.7,3.3c1.9,0,3.7-0.5,5.4-1.4c-3.6,4-7.1,5.9-10.6,5.9
			c-3.1,0-5.9-1.4-8.9-2.9c-3-1.5-6.1-3.1-9.6-3.1c-1.9,0-3.7,0.5-5.3,1.3C18.3,29.2,21.8,27.2,25.2,27.2 M56.7,23.4
			c-5.1,6.8-9.3,9-13.1,9c-6.5,0-11.8-6.3-18.4-6.3c-4.9,0-10.5,3.5-17.9,15.7c4.8-6.5,8.9-8.6,12.7-8.6c6.4,0,11.8,6,18.5,6
			C43.5,39.2,49.3,35.7,56.7,23.4L56.7,23.4z"/>
	</g>
	<g id="ffb7d658-e0db-478b-b8ce-459cbf257d56" class="st6">
		<path class="st4" d="M26,27.3c2.9,0,5.3,1.7,7.8,3.6c2.6,1.9,5.3,3.9,8.7,3.9c1.1,0,2.2-0.2,3.3-0.6c-0.7,0.5-1.3,1-2,1.5
			c-2.2,1.5-4.2,2.2-6.1,2.2c-3,0-5.4-1.7-8-3.5c-2.6-1.8-5.3-3.7-8.7-3.7c-1.1,0-2.2,0.2-3.2,0.6c0.7-0.6,1.5-1.2,2.3-1.7
			C22.2,28,24.2,27.3,26,27.3 M26.1,26.4c-3.8,0-8.5,2.6-15.1,10.7C15,33,18.2,31.6,21,31.6c6.2,0,10.2,7.2,16.7,7.2
			c3.9,0,8.7-2.6,15.4-10.8c-4.4,4.4-7.7,5.9-10.5,5.9C36.3,33.8,32.5,26.4,26.1,26.4L26.1,26.4z"/>
	</g>
	<g id="b9c3f395-3822-4256-8798-89348bf0f3dd" class="st7">
		<path class="st4" d="M26.9,26.7v0.8c2.9,0,4.8,1.9,6.8,3.9c2.1,2.1,4.3,4.3,7.7,4.3c0.5,0,1.1-0.1,1.6-0.2c-2.3,1.4-4.3,2-6,2
			c-3,0-4.9-1.9-7-3.9c-2.2-2.1-4.4-4.2-7.7-4.2c-0.5,0-1,0-1.5,0.1c2.4-1.5,4.4-2.2,6.2-2.2L26.9,26.7 M26.9,26.7
			c-2.9,0-6.8,1.8-12.5,6.9c3.3-2.4,5.8-3.3,7.9-3.3c6.2,0,8.3,8.1,14.8,8.1c3,0,7-1.8,12.7-7C46.2,34,43.6,35,41.4,35
			C35.2,35,33.2,26.7,26.9,26.7L26.9,26.7z"/>
	</g>
	<g id="a921c999-60b2-432d-be29-578bdbb3bbba" class="st8">
		<path class="st4" d="M27.6,27.2v0.6c2.9,0,4.4,2,5.9,4.1c1.7,2.2,3.4,4.5,6.8,4.5c0.1,0,0.2,0,0.3,0c-1.6,0.7-3,1-4.3,1
			c-3,0-4.5-2-6.1-4.1c-1.7-2.2-3.4-4.4-6.8-4.4c-0.1,0-0.2,0-0.3,0c1.7-0.7,3.2-1.1,4.4-1.1L27.6,27.2 M27.6,27.2
			c-2.3,0-5.5,1.1-10,4.2c2.5-1.3,4.4-1.8,5.9-1.8c6.1,0,6.4,8.4,12.9,8.4c2.4,0,5.5-1.1,10.1-4.2c-2.6,1.4-4.6,2-6.2,2
			C34,35.7,34,27.2,27.6,27.2L27.6,27.2z"/>
	</g>
	<g id="f14f6fbd-b10e-47ec-8f26-ff4516ba9fe1" class="st9">
		<path class="st4" d="M28.1,27.6v0.5c3.1,0,4.1,2,5.3,4.1c1,2,2.2,4.2,5.2,4.5c-0.9,0.2-1.7,0.3-2.6,0.4c-3.1,0-4.3-2-5.4-4.1
			c-1.1-1.9-2.3-4.1-5.2-4.4c0.9-0.3,1.8-0.4,2.8-0.4V27.6 M28.1,27.6c-1.8,0-4.2,0.6-7.6,2.2c1.6-0.6,3-0.8,4.1-0.8
			c6.4,0,4.6,8.6,11.4,8.6c1.8,0,4.3-0.6,7.7-2.2c-1.8,0.6-3.2,0.9-4.3,0.9C32.8,36.2,34.8,27.6,28.1,27.6L28.1,27.6z"/>
	</g>
	<g id="fccd1231-b16a-4115-93d8-01cab2f2aab8" class="st10">
		<path class="st4" d="M28.3,28.4c3.4,0,4,1.9,4.8,4c0.6,1.7,1.3,3.6,3.7,4.3c-0.4,0-0.7,0.1-1.1,0.1c-3.4,0-4.2-2-5-4.1
			C30,31,29.3,29.1,27,28.5C27.4,28.4,27.9,28.4,28.3,28.4 M28.3,28c-1.3,0-3.1,0.3-5.4,1c0.8-0.2,1.6-0.3,2.4-0.3
			c6.9,0,3,8.5,10.4,8.5c1.4,0,3.1-0.3,5.4-1c-0.8,0.2-1.7,0.3-2.5,0.3C31.5,36.4,35.6,28,28.3,28L28.3,28z"/>
	</g>
	<g id="f50e0c6b-bde9-4eb4-83fe-a26e0d6fd96d" class="st11">
		<path class="st4" d="M28.5,28.6c3.7,0.1,4,1.9,4.4,3.9c0.3,1.5,0.6,3.1,2.5,3.9c-3.6-0.2-4-2-4.4-4C30.6,31,30.3,29.4,28.5,28.6
			 M28,28.3c-1,0-1.9,0.1-2.9,0.2c0.2,0,0.4,0,0.6,0c8.2,0,1.5,8.4,10.3,8.4c1,0,1.9-0.1,2.9-0.2c-0.2,0-0.4,0-0.6,0
			C29.8,36.6,36.8,28.3,28,28.3L28,28.3z"/>
	</g>
	<g id="ada8c12f-1947-4213-9930-8b73f384236d" class="st12">
		<path class="st4" d="M29.6,29c1.1,0.2,1.9,0.5,2.3,1c0.7,0.7,0.8,1.7,0.8,2.7c0.1,1.2,0.1,2.6,1.5,3.5c-2.9-0.6-3-2.1-3.1-3.8
			C31.1,31.1,31,29.8,29.6,29 M26.9,28.5c8.1,0.8-0.8,8.2,10.2,8.2C28.7,35.8,38,28.5,26.9,28.5z"/>
	</g>
</g>
<g id="bd4b1d63-1c64-4946-8c23-4eb878d50ee3">
	
		<radialGradient id="SVGID_1_" cx="45.0442" cy="737.5568" r="19.2623" gradientTransform="matrix(1 0 0 1 -13.41 -705.56)" gradientUnits="userSpaceOnUse">
		<stop  offset="0" style="stop-color:#FFB61A"/>
		<stop  offset="0.54" style="stop-color:#FDB51A"/>
		<stop  offset="0.73" style="stop-color:#F6B019"/>
		<stop  offset="0.87" style="stop-color:#EBA818"/>
		<stop  offset="0.98" style="stop-color:#DA9D15"/>
		<stop  offset="1" style="stop-color:#D69A15"/>
	</radialGradient>
	<circle class="st13" cx="31.6" cy="32" r="19.3"/>
	
		<radialGradient id="SVGID_00000151509160238952970190000004019180028542004110_" cx="45.0475" cy="737.5549" r="25.2635" gradientTransform="matrix(1 0 0 1 -13.41 -705.56)" gradientUnits="userSpaceOnUse">
		<stop  offset="0.76" style="stop-color:#FFEBBD"/>
		<stop  offset="0.84" style="stop-color:#FFEEBB;stop-opacity:0.59"/>
		<stop  offset="1" style="stop-color:#FFEEBB;stop-opacity:0"/>
	</radialGradient>
	<path style="fill:url(#SVGID_00000151509160238952970190000004019180028542004110_);" d="M31.6,12.7c10.6,0,19.3,8.6,19.3,19.3
		c0,10.6-8.6,19.3-19.3,19.3S12.4,42.6,12.4,32c0,0,0,0,0,0C12.4,21.4,21,12.7,31.6,12.7 M31.6,6.7C17.7,6.7,6.4,18.1,6.4,32
		s11.3,25.3,25.3,25.3c14,0,25.3-11.3,25.3-25.3c0-6.7-2.7-13.1-7.4-17.9C44.8,9.4,38.3,6.7,31.6,6.7z"/>
</g>
<g id="aa71230a-efeb-410d-9d30-f06506db4c8f">
	<path class="st1" d="M1.3,56.5c21.9-2.1,22.6-12.3,23.4-23c0.5-6.3,0.9-12.8,5.9-17.7c2.6-2.6,6.3-4.6,11.2-5.9
		C47.2,8.4,54,7.7,62.6,7.7l0,0.9c-23,2.3-23.5,12.5-24.1,23.4c-0.7,12.5-1.4,25.4-37.2,25.4L1.3,56.5z"/>
	<path class="st2" d="M62.6,8.1c-50.3,4.9,5,48.8-61.3,48.8C49.7,52.2-3.3,8.1,62.6,8.1 M62.6,7.2c-8.6,0-15.5,0.7-21,2.2
		c-5,1.4-8.7,3.3-11.4,6c-5.1,5-5.5,11.6-6,18c-0.4,5.3-0.8,10.4-3.7,14.4C19,50,16.8,51.7,14,53c-3.3,1.5-7.5,2.5-12.7,3l0.1,1.9
		c8.6,0,15.4-0.7,20.9-2.2c4.9-1.3,8.6-3.3,11.2-5.9c4.9-4.9,5.3-11.5,5.6-17.8c0.3-5.4,0.6-10.5,3.5-14.6c1.6-2.2,3.8-3.9,6.8-5.2
		c3.4-1.5,7.9-2.6,13.3-3.1L62.6,7.2L62.6,7.2z"/>
	<g class="st3">
		<path class="st4" d="M45.6,11.2c-2,1.2-3.7,2.8-5.1,4.6c-3.4,4.7-3.7,10.5-4,16c-0.3,6.1-0.6,11.8-4.9,16.1
			c-2.9,2.9-7.5,4.9-13.9,6.1c1.9-1.2,3.6-2.7,5-4.6c3.4-4.6,3.8-10.3,4.2-15.8c0.5-6.2,0.9-12,5.2-16.3
			C35,14.5,39.4,12.4,45.6,11.2 M62.6,8.1c-66,0-13,44.1-61.3,48.8C67.6,56.9,12.4,13.1,62.6,8.1L62.6,8.1z"/>
	</g>
	<g id="ab8837c4-cc02-4738-a6df-83d4b4855369" class="st3">
		<path class="st4" d="M40.4,13.6c-1.5,1.2-2.7,2.7-3.6,4.4c-2.2,4.2-1.8,8.9-1.3,13.5c0.5,5,0.9,9.7-2,13.6
			c-2,2.7-5.5,4.9-10.5,6.6c1.4-1.2,2.6-2.7,3.5-4.3c2.2-4.2,1.8-8.8,1.5-13.3c-0.4-5.1-0.7-9.8,2.3-13.9
			C32.2,17.5,35.6,15.3,40.4,13.6 M53.9,9.1c-53.5,8-5.2,37.3-43.8,47C63.8,48,13.7,19.1,53.9,9.1L53.9,9.1z"/>
	</g>
	<g id="bf35868d-d7b5-4452-9cd9-95d33aaf70fa" class="st5">
		<path class="st4" d="M36.5,16.2c-1,1.2-1.8,2.5-2.4,4c-1.3,3.7-0.3,7.5,0.6,11.1c1,4,1.9,7.7,0,11.3c-1.3,2.4-3.8,4.6-7.7,6.7
			c1-1.1,1.8-2.5,2.3-3.9c1.2-3.6,0.4-7.4-0.4-11c-0.9-4.1-1.8-7.9,0.1-11.5C30.3,20.3,32.8,18.2,36.5,16.2 M46.9,10.8
			c-42.4,13,0.4,30.9-29.8,43.5C59.7,41.2,15.5,23.9,46.9,10.8L46.9,10.8z"/>
	</g>
	<g id="b59b3328-44f6-4e97-8539-9355e8bfdb1f" class="st6">
		<path class="st4" d="M33.7,18.7c-0.7,1.1-1.2,2.2-1.4,3.5c-0.6,3.2,0.6,6.1,1.7,8.9c1.3,3.1,2.5,6,1.4,9.2
			c-0.8,2.1-2.6,4.2-5.5,6.3c0.7-1,1.2-2.2,1.4-3.4c0.6-3.1-0.5-6-1.6-8.8c-1.2-3.2-2.4-6.2-1.2-9.4C29.2,22.8,31,20.8,33.7,18.7
			 M41.6,13.2c-32.9,15.5,3.9,25-19.1,38.7C55.5,36.4,17.6,27.4,41.6,13.2z"/>
	</g>
	<g id="b5b8613f-58ad-4347-ac0e-bdb5a1c8bfb7" class="st7">
		<path class="st4" d="M31.7,21.1c-0.4,0.9-0.7,2-0.7,3c-0.1,2.6,1.2,4.9,2.5,7c1.4,2.4,2.7,4.6,2.2,7.3c-0.4,1.8-1.6,3.7-3.7,5.8
			c0.4-0.9,0.7-1.9,0.7-3c0.1-2.6-1.2-4.8-2.4-7c-1.4-2.4-2.7-4.7-2.2-7.5C28.5,25,29.7,23.1,31.7,21.1 M37.3,15.7
			c-24.8,16.6,6.3,19.8-10.7,33.8C51.5,32.7,19.7,30.2,37.3,15.7z"/>
	</g>
	<g id="e8d3bb71-d298-4cb7-8691-025faf0549fd" class="st8">
		<path class="st4" d="M30.4,23.3c-0.2,0.8-0.3,1.7-0.2,2.5c0.2,2.1,1.6,3.8,2.9,5.4c1.4,1.8,2.8,3.4,2.7,5.6
			c-0.1,1.5-0.8,3.2-2.3,5.1c0.2-0.8,0.3-1.7,0.2-2.5c-0.2-2.1-1.5-3.8-2.8-5.4c-1.4-1.8-2.7-3.5-2.6-5.8
			C28.3,26.9,29,25.2,30.4,23.3 M34.4,18.2c-18.1,16.4,7.4,15.3-4.7,28.7C47.9,30.4,21.8,32.1,34.4,18.2z"/>
	</g>
	<g id="ad9855a2-ef5f-4914-86e1-8bced43910a5" class="st9">
		<path class="st4" d="M29.6,25.2c-0.4,3,1.4,4.6,3.1,6.1c1.4,1.2,2.7,2.4,2.9,4.2c0.1,1.2-0.3,2.7-1.2,4.4c0.1-0.7,0-1.4-0.1-2
			c-0.4-1.7-1.7-2.9-2.9-4c-1.4-1.3-2.7-2.5-2.9-4.4C28.3,28.4,28.7,26.9,29.6,25.2 M32.1,20.6C19.5,36.2,40,32.1,31.9,44.5
			C44.6,28.8,23.6,33.4,32.1,20.6z"/>
	</g>
	<g id="a0b69c3d-e604-4a78-9409-54c4f15caf93" class="st10">
		<path class="st4" d="M29.2,26.9c0,2.4,1.7,3.6,3.2,4.6c1.3,0.8,2.4,1.6,2.8,3.1c0.3,1,0.1,2.3-0.5,3.8c0-2.4-1.7-3.5-3.2-4.6
			c-1.3-0.9-2.5-1.7-2.8-3.2C28.5,29.6,28.6,28.4,29.2,26.9 M30.7,22.9c-8.4,14.1,7.8,8.4,2.6,19.4C41.8,28,25.3,34.2,30.7,22.9
			L30.7,22.9z"/>
	</g>
	<g id="eed2dbee-18e7-42c7-8544-d2baee7833bb" class="st11">
		<path class="st4" d="M29,28.3c0.3,2,1.8,2.7,3.2,3.3c1.1,0.5,2.2,1,2.7,2.2c0.3,0.8,0.4,1.8,0.1,3.1c-0.3-1.9-1.8-2.7-3.1-3.3
			C30,32.7,28.3,31.9,29,28.3 M29.7,24.9c-5.1,12.5,7.4,5.8,4.5,15.4C39.3,27.7,26.8,34.8,29.7,24.9L29.7,24.9z"/>
	</g>
	<g id="bee506f8-f60f-4b4c-839b-be08e9119fa7" class="st12">
		<path class="st4" d="M29.1,29.5c0.5,1.6,1.8,2,3,2.3c1,0.3,1.9,0.6,2.4,1.4c0.4,0.6,0.5,1.4,0.4,2.5c-0.5-1.5-1.8-1.9-2.9-2.3
			C30.4,32.9,28.9,32.4,29.1,29.5 M29.3,26.6c-2.6,10.7,6.7,3.9,5.5,11.9C37.4,27.7,28,35,29.3,26.6L29.3,26.6z"/>
	</g>
</g>
<path class="st2" d="M1.4,57.9l-0.7-0.2C0.3,57.6,0,57.3,0,56.9v-0.7L1.3,56L1.4,57.9z"/>
<path class="st2" d="M62.6,7.2l0.1,0c0.7,0,1.2,0.5,1.2,1.2v0.5l-1.3,0.1L62.6,7.2z"/>
</svg>
