<svg width="40" height="40" fill="none" xmlns="http://www.w3.org/2000/svg">
<path d="M20.1762 35.6088C28.9738 35.6088 36.1062 28.4776 36.1062 19.68C36.1062 10.8825 28.9738 3.75 20.1762 3.75C11.3788 3.75 4.24756 10.8825 4.24756 19.68C4.24756 28.4776 11.3788 35.6088 20.1762 35.6088Z" fill="#2E3148"></path><path d="M20.1388 28.695C25.2212 28.695 29.3424 24.5738 29.3424 19.4912C29.3424 14.4087 25.2212 10.2875 20.1388 10.2875C15.055 10.2875 10.935 14.4087 10.935 19.4912C10.935 24.5738 15.055 28.695 20.1388 28.695Z" fill="#1B1E36"></path><path d="M40 19.5C40 22.1262 39.4824 24.7262 38.4774 27.1538C37.4724 29.58 35.9988 31.785 34.1424 33.6412C32.285 35.4988 30.08 36.9724 27.6538 37.9774C25.2274 38.9824 22.6262 39.5 20 39.5C17.3737 39.5 14.7725 38.9824 12.3463 37.9774C9.92002 36.9724 7.71496 35.4988 5.85746 33.6412C4.00122 31.785 2.52752 29.58 1.52252 27.1538C0.517522 24.7262 0 22.1262 0 19.5H4.79378C4.79378 21.4962 5.18624 23.4738 5.95124 25.3188C6.71498 27.1638 7.83502 28.84 9.24752 30.2524C10.66 31.6638 12.3362 32.785 14.1813 33.5488C16.0263 34.3126 18.0025 34.7062 20 34.7062C21.9976 34.7062 23.9738 34.3126 25.8188 33.5488C27.6638 32.785 29.34 31.6638 30.7524 30.2524C32.165 28.84 33.285 27.1638 34.0488 25.3188C34.8138 23.4738 35.2062 21.4962 35.2062 19.5H40Z" fill="#C73238"></path><path d="M35.79 19.5C35.79 21.5738 35.3812 23.6262 34.5874 25.5424C33.7938 27.4574 32.6312 29.1988 31.165 30.665C29.6988 32.1312 27.9588 33.2938 26.0424 34.0876C24.1274 34.8812 22.0738 35.2888 20 35.2888C17.9262 35.2888 15.8737 34.8812 13.9575 34.0876C12.0425 33.2938 10.3012 32.1312 8.83494 30.665C7.3687 29.1988 6.20624 27.4574 5.41248 25.5424C4.61874 23.6262 4.21124 21.5738 4.21124 19.5H20H35.79Z" fill="#070B09"></path><path d="M19.855 5.73868C18.1737 5.73868 16.81 11.8362 16.81 19.3587C16.81 26.8812 18.1737 32.9786 19.855 32.9786C21.5362 32.9786 22.9 26.8812 22.9 19.3587C22.9 11.8362 21.5362 5.73868 19.855 5.73868ZM20.065 32.21C19.8725 32.4662 19.68 32.2736 19.68 32.2736C18.9062 31.3774 18.5187 29.71 18.5187 29.71C17.165 25.3524 17.4875 15.9937 17.4875 15.9937C18.1237 8.56494 19.2812 6.8099 19.675 6.4199C19.7162 6.3799 19.7687 6.35616 19.825 6.35116C19.8812 6.3474 19.9375 6.36242 19.9837 6.39492C20.555 6.79992 21.035 8.4949 21.035 8.4949C22.4512 13.7499 22.3224 18.6862 22.3224 18.6862C22.4512 22.98 21.6138 27.7874 21.6138 27.7874C20.9688 31.44 20.065 32.21 20.065 32.21Z" fill="white"></path><path d="M31.6676 12.58C30.8312 11.1213 24.8638 12.9737 18.3363 16.7162C11.8075 20.46 7.20252 24.6774 8.04002 26.135C8.87628 27.5938 14.8438 25.7426 21.3712 21.9988C27.9 18.255 32.505 14.0375 31.6676 12.58ZM8.81128 25.935C8.49128 25.895 8.56378 25.6312 8.56378 25.6312C8.95628 24.5138 10.2075 23.3488 10.2075 23.3488C13.3163 20.005 21.5938 15.6275 21.5938 15.6275C28.3538 12.4825 30.4538 12.615 30.9862 12.7612C31.0412 12.7775 31.0888 12.8112 31.12 12.8575C31.1526 12.905 31.1662 12.9612 31.1612 13.0175C31.0962 13.7162 29.8626 14.9737 29.8626 14.9737C26.0112 18.82 21.6662 21.165 21.6662 21.165C18.005 23.4138 13.4188 25.0788 13.4188 25.0788C9.92874 26.3362 8.81128 25.935 8.81128 25.935Z" fill="white"></path><path d="M31.6388 26.1838C32.4824 24.7288 27.89 20.4914 21.385 16.7201C14.88 12.9489 8.91246 11.0739 8.06996 12.5314C7.22746 13.9889 11.82 18.2226 18.3287 21.9938C24.8374 25.7664 30.7962 27.6414 31.6388 26.1838ZM8.62874 13.0939C8.50498 12.7976 8.76746 12.7276 8.76746 12.7276C9.93246 12.5076 11.5675 13.0076 11.5675 13.0076C16.0175 14.0214 23.9538 18.9926 23.9538 18.9926C30.0624 23.2676 31 25.1502 31.14 25.6852C31.155 25.7402 31.1488 25.7976 31.125 25.8488C31.1 25.9002 31.0588 25.9414 31.0074 25.9638C30.37 26.2564 28.6638 25.8214 28.6638 25.8214C23.405 24.4114 19.1987 21.8276 19.1987 21.8276C15.42 19.7901 11.6825 16.6539 11.6825 16.6539C8.84374 14.2626 8.62996 13.0964 8.62996 13.0964L8.62874 13.0939Z" fill="white"></path><path d="M19.8225 20.926C20.7076 20.926 21.425 20.2086 21.425 19.3236C21.425 18.4386 20.7076 17.7211 19.8225 17.7211C18.9375 17.7211 18.22 18.4386 18.22 19.3236C18.22 20.2086 18.9375 20.926 19.8225 20.926Z" fill="white"></path><path d="M26.3938 14.1338C26.9062 14.1338 27.3226 13.7038 27.3226 13.1726C27.3226 12.6413 26.9062 12.2113 26.3938 12.2113C25.88 12.2113 25.4638 12.6413 25.4638 13.1726C25.4638 13.7038 25.88 14.1338 26.3938 14.1338Z" fill="white"></path><path d="M11.1375 17.4027C11.65 17.4027 12.0663 16.9714 12.0663 16.4414C12.0663 15.9102 11.65 15.4789 11.1375 15.4789C10.6237 15.4789 10.2075 15.9102 10.2075 16.4414C10.2075 16.9714 10.6237 17.4027 11.1375 17.4027Z" fill="white"></path><path d="M19.855 5.73868C18.1737 5.73868 16.81 11.8362 16.81 19.3587C16.81 26.8812 18.1737 32.9786 19.855 32.9786C21.5362 32.9786 22.9 26.8812 22.9 19.3587C22.9 11.8362 21.5362 5.73868 19.855 5.73868ZM20.065 32.21C19.8725 32.4662 19.68 32.2736 19.68 32.2736C18.9062 31.3774 18.5187 29.71 18.5187 29.71C17.165 25.3524 17.4875 15.9937 17.4875 15.9937C18.1237 8.56494 19.2812 6.8099 19.675 6.4199C19.7162 6.3799 19.7687 6.35616 19.825 6.35116C19.8812 6.3474 19.9375 6.36242 19.9837 6.39492C20.555 6.79992 21.035 8.4949 21.035 8.4949C22.4512 13.7499 22.3224 18.6862 22.3224 18.6862C22.4512 22.98 21.6138 27.7874 21.6138 27.7874C20.9688 31.44 20.065 32.21 20.065 32.21Z" fill="white"></path><path d="M31.6676 12.58C30.8312 11.1213 24.8638 12.9737 18.3363 16.7162C11.8075 20.46 7.20252 24.6774 8.04002 26.135C8.87628 27.5938 14.8438 25.7426 21.3712 21.9988C27.9 18.255 32.505 14.0375 31.6676 12.58ZM8.81128 25.935C8.49128 25.895 8.56378 25.6312 8.56378 25.6312C8.95628 24.5138 10.2075 23.3488 10.2075 23.3488C13.3163 20.005 21.5938 15.6275 21.5938 15.6275C28.3538 12.4825 30.4538 12.615 30.9862 12.7612C31.0412 12.7775 31.0888 12.8112 31.12 12.8575C31.1526 12.905 31.1662 12.9612 31.1612 13.0175C31.0962 13.7162 29.8626 14.9737 29.8626 14.9737C26.0112 18.82 21.6662 21.165 21.6662 21.165C18.005 23.4138 13.4188 25.0788 13.4188 25.0788C9.92874 26.3362 8.81128 25.935 8.81128 25.935Z" fill="white"></path><path d="M31.6388 26.1838C32.4824 24.7288 27.89 20.4914 21.385 16.7201C14.88 12.9489 8.91246 11.0739 8.06996 12.5314C7.22746 13.9889 11.82 18.2226 18.3287 21.9938C24.8374 25.7664 30.7962 27.6414 31.6388 26.1838ZM8.62874 13.0939C8.50498 12.7976 8.76746 12.7276 8.76746 12.7276C9.93246 12.5076 11.5675 13.0076 11.5675 13.0076C16.0175 14.0214 23.9538 18.9926 23.9538 18.9926C30.0624 23.2676 31 25.1502 31.14 25.6852C31.155 25.7402 31.1488 25.7976 31.125 25.8488C31.1 25.9002 31.0588 25.9414 31.0074 25.9638C30.37 26.2564 28.6638 25.8214 28.6638 25.8214C23.405 24.4114 19.1987 21.8276 19.1987 21.8276C15.42 19.7901 11.6825 16.6539 11.6825 16.6539C8.84374 14.2626 8.62996 13.0964 8.62996 13.0964L8.62874 13.0939Z" fill="white"></path><path d="M19.8225 20.926C20.7076 20.926 21.425 20.2086 21.425 19.3236C21.425 18.4386 20.7076 17.7211 19.8225 17.7211C18.9375 17.7211 18.22 18.4386 18.22 19.3236C18.22 20.2086 18.9375 20.926 19.8225 20.926Z" fill="white"></path><path d="M26.3938 14.1338C26.9062 14.1338 27.3226 13.7038 27.3226 13.1726C27.3226 12.6413 26.9062 12.2113 26.3938 12.2113C25.88 12.2113 25.4638 12.6413 25.4638 13.1726C25.4638 13.7038 25.88 14.1338 26.3938 14.1338Z" fill="white"></path><path d="M11.1375 17.4027C11.65 17.4027 12.0663 16.9714 12.0663 16.4414C12.0663 15.9102 11.65 15.4789 11.1375 15.4789C10.6237 15.4789 10.2075 15.9102 10.2075 16.4414C10.2075 16.9714 10.6237 17.4027 11.1375 17.4027Z" fill="white"></path></svg>
