<svg width="40" height="40" viewBox="0 0 40 40" fill="none" xmlns="http://www.w3.org/2000/svg">
<path d="M21.0726 38.8549C31.5259 38.8549 40 30.3808 40 19.9274C40 9.4741 31.5259 1 21.0726 1C10.6192 1 2.14514 9.4741 2.14514 19.9274C2.14514 30.3808 10.6192 38.8549 21.0726 38.8549Z" fill="url(#paint0_linear_1210_3748)"/>
<path d="M21.0726 37.4353C30.7419 37.4353 38.5805 29.5968 38.5805 19.9274C38.5805 10.2581 30.7419 2.41956 21.0726 2.41956C11.4032 2.41956 3.5647 10.2581 3.5647 19.9274C3.5647 29.5968 11.4032 37.4353 21.0726 37.4353Z" fill="black"/>
<path d="M6.13565 14.6909C9.52427 14.6909 12.2713 11.9438 12.2713 8.5552C12.2713 5.16658 9.52427 2.41956 6.13565 2.41956C2.74702 2.41956 0 5.16658 0 8.5552C0 11.9438 2.74702 14.6909 6.13565 14.6909Z" fill="url(#paint1_linear_1210_3748)"/>
<path d="M4.83313 3.62798C4.51575 5.1362 5.02253 6.67834 6.85282 8.18166C9.21875 10.125 9.33417 10.9081 8.29547 13.1124C10.2574 12.2423 11.9598 9.83491 10.9499 6.64443C9.85351 4.09205 7.19906 2.93189 4.83313 3.62798Z" fill="url(#paint2_linear_1210_3748)"/>
<path d="M7.72104 13.324C8.04208 11.8099 7.52946 10.2618 5.67813 8.75269C3.28498 6.8019 3.16826 6.01574 4.21889 3.8029C2.23435 4.67641 0.512471 7.09306 1.53392 10.2958C2.64293 12.8581 5.32791 14.0227 7.72104 13.324Z" fill="#070707"/>
<path d="M5.67318 8.75881C6.5981 9.51279 7.18813 10.2761 7.50697 11.0395C7.82511 11.8013 7.87337 12.5637 7.71432 13.3177C5.32631 14.0125 2.64819 12.8498 1.54135 10.2931C0.524861 7.10523 2.22966 4.69794 4.20271 3.81873C3.68381 4.91459 3.45284 5.66226 3.64952 6.37816C3.84725 7.09788 4.47675 7.78351 5.67318 8.75881Z" stroke="white" stroke-opacity="0.1" stroke-width="0.216667"/>
<path d="M4.836 3.57857C6.58972 3.9285 7.69752 4.42672 9.06291 6.29552C10.5154 8.88312 9.96348 11.5138 8.35118 13.0376C9.2832 10.6457 9.22269 10.1769 6.97124 8.23621C4.71979 6.29552 4.58493 4.82889 4.836 3.57857Z" fill="url(#paint3_linear_1210_3748)" fill-opacity="0.8"/>
<path d="M7.6443 13.262C5.88581 12.912 4.77502 12.4138 3.40594 10.545C1.94945 7.95742 2.54304 5.3267 4.15972 3.8029C3.22518 6.19484 3.24572 6.6636 5.50326 8.6043C7.76079 10.545 7.896 12.0116 7.6443 13.262Z" fill="url(#paint4_linear_1210_3748)" fill-opacity="0.5"/>
<g clip-path="url(#clip0_1210_3748)">
<path d="M32 15.7472C32 15.4048 31.8239 15.0956 31.5297 14.9203L22.0986 9.30314C21.4209 8.89891 20.5791 8.89891 19.9015 9.30314L10.4704 14.9204C10.1795 15.0937 10.0048 15.3977 10.0001 15.7355C10.0003 16.1485 10.0005 16.8242 10.0006 17.2373C9.98877 17.5929 10.1666 17.9165 10.4703 18.0975L13.7858 20.0728C13.84 20.1052 13.84 20.1838 13.7858 20.216L10.4703 22.1907C10.1767 22.3658 10.0006 22.6742 10.0001 23.016C10.0001 23.4352 10.0001 24.1211 10.0001 24.5403C10.0001 24.8835 10.1762 25.1926 10.4704 25.3672L19.9015 30.9852C20.2403 31.1873 20.62 31.2883 21.0004 31.2883C21.3809 31.2883 21.7597 31.1873 22.0986 30.9852L31.5296 25.3672C31.8239 25.1926 32 24.8835 32 24.5403C32 24.1211 32 23.4352 32 23.016C31.9994 22.6742 31.8234 22.3658 31.5296 22.1908L28.2142 20.2161C28.1599 20.1838 28.1599 20.1052 28.2142 20.0729L31.5296 18.0975C31.8239 17.9222 32 17.6131 32 17.2706V15.7473L32 15.7472ZM20.3473 18.8442C20.5486 18.7247 20.7745 18.6644 21.0004 18.6644C21.2263 18.6644 21.4514 18.7246 21.6528 18.8442L23.835 20.1445L21.6528 21.4441C21.2501 21.6841 20.75 21.6841 20.3473 21.4441L18.1651 20.1445L20.3473 18.8442ZM29.8172 23.7077C29.8714 23.74 29.8714 23.8186 29.8172 23.851L21.6528 28.7137C21.2501 28.9538 20.75 28.9538 20.3473 28.7137L12.1829 23.8509C12.1286 23.8186 12.1286 23.74 12.1829 23.7077L13.7129 22.7961C14.0119 22.6179 14.1951 22.2956 14.1951 21.9474V20.514C14.1951 20.4296 14.287 20.3774 14.3595 20.4205L19.9015 23.7153C20.2403 23.9167 20.62 24.0178 21.0004 24.0178C21.3809 24.0178 21.7597 23.9167 22.0986 23.7153L23.7157 22.7519C24.0165 22.5726 24.2 22.2475 24.1979 21.8973L24.1899 20.5482C24.1894 20.4635 24.2815 20.4107 24.3544 20.4541L29.8172 23.7077ZM27.7871 19.7623C27.7871 19.8467 27.6952 19.899 27.6227 19.8559L22.0986 16.5728C21.4209 16.1694 20.5791 16.1694 19.9015 16.5728L18.274 17.5422C17.9731 17.7214 17.7896 18.0466 17.7917 18.3968L17.8 19.7776C17.8004 19.8425 17.7298 19.8829 17.674 19.8497L12.1829 16.5805C12.1287 16.5482 12.1286 16.4696 12.1829 16.4372L20.3473 11.5745C20.5486 11.4541 20.7745 11.3939 21.0004 11.3939C21.2263 11.3939 21.4514 11.4541 21.6528 11.5745L29.8172 16.4372C29.8714 16.4696 29.8714 16.5482 29.8172 16.5805L28.2694 17.5026C27.9703 17.6807 27.7871 18.0031 27.7871 18.3512V19.7623Z" fill="#FF3912"/>
</g>
<defs>
<linearGradient id="paint0_linear_1210_3748" x1="21.0726" y1="1" x2="21.0726" y2="38.8549" gradientUnits="userSpaceOnUse">
<stop stop-color="#B977FF"/>
<stop offset="1" stop-color="#606DC8"/>
</linearGradient>
<linearGradient id="paint1_linear_1210_3748" x1="2.42902" y1="2.41956" x2="8.99054" y2="14.6909" gradientUnits="userSpaceOnUse">
<stop stop-color="#B977FF"/>
<stop offset="1" stop-color="#606DC8"/>
</linearGradient>
<linearGradient id="paint2_linear_1210_3748" x1="7.99745" y1="3.42904" x2="7.99745" y2="13.1124" gradientUnits="userSpaceOnUse">
<stop stop-color="#747474"/>
<stop offset="0.211458" stop-color="#4F4E4E"/>
<stop offset="1" stop-color="#020202"/>
</linearGradient>
<linearGradient id="paint3_linear_1210_3748" x1="7.82512" y1="5.18227" x2="8.26288" y2="12.6567" gradientUnits="userSpaceOnUse">
<stop/>
<stop offset="1" stop-color="#0E0E0E"/>
</linearGradient>
<linearGradient id="paint4_linear_1210_3748" x1="4.64707" y1="11.6583" x2="4.21048" y2="4.18364" gradientUnits="userSpaceOnUse">
<stop stop-color="#444444"/>
<stop offset="0.789583" stop-color="#A2A2A2"/>
<stop offset="1" stop-color="#ADADAD"/>
</linearGradient>
<clipPath id="clip0_1210_3748">
<rect width="22" height="22.2882" fill="white" transform="translate(10 9)"/>
</clipPath>
</defs>
</svg>
