<svg xmlns="http://www.w3.org/2000/svg" width="40" height="40" version="1.1">
<path d="M19.9609 40C31.0282 40 40 31.0282 40 19.9609C40 8.89367 31.0282 -0.078125 19.9609 -0.078125C8.89367 -0.078125 -0.078125 8.89367 -0.078125 19.9609C-0.078125 31.0282 8.89367 40 19.9609 40Z" fill="white"></path><path d="M26.9665 10.3488H13.6071V13.2813H26.9665V10.3488Z" fill="#E50913"></path><path d="M27.2221 20.7339C27.2221 21.7674 26.9849 22.7163 26.5105 23.5804C26.0361 24.4276 25.3075 25.1138 24.3248 25.6391C23.342 26.1643 22.1221 26.427 20.6649 26.427H17.9709V32.8316H13.6248V14.99H20.6649C22.0882 14.99 23.2912 15.2357 24.2739 15.727C25.2566 16.2184 25.9937 16.8962 26.4851 17.7603C26.9764 18.6244 27.2221 19.6156 27.2221 20.7339ZM20.3345 22.9705C21.1648 22.9705 21.7832 22.7756 22.1898 22.3859C22.5965 21.9962 22.7998 21.4456 22.7998 20.7339C22.7998 20.0223 22.5965 19.4716 22.1898 19.0819C21.7832 18.6922 21.1648 18.4974 20.3345 18.4974H17.9709V22.9705H20.3345Z" fill="black"></path>
</svg>