<svg width="310" height="310" viewBox="0 0 310 310" fill="none" xmlns="http://www.w3.org/2000/svg">
            <path
              d="M308.156 94.509C308.156 89.712 305.689 85.382 301.568 82.926L169.465 4.246C164.719 1.415 159.399 0 154.078 0C148.757 0 143.436 1.415 138.69 4.246L6.58798 82.927C2.51398 85.355 0.0669823 89.613 0.000982336 94.345C0.00298234 100.13 0.00598234 109.594 0.00698234 115.38C-0.158018 120.362 2.33298 124.894 6.58698 127.429L53.027 155.098C53.405 155.323 53.595 155.709 53.597 156.096C53.599 156.486 53.409 156.877 53.027 157.104L6.58698 184.763C2.47398 187.216 0.00798234 191.535 -1.76638e-05 196.323C-1.76638e-05 202.195 -1.76638e-05 211.802 -1.76638e-05 217.674C-1.76638e-05 222.482 2.46698 226.811 6.58798 229.257L138.69 307.948C143.436 310.779 148.754 312.194 154.083 312.194C159.412 312.194 164.719 310.779 169.465 307.948L301.567 229.257C305.688 226.811 308.155 222.482 308.155 217.674C308.155 211.802 308.155 202.195 308.155 196.323C308.147 191.535 305.681 187.216 301.567 184.764L255.127 157.105C254.747 156.879 254.557 156.49 254.557 156.102C254.557 155.714 254.747 155.325 255.127 155.099L301.567 127.43C305.688 124.974 308.155 120.645 308.155 115.847V94.51L308.156 94.509ZM144.935 137.889C147.755 136.214 150.919 135.37 154.083 135.37C157.247 135.37 160.4 136.213 163.221 137.889L193.788 156.102L163.221 174.305C157.58 177.667 150.576 177.667 144.935 174.305L114.368 156.102L144.935 137.889ZM277.58 206.012C278.34 206.465 278.34 207.566 277.58 208.019L163.221 276.132C160.401 277.813 157.239 278.653 154.078 278.653C150.917 278.653 147.755 277.813 144.935 276.132L30.575 208.018C29.815 207.565 29.815 206.464 30.575 206.012L52.006 193.243C56.194 190.747 58.76 186.232 58.76 181.356V161.278C58.76 160.096 60.047 159.364 61.063 159.968L138.69 206.119C143.436 208.939 148.754 210.355 154.083 210.355C159.412 210.355 164.719 208.939 169.465 206.119L192.116 192.624C196.33 190.113 198.9 185.559 198.871 180.654L198.758 161.756C198.751 160.57 200.042 159.83 201.062 160.438L277.58 206.012ZM249.145 150.749C249.145 151.931 247.858 152.663 246.842 152.059L169.465 106.073C159.973 100.422 148.182 100.422 138.69 106.073L115.894 119.651C111.679 122.162 109.109 126.716 109.138 131.622L109.255 150.963C109.26 151.872 108.271 152.438 107.49 151.973L30.576 106.181C29.816 105.728 29.815 104.627 30.576 104.174L144.935 36.061C147.755 34.375 150.919 33.532 154.083 33.532C157.247 33.532 160.4 34.375 163.221 36.061L277.58 104.174C278.34 104.627 278.34 105.728 277.58 106.181L255.9 119.096C251.711 121.591 249.145 126.107 249.145 130.983V150.749Z"
              fill="#FF3912"
            />
</svg>
