<svg width="2049" height="2050" viewBox="0 0 2049 2050" fill="none" xmlns="http://www.w3.org/2000/svg">
<g clip-path="url(#clip0_3858_67292)">
<g clip-path="url(#clip1_3858_67292)">
<path fill-rule="evenodd" clip-rule="evenodd" d="M1024.5 71.4794L198.727 548.24V1501.76L1024.5 1978.52L1850.27 1501.76V548.24L1024.5 71.4794ZM1911.74 512.75L1024.5 0.5L137.257 512.75V1537.25L1024.5 2049.5L1911.74 1537.25V512.75Z" fill="black"/>
</g>
<path d="M988.035 692.22C967.763 686.6 949.371 676.411 934.041 662.838L663.346 1154.49C683.332 1160.93 701.321 1171.86 716.122 1186.08L988.035 692.22Z" fill="black"/>
<path d="M755.385 1257.22C757.185 1266.05 758.13 1275.19 758.13 1284.54C758.13 1296.33 756.629 1307.77 753.809 1318.69H1298.61C1295.79 1307.77 1294.28 1296.33 1294.28 1284.54C1294.28 1275.19 1295.23 1266.05 1297.03 1257.22L755.385 1257.22Z" fill="black"/>
<path d="M1115.32 662.512L1388.59 1154.64C1368.64 1161.15 1350.69 1172.14 1335.93 1186.42L1061.43 692.088C1081.68 686.395 1100.04 676.142 1115.32 662.512Z" fill="black"/>
<path fill-rule="evenodd" clip-rule="evenodd" d="M1429.78 1231.14C1400.92 1231.14 1377.44 1254.64 1377.44 1283.52C1377.44 1312.41 1400.92 1335.91 1429.78 1335.91C1458.65 1335.91 1482.13 1312.41 1482.13 1283.52C1482.13 1254.64 1458.65 1231.14 1429.78 1231.14ZM1429.78 1398.62C1366.36 1398.62 1314.77 1346.99 1314.77 1283.52C1314.77 1220.06 1366.36 1168.43 1429.78 1168.43C1493.2 1168.43 1544.8 1220.06 1544.8 1283.52C1544.8 1346.99 1493.2 1398.62 1429.78 1398.62Z" fill="black"/>
<path fill-rule="evenodd" clip-rule="evenodd" d="M1023.4 507.161C994.534 507.161 971.054 530.66 971.054 559.544C971.054 588.428 994.534 611.927 1023.4 611.927C1052.26 611.927 1075.75 588.428 1075.75 559.544C1075.75 530.66 1052.26 507.161 1023.4 507.161ZM1023.4 674.637C959.98 674.637 908.39 623.009 908.39 559.544C908.39 496.081 959.98 444.45 1023.4 444.45C1086.82 444.45 1138.41 496.081 1138.41 559.544C1138.41 623.009 1086.82 674.637 1023.4 674.637Z" fill="black"/>
<path fill-rule="evenodd" clip-rule="evenodd" d="M620.429 1231.14C591.564 1231.14 568.084 1254.64 568.084 1283.52C568.084 1312.41 591.564 1335.91 620.429 1335.91C649.295 1335.91 672.78 1312.41 672.78 1283.52C672.78 1254.64 649.295 1231.14 620.429 1231.14ZM620.429 1398.62C557.01 1398.62 505.42 1346.99 505.42 1283.52C505.42 1220.06 557.01 1168.43 620.429 1168.43C683.849 1168.43 735.444 1220.06 735.444 1283.52C735.444 1346.99 683.849 1398.62 620.429 1398.62Z" fill="black"/>
</g>
<defs>
<clipPath id="clip0_3858_67292">
<rect width="2049" height="2049" fill="white" transform="translate(0 0.5)"/>
</clipPath>
<clipPath id="clip1_3858_67292">
<rect width="2049" height="2049" fill="white" transform="translate(0 0.5)"/>
</clipPath>
</defs>
</svg>
