<svg width="206" height="204" viewBox="0 0 206 204" fill="none" xmlns="http://www.w3.org/2000/svg">
<path d="M3 52L103 2L203 52L103 102L3 52Z" fill="white"/>
<path d="M3 152L103 102L203 152L103 202L3 152Z" fill="white"/>
<path d="M103 102L203 52V152L103 202V102Z" fill="white"/>
<path d="M3 52L103 102V202L3 152V52Z" fill="white"/>
<path d="M3 152L103 102L203 152L103 202L3 152Z" fill="black" fill-opacity="0.1"/>
<mask id="mask0" mask-type="alpha" maskUnits="userSpaceOnUse" x="0" y="0" width="206" height="204">
<path d="M103 102L203 52V152L103 202V102Z" stroke="black" stroke-width="2"/>
<path d="M3 52L103 102V202L3 152V52Z" stroke="black" stroke-width="2"/>
<path d="M3 52L103 2L203 52L103 102L3 52Z" stroke="black" stroke-width="2"/>
</mask>
<g mask="url(#mask0)">
<path fill-rule="evenodd" clip-rule="evenodd" d="M219.667 -14.6667H-13.6667V218.667H219.667V-14.6667ZM103 177C144.421 177 178 143.421 178 102C178 60.5786 144.421 27 103 27C61.5786 27 27.9999 60.5786 27.9999 102C27.9999 143.421 61.5786 177 103 177Z" fill="black"/>
</g>
<path d="M103 55.1667L64 126L142.333 126L103 55.1667Z" stroke="black" stroke-width="6"/>
<path fill-rule="evenodd" clip-rule="evenodd" d="M142.566 138.802C135.269 138.802 129.333 132.865 129.333 125.568C129.333 118.27 135.269 112.333 142.566 112.333C149.863 112.333 155.8 118.27 155.8 125.568C155.8 132.865 149.863 138.802 142.566 138.802Z" fill="white"/>
<path fill-rule="evenodd" clip-rule="evenodd" d="M142.559 120.454C139.742 120.454 137.45 122.748 137.45 125.567C137.45 128.387 139.742 130.68 142.559 130.68C145.377 130.68 147.669 128.387 147.669 125.567C147.669 122.748 145.377 120.454 142.559 120.454ZM142.559 136.802C136.369 136.802 131.333 131.762 131.333 125.567C131.333 119.373 136.369 114.333 142.559 114.333C148.75 114.333 153.786 119.373 153.786 125.567C153.786 131.762 148.75 136.802 142.559 136.802Z" fill="black"/>
<path fill-rule="evenodd" clip-rule="evenodd" d="M102.9 68.1352C95.6026 68.1352 89.6667 62.1986 89.6667 54.9009C89.6667 47.6035 95.6026 41.6667 102.9 41.6667C110.197 41.6667 116.133 47.6035 116.133 54.9009C116.133 62.1986 110.197 68.1352 102.9 68.1352Z" fill="white"/>
<path fill-rule="evenodd" clip-rule="evenodd" d="M102.892 49.7877C100.075 49.7877 97.7832 52.0815 97.7832 54.9008C97.7832 57.7201 100.075 60.0138 102.892 60.0138C105.71 60.0138 108.002 57.7201 108.002 54.9008C108.002 52.0815 105.71 49.7877 102.892 49.7877ZM102.893 66.1349C96.7023 66.1349 91.6666 61.0956 91.6666 54.9008C91.6666 48.7062 96.7023 43.6667 102.893 43.6667C109.083 43.6667 114.119 48.7062 114.119 54.9008C114.119 61.0956 109.083 66.1349 102.893 66.1349Z" fill="black"/>
<path fill-rule="evenodd" clip-rule="evenodd" d="M63.5663 138.802C56.2693 138.802 50.3333 132.865 50.3333 125.568C50.3333 118.27 56.2693 112.333 63.5663 112.333C70.8634 112.333 76.8 118.27 76.8 125.568C76.8 132.865 70.8634 138.802 63.5663 138.802Z" fill="white"/>
<path fill-rule="evenodd" clip-rule="evenodd" d="M63.5594 120.454C60.7418 120.454 58.4501 122.748 58.4501 125.567C58.4501 128.387 60.7418 130.68 63.5594 130.68C66.3769 130.68 68.6692 128.387 68.6692 125.567C68.6692 122.748 66.3769 120.454 63.5594 120.454ZM63.5593 136.802C57.369 136.802 52.3334 131.762 52.3334 125.567C52.3334 119.373 57.369 114.333 63.5593 114.333C69.7495 114.333 74.7857 119.373 74.7857 125.567C74.7857 131.762 69.7495 136.802 63.5593 136.802Z" fill="black"/>
</svg>
