<?xml version="1.0" encoding="utf-8"?>
<!-- Generator: Adobe Illustrator 26.3.1, SVG Export Plug-In . SVG Version: 6.00 Build 0)  -->
<svg version="1.1"
	 id="svg8" xmlns:rdf="http://www.w3.org/1999/02/22-rdf-syntax-ns#" xmlns:svg="http://www.w3.org/2000/svg" xmlns:cc="http://creativecommons.org/ns#" xmlns:dc="http://purl.org/dc/elements/1.1/" xmlns:osb="http://www.openswatchbook.org/uri/2009/osb"
	 xmlns="http://www.w3.org/2000/svg" xmlns:xlink="http://www.w3.org/1999/xlink" x="0px" y="0px" viewBox="0 0 725.9 708.8"
	 style="enable-background:new 0 0 725.9 708.8;" xml:space="preserve">
<style type="text/css">
	.st0{fill:#FFFFFF;}
	.st1{stroke:#FFFFFF;stroke-width:25.8556;stroke-miterlimit:15.1181;}
	.st2{fill-rule:evenodd;clip-rule:evenodd;fill:#FFFFFF;}
	.st3{fill:none;stroke:#F0827D;stroke-width:14.8532;stroke-miterlimit:15.1181;}
</style>
<g id="layer1" transform="translate(0,-32.41665)">
	<ellipse id="circle1199" class="st0" cx="362.9" cy="394.4" rx="350" ry="341.5"/>
	<ellipse id="path1185" class="st1" cx="362.9" cy="386.8" rx="350" ry="341.5"/>
	<g id="g1265" transform="matrix(2.4170273,0,0,2.5557268,70.439041,106.28282)">
		<g id="g1229" transform="matrix(0.721351,0,0,0.811444,6.54562,5.10326)">
			<path id="path1227" class="st2" d="M166.3,71.3c0-3.2-2.9-5.7-6.4-5.7c0,0,0,0,0,0c-3.6,0-6.4,2.6-6.4,5.7
				c0,23.1,0,109.2,0,132.3c0,3.2,2.9,5.7,6.4,5.7c0,0,0,0,0,0c3.6,0,6.4-2.6,6.4-5.7C166.3,180.5,166.3,94.4,166.3,71.3L166.3,71.3
				z"/>
		</g>
		<g id="g1233" transform="matrix(5.99295e-4,-0.721351,0.258566,2.14816e-4,18.4279,54.7844)">
			<path id="path1231" class="st2" d="M-133.9,345.6c0-9.9-2.9-18-6.4-18c0,0,0,0,0,0c-3.6,0-6.4,8-6.4,18c0,27.6,0,80.2,0,107.8
				c0,9.9,2.9,18,6.4,18c0,0,0,0,0,0c3.6,0,6.4-8,6.4-18C-133.9,425.8-133.9,373.2-133.9,345.6z"/>
		</g>
		<g id="g1237" transform="matrix(5.99295e-4,-0.721351,0.579332,4.81307e-4,10.2753,38.6396)">
			<path id="path1235" class="st2" d="M-72,128.6c0-4.4-2.9-8-6.4-8c0,0,0,0,0,0c-3.6,0-6.4,3.6-6.4,8c0,25.2,0,102.5,0,127.7
				c0,4.4,2.9,8,6.4,8c0,0,0,0,0,0c3.6,0,6.4-3.6,6.4-8C-72,231.1-72,153.8-72,128.6z"/>
		</g>
		<g id="g1241" transform="matrix(0.509521,-0.510622,0.393855,0.393005,1.94156,23.2426)">
			<path id="path1239" class="st2" d="M53,180.5c0-4.6-2.9-8.4-6.4-8.4c0,0,0,0,0,0c-3.6,0-6.4,3.7-6.4,8.4c0,25.4,0,101.6,0,127
				c0,4.6,2.9,8.4,6.4,8.4c0,0,0,0,0,0c3.6,0,6.4-3.7,6.4-8.4C53,282.1,53,206,53,180.5z"/>
		</g>
		<g id="g1245" transform="matrix(-0.51096,-0.509182,0.392744,-0.394115,28.1955,43.2602)">
			<path id="path1243" class="st2" d="M-136.5-11.1c0-4.6-2.9-8.4-6.4-8.4c0,0,0,0,0,0c-3.6,0-6.4,3.7-6.4,8.4c0,25.4,0,101.6,0,127
				c0,4.6,2.9,8.4,6.4,8.4c0,0,0,0,0,0c3.6,0,6.4-3.7,6.4-8.4C-136.5,90.5-136.5,14.3-136.5-11.1z"/>
		</g>
	</g>
	
		<ellipse id="path1267" transform="matrix(-1 -9.348881e-03 9.348881e-03 -1 722.4688 781.6588)" class="st3" cx="363.1" cy="389.1" rx="308.7" ry="300.6"/>
</g>
</svg>
