<svg width="32" height="32" viewBox="0 0 32 32" fill="none" xmlns="http://www.w3.org/2000/svg">
<path d="M16 30.9155C24.2374 30.9155 30.9152 24.2377 30.9152 16.0002C30.9152 7.76276 24.2374 1.08496 16 1.08496C7.76252 1.08496 1.08472 7.76276 1.08472 16.0002C1.08472 24.2377 7.76252 30.9155 16 30.9155Z" fill="white" />
<path d="M11.0466 10.2303L14.1495 8.59717L13.3329 12.0267L19.0488 15.3542L22.1518 18.2326L21.8252 21.8255L19.5388 22.9686L19.0488 19.7024L13.1696 16.4361L10.5566 13.3332L11.0466 10.2303Z" fill="white"/>
<path d="M15.7054 24.3226C17.2302 24.3628 19.6378 23.5602 19.6779 21.7545C19.8384 16.6183 10.3284 18.103 10.529 12.1642C10.6093 9.47571 13.8595 7.75026 16.548 7.87067" stroke="#1B1B1B" stroke-width="1.3642" stroke-miterlimit="10"/>
<path d="M22.3665 10.7598C21.0021 9.15478 19.4372 8.0312 17.15 7.87072C15.6251 7.75036 13.4583 8.47264 13.2978 10.2783C12.8564 15.3343 22.848 14.4114 22.3263 20.3501C22.0856 23.0386 18.5143 24.4029 15.7054 24.3227C13.4182 24.2424 11.452 23.1992 9.84692 21.4336" stroke="#1B1B1B" stroke-width="1.3642" stroke-miterlimit="10"/>
</svg>
