<svg width="130" height="38" viewBox="0 0 130 38" fill="none" xmlns="http://www.w3.org/2000/svg">
<path d="M31.3848 5.9905C27.9107 2.5127 23.2957 0.598999 18.3863 0.598999C8.24734 0.598999 0 8.85369 0 19C0 29.1463 8.24734 37.401 18.3863 37.401C23.2957 37.401 27.9144 35.4873 31.3848 32.0095C34.8589 28.5317 36.7689 23.9131 36.7689 19C36.7689 14.0869 34.8589 9.46461 31.3848 5.9905ZM18.3863 36.1277C8.95026 36.1277 1.27335 28.4434 1.27335 19C1.27335 9.55661 8.95026 1.87235 18.3863 1.87235C27.8223 1.87235 35.4993 9.55661 35.4993 19C35.4993 28.4434 27.8223 36.1277 18.3863 36.1277Z" fill="white"/>
<path d="M24.422 19.4349C23.2443 18.3823 21.7023 17.6794 20.2082 16.9986L20.1971 16.9949C17.5621 15.7915 15.284 14.75 15.446 12.2879C15.5159 11.3495 16.1967 10.7827 16.7561 10.4772C17.3854 10.1313 18.2208 9.92522 18.9937 9.92522C19.0857 9.92522 19.1777 9.9289 19.266 9.93258C21.5146 10.0835 23.2885 11.0366 25.0219 13.0166L25.1249 13.138L25.2464 13.035L25.9235 12.4462L26.045 12.3394L25.9382 12.218C24.0061 10.0025 21.9084 8.8874 19.3433 8.71443C19.2329 8.70339 19.1151 8.69971 18.9863 8.69971C18.909 8.69971 18.8244 8.69971 18.7361 8.70339H18.6257C16.9438 8.70339 15.1 9.25542 13.6979 10.1828C12.0234 11.2906 11.0849 12.8142 11.0592 14.4739C10.9929 18.5111 14.2941 19.8691 17.2051 21.0726L17.2125 21.0762L17.2419 21.0873C19.8181 22.1545 22.0409 23.0746 21.9931 25.5403C21.971 27.167 19.6451 28.0649 18.0479 28.0649H17.9816H17.8234V28.0686C15.4423 27.9987 13.3151 26.9719 11.5008 25.0251L11.3904 24.9073L11.2726 25.0141L10.6139 25.625L10.4961 25.7354L10.6065 25.8531C12.6674 28.0723 15.2104 29.2647 17.9632 29.2978H18.0884C19.8659 29.2978 21.798 28.8194 23.2554 28.0134C25.0808 27.0161 26.1443 25.5624 26.2547 23.921C26.3799 22.1177 25.78 20.6493 24.422 19.4349ZM15.8766 15.9239C16.9254 16.8219 18.346 17.466 19.7187 18.0879L19.7445 18.0989C21.1981 18.7687 22.5745 19.4017 23.5719 20.2813C24.6759 21.2529 25.1433 22.379 25.0439 23.8253C24.9519 25.2569 23.8884 26.2138 22.9205 26.7916C23.1082 26.4089 23.2112 25.993 23.2222 25.5514C23.2443 24.0646 22.6739 22.8759 21.4741 21.9116C20.4253 21.0689 19.0342 20.4984 17.6872 19.9427C14.8866 18.7908 12.2405 17.7015 12.2884 14.485C12.3031 13.2484 13.0465 12.0781 14.3824 11.1912C14.4266 11.1618 14.4707 11.1323 14.5186 11.1029C14.3603 11.4488 14.272 11.8095 14.2499 12.1885C14.1432 13.679 14.6768 14.9009 15.8766 15.9239Z" fill="white"/>
<path d="M57.1881 16.2822L58.0429 14.5727C56.7892 13.7464 55.0512 13.2051 53.2563 13.2051C50.521 13.2051 48.0422 14.4302 48.0422 17.2794C48.0137 22.5789 56.4189 20.7269 56.3334 24.3739C56.3049 25.884 54.8803 26.5678 53.1138 26.5678C51.3473 26.5678 49.4098 25.8555 48.1277 24.6588L47.2729 26.2828C48.6975 27.6505 50.8914 28.3912 53.0283 28.3912C55.906 28.3912 58.5273 27.0806 58.5273 24.146C58.5273 18.761 50.1506 20.499 50.1506 17.1085C50.1506 15.6839 51.4328 15.0855 53.1138 15.0855C54.5099 15.0855 56.02 15.5414 57.1881 16.2822Z" fill="white"/>
<path d="M68.1041 13.2336C63.7448 13.262 60.6677 16.3392 60.6677 20.8124C60.6677 25.2856 63.7163 28.3912 68.1326 28.3912C70.6399 28.3912 72.7483 27.4795 74.1729 25.9125L72.9477 24.6303C71.7796 25.8555 70.1555 26.5393 68.3035 26.5393C65.3689 26.5393 63.232 24.6018 62.8616 21.6387H75.1131C75.341 16.5671 72.9477 13.2336 68.1041 13.2336ZM62.8616 19.8722C63.175 16.966 65.2264 15.0855 68.1041 15.0855C71.0388 15.0855 72.9762 16.966 73.1187 19.8722H62.8616Z" fill="white"/>
<path d="M89.4129 16.9945L90.6381 15.4559C89.2705 14.0598 87.276 13.2336 84.8542 13.2336C80.5235 13.2336 77.4178 16.3677 77.4178 20.8124C77.4178 25.2856 80.495 28.3912 84.8542 28.3912C87.447 28.3912 89.5269 27.4225 90.866 25.7985L89.5839 24.4879C88.5297 25.7415 86.9056 26.4253 84.9397 26.4253C81.8341 26.4253 79.6117 24.146 79.6117 20.8124C79.6117 17.5073 81.8341 15.228 84.9397 15.228C86.7632 15.228 88.2733 15.8833 89.4129 16.9945Z" fill="white"/>
<path d="M97.1213 16.6526V13.319H94.899V28.3058H97.1213V20.328C97.3778 17.3079 99.3437 15.342 102.506 15.3989V13.2336C99.9705 13.262 98.1185 14.4587 97.1213 16.6526Z" fill="white"/>
<path d="M111.426 13.2336C107.067 13.262 103.99 16.3392 103.99 20.8124C103.99 25.2856 107.039 28.3912 111.455 28.3912C113.962 28.3912 116.07 27.4795 117.495 25.9125L116.27 24.6303C115.102 25.8555 113.478 26.5393 111.626 26.5393C108.691 26.5393 106.554 24.6018 106.184 21.6387H118.435C118.663 16.5671 116.27 13.2336 111.426 13.2336ZM106.184 19.8722C106.497 16.966 108.549 15.0855 111.426 15.0855C114.361 15.0855 116.298 16.966 116.441 19.8722H106.184Z" fill="white"/>
<path d="M129.373 25.5705C128.547 26.0549 127.749 26.3113 126.98 26.3398C125.698 26.3398 124.985 25.599 124.985 23.7756V15.5129H129.743V13.7749H124.985V9.84302H122.791V13.7749H120.626V15.5129H122.791V24.146C122.791 27.1091 124.415 28.4197 126.609 28.3912C127.806 28.3912 128.946 27.9924 130 27.2801L129.373 25.5705Z" fill="white"/>
</svg>
