<?xml version="1.0" encoding="UTF-8"?>
<svg xmlns="http://www.w3.org/2000/svg" xmlns:xlink="http://www.w3.org/1999/xlink" id="Layer_1" viewBox="0 0 82 82">
  <defs>
    <style>.cls-1{fill:url(#linear-gradient);}.cls-2{fill:#fff;}.cls-3{fill:url(#linear-gradient-2);}.cls-4{opacity:.61;}</style>
    <linearGradient id="linear-gradient" x1="0" y1="41" x2="82" y2="41" gradientUnits="userSpaceOnUse">
      <stop offset="0" stop-color="#fff"></stop>
      <stop offset=".04" stop-color="#dee8ff"></stop>
      <stop offset=".09" stop-color="#bacfff"></stop>
      <stop offset=".14" stop-color="#99b8ff"></stop>
      <stop offset=".21" stop-color="#7ea6ff"></stop>
      <stop offset=".28" stop-color="#6896ff"></stop>
      <stop offset=".36" stop-color="#578bff"></stop>
      <stop offset=".46" stop-color="#4b82ff"></stop>
      <stop offset=".6" stop-color="#447eff"></stop>
      <stop offset="1" stop-color="#437dff"></stop>
    </linearGradient>
    <linearGradient id="linear-gradient-2" x1="67.95" y1="74.28" x2="16.35" y2="10.56" xlink:href="#linear-gradient"></linearGradient>
  </defs>
  <circle class="cls-1" cx="41" cy="41" r="41"></circle>
  <g class="cls-4">
    <circle class="cls-3" cx="41" cy="41" r="41"></circle>
  </g>
  <g>
    <path class="cls-2" d="M21.82,52.91c-6.43,0-11.68-4.83-11.68-11.65s5.25-11.61,11.68-11.61,11.61,4.8,11.61,11.61-5.21,11.65-11.61,11.65Zm0-6.62c2.85,0,4.42-2.02,4.42-5.02s-1.57-5.06-4.42-5.06-4.45,1.98-4.45,5.06,1.54,5.02,4.45,5.02Z"></path>
    <path class="cls-2" d="M48.06,34.42c4.16,0,7.46,3.42,7.46,9.25s-3.3,9.25-7.46,9.25c-2.4,0-4.1-1.06-4.96-2.69v2.46h-7.1V29.01h7.1v8.1c.86-1.63,2.56-2.69,4.96-2.69Zm-2.37,6.21c-1.47,0-2.62,1.05-2.62,3.04s1.15,3.04,2.62,3.04,2.62-1.06,2.62-3.04-1.15-3.04-2.62-3.04Z"></path>
    <path class="cls-2" d="M57.24,29.71c0-1.98,1.57-3.55,4.1-3.55s4.06,1.57,4.06,3.55-1.57,3.49-4.06,3.49-4.1-1.54-4.1-3.49Zm.51,4.93h7.1v18.05h-7.1v-18.05Z"></path>
  </g>
</svg>
