<?xml version="1.0" encoding="UTF-8"?>
<svg xmlns="http://www.w3.org/2000/svg" width="190" height="216" fill="none" viewBox="0 0 190 216">
  <path fill="#384350" d="M93.58 213.548C41.898 212.193.636 186.8 1.42 156.83c.784-29.97 43.317-53.168 95-51.814 51.683 1.355 92.944 26.748 92.16 56.718-.784 29.97-43.317 53.168-95 51.814Z"></path>
  <mask id="mask0" width="188" height="110" x="1" y="104" maskUnits="userSpaceOnUse" style="mask-type:alpha">
    <path fill="#384350" d="M93.58 213.548C41.898 212.193.636 186.8 1.42 156.83c.784-29.97 43.317-53.168 95-51.814 51.683 1.355 92.944 26.748 92.16 56.718-.784 29.97-43.317 53.168-95 51.814Z"></path>
  </mask>
  <g mask="url(#mask0)">
    <path fill="#283039" d="M227.979 82.629a72.163 72.163 0 0 1 15.068 10.122 44.717 44.717 0 0 1 12.882 18.133 34.347 34.347 0 0 1 2.062 13.288 36.762 36.762 0 0 1-.288 3.109 40.498 40.498 0 0 1-5.011 14.551 51.382 51.382 0 0 1-3.103 4.846 56.767 56.767 0 0 1-3.811 4.799 74.762 74.762 0 0 1-5.806 5.895 87.781 87.781 0 0 1-7.119 5.805c-1.907 1.374-3.813 2.749-5.899 4.037-29.988 18.998-75.311 27.082-114.358 20.438a125.13 125.13 0 0 1-7.878-1.557c-3.67-.824-7.29-1.804-10.862-2.941a111.41 111.41 0 0 1-8.307-3.004 99.79 99.79 0 0 1-6.572-2.944 83.411 83.411 0 0 1-5.951-3.234 64.77 64.77 0 0 1-14.177-11.125 57.435 57.435 0 0 1-2.332-2.652 40.358 40.358 0 0 1-7.06-12.388 34.41 34.41 0 0 1-.811-20.296 44.276 44.276 0 0 1 6.496-13.98 66.444 66.444 0 0 1 10.395-11.805 89.46 89.46 0 0 1 7.896-6.356 107.675 107.675 0 0 1 11.549-7.239c27.582-15.053 65.441-21.805 99.746-17.837a176.352 176.352 0 0 1 15.01 2.495c4.135.906 8.077 1.958 11.959 3.198a104.97 104.97 0 0 1 16.282 6.642Z"></path>
  </g>
  <path fill="#263238" d="m43.055 25.717-4.45-9.308L59.802 4.167a30.295 30.295 0 0 1 7.345-3.086 32.8 32.8 0 0 1 2.72-.602A36.322 36.322 0 0 1 83.58.855c1.674.348 3.327.792 4.95 1.33a51.964 51.964 0 0 1 5.114 1.97c2.25.987 4.44 2.11 6.556 3.36a79.082 79.082 0 0 1 6.843 4.492 120.966 120.966 0 0 1 5.014 3.95c24.191 20.435 43.218 56.887 48.044 91.935.334 2.383.597 4.758.789 7.124.289 3.387.426 6.749.414 10.036 0 2.722-.113 5.356-.326 7.89a90.02 90.02 0 0 1-.739 6.384 80.108 80.108 0 0 1-1.141 5.921 57.565 57.565 0 0 1-5.666 15.053 40.204 40.204 0 0 1-1.629 2.709 36.363 36.363 0 0 1-8.624 9.333 32.173 32.173 0 0 1-3.183 2.07l-20.13 11.615-4.074-8.517a40.628 40.628 0 0 1-3.284-.853 59.882 59.882 0 0 1-12.822-5.682 81.574 81.574 0 0 1-7.52-5.018 97.579 97.579 0 0 1-9.25-7.89c-20.193-19.443-36.087-49.862-41.903-80.143a132.254 132.254 0 0 1-1.917-13.434c-.326-3.763-.502-7.4-.49-11.039a95.19 95.19 0 0 1 1.254-15.654 68.628 68.628 0 0 1 3.196-12.08Z"></path>
  <path fill="#fff" d="m155.661 87.158-41.237 23.833-5.215-15.052 41.288-23.833a162.586 162.586 0 0 1 5.164 15.052ZM59.799 4.167a30.293 30.293 0 0 1 7.345-3.086c.89-.239 1.805-.44 2.72-.602a36.322 36.322 0 0 1 13.712.376c.602.125 1.254.276 1.818.44L43.015 25.78a.392.392 0 0 0 0-.1l-4.45-9.308L59.8 4.167ZM62.332 62.934l-5.214-6.272 60.991-35.123a124.226 124.226 0 0 1 5.528 5.883L62.332 62.934ZM136.222 44.206 83.164 74.863l-5.652-14.789 49.522-28.625a144.434 144.434 0 0 1 9.188 12.757Z" opacity=".25"></path>
  <path fill="#fff" d="M59.8 4.167a30.295 30.295 0 0 1 7.344-3.086c.89-.239 1.805-.44 2.72-.602a36.322 36.322 0 0 1 13.713.376 44.68 44.68 0 0 1 4.95 1.33 51.962 51.962 0 0 1 5.115 1.97 61.38 61.38 0 0 1 6.555 3.36 79.252 79.252 0 0 1 6.844 4.492 121.615 121.615 0 0 1 5.013 3.95c22.562 19.03 40.574 51.932 46.853 84.647l-84.18 48.682c-16.294-19.179-28.715-45.308-33.716-71.35a132.253 132.253 0 0 1-1.918-13.434c-.326-3.763-.501-7.4-.489-11.038a95.188 95.188 0 0 1 1.254-15.655 68.63 68.63 0 0 1 3.158-12.092l-4.45-9.308L59.8 4.167Z" opacity=".4"></path>
  <path fill="#fff" d="m119.864 186.027-4.074-8.518a40.628 40.628 0 0 1-3.284-.853 59.866 59.866 0 0 1-12.822-5.682 81.372 81.372 0 0 1-7.52-5.018 97.565 97.565 0 0 1-9.251-7.89 117.09 117.09 0 0 1-8.185-8.78l84.18-48.645c.468 2.408.885 4.816 1.253 7.225.368 2.408.631 4.783.79 7.125a113.4 113.4 0 0 1 .413 10.035c0 2.722-.112 5.356-.325 7.89a90.63 90.63 0 0 1-.74 6.385 79.564 79.564 0 0 1-1.141 5.92 57.571 57.571 0 0 1-5.665 15.053 40.624 40.624 0 0 1-1.629 2.709 36.347 36.347 0 0 1-8.624 9.333 32.187 32.187 0 0 1-3.184 2.07l-20.192 11.641Z" opacity=".1"></path>
  <path fill="#000" d="M153.431 160.274a41.14 41.14 0 0 1-1.629 2.709 36.38 36.38 0 0 1-8.624 9.333 31.984 31.984 0 0 1-3.183 2.069l-20.13 11.616-4.074-8.517h-.163l-.301-3.487 42.629-24.712a54.703 54.703 0 0 1-4.525 10.989Z" opacity=".1"></path>
  <path fill="#fff" d="M19.063 49.84a64.453 64.453 0 0 1 4.563-15.542 39.886 39.886 0 0 1 11.957-15.83 30.574 30.574 0 0 1 10.742-5.32c.89-.238 1.805-.426 2.72-.589a36.059 36.059 0 0 1 13.713.364c1.674.354 3.327.802 4.95 1.342a50.459 50.459 0 0 1 5.102 1.957 66.49 66.49 0 0 1 6.568 3.362 78.29 78.29 0 0 1 6.844 4.503c1.68 1.254 3.359 2.509 5.013 3.939 24.191 20.434 43.218 56.848 48.044 91.871.342 2.4.606 4.775.789 7.125.285 3.345.422 6.69.414 10.035 0 2.709-.125 5.343-.326 7.877a89.174 89.174 0 0 1-.739 6.385 74.584 74.584 0 0 1-1.153 5.933 57.844 57.844 0 0 1-5.653 15.053 51.946 51.946 0 0 1-1.63 2.697 35.97 35.97 0 0 1-8.636 9.332 30.624 30.624 0 0 1-17.034 6.134 39.4 39.4 0 0 1-13.625-1.781 59.223 59.223 0 0 1-12.822-5.682 79.686 79.686 0 0 1-7.52-5.018 96.06 96.06 0 0 1-9.25-7.89c-20.193-19.443-36.087-49.862-41.915-80.13-.836-4.507-1.47-8.99-1.905-13.447-.339-3.763-.502-7.4-.489-11.038a93.844 93.844 0 0 1 1.278-15.642Z"></path>
  <path fill="#000" d="M138.063 112.633c.464 2.421.878 4.842 1.254 7.263.376 2.421.602 4.766.79 7.125.284 3.345.422 6.69.413 10.035 0 2.709-.125 5.343-.326 7.877a89.174 89.174 0 0 1-.739 6.385 74.584 74.584 0 0 1-1.153 5.933 57.857 57.857 0 0 1-5.653 15.053 51.946 51.946 0 0 1-1.63 2.697 35.97 35.97 0 0 1-8.636 9.332 30.631 30.631 0 0 1-17.071 6.134 39.404 39.404 0 0 1-13.625-1.781 59.223 59.223 0 0 1-12.822-5.682c-2.27-1.33-4.488-2.81-6.694-4.416l65.892-65.955Z" opacity=".05"></path>
  <path fill="#000" d="M137.11 161.531a54.394 54.394 0 0 1-4.512 10.788 51.248 51.248 0 0 1-1.629 2.697 36.024 36.024 0 0 1-8.636 9.333 30.432 30.432 0 0 1-13.788 5.77l28.565-28.588Z" opacity=".05"></path>
  <path fill="#9DA3A6" d="M129.679 84.133c1.967 4.942 3.685 10.035 5.151 15.052l-71.77 71.826-.978-.915a118.876 118.876 0 0 1-8.774-9.521l76.371-76.442ZM106.214 43.492c3.27 4.08 6.317 8.334 9.125 12.745l-78.965 79.026c-2.507-4.792-4.901-9.809-7.007-14.827l76.847-76.944ZM97.252 33.559a119.526 119.526 0 0 1 5.565 5.92l-75.53 75.589a167.699 167.699 0 0 1-2.946-8.554l72.911-72.955ZM17.948 60.038c.075-1.468.2-2.898.339-4.303 0-.464.087-.94.137-1.392.05-.452.113-.954.176-1.43.138-1.041.288-2.07.464-3.074a64.452 64.452 0 0 1 4.562-15.541 39.886 39.886 0 0 1 11.958-15.83 30.574 30.574 0 0 1 10.742-5.32c.89-.238 1.792-.426 2.72-.589a36.059 36.059 0 0 1 13.712.364c.601.125 1.253.288 1.83.439l-46.64 46.676Z" opacity=".25"></path>
  <path fill="#263238" d="M33.402 74.886c0 32.313 18.802 69.631 42.617 85.499a52.181 52.181 0 0 0 3.07 1.907c25.244 14.588 45.7-.891 45.7-34.583 0-33.693-20.456-72.83-45.7-87.418a67.206 67.206 0 0 0-3.07-1.631c-23.79-11.653-42.617 3.914-42.617 36.227Z"></path>
  <path fill="#000" d="M33.402 74.886c0 32.313 18.802 69.631 42.617 85.499a52.181 52.181 0 0 0 3.07 1.907c25.244 14.588 45.7-.891 45.7-34.583 0-33.693-20.456-72.83-45.7-87.418a67.206 67.206 0 0 0-3.07-1.631c-23.79-11.653-42.617 3.914-42.617 36.227Z" opacity=".4"></path>
  <path fill="#263238" d="M35.434 76.069c0 1.029 0 2.082.075 3.136 1.153 30.105 18.688 63.898 40.686 78.549l.589.389c.777.502 1.554.991 2.344 1.443a37.796 37.796 0 0 0 13.712 5.017c10.253 1.405 18.801-3.098 24.141-12.293 3.108-5.406 5.101-12.431 5.653-20.847.113-1.581.163-3.212.163-4.893 0-1.68 0-3.098-.138-4.666a90.29 90.29 0 0 0-1.103-9.935c-3.861-23.268-16.294-47.014-32.037-61.264a65.41 65.41 0 0 0-6.97-5.506 55.498 55.498 0 0 0-3.421-2.158 51.5 51.5 0 0 0-2.933-1.568l-.827-.376c-6.543-3.048-12.66-3.926-18.062-2.885-9.188 1.768-16.295 9.106-19.666 20.822a61.621 61.621 0 0 0-2.206 17.035Z"></path>
  <path fill="#000" d="M35.434 76.069c0 1.029 0 2.082.075 3.136 1.153 30.105 18.688 63.898 40.686 78.549l.589.389c.777.502 1.554.991 2.344 1.443a37.796 37.796 0 0 0 13.712 5.017c10.253 1.405 18.801-3.098 24.141-12.293 3.108-5.406 5.101-12.431 5.653-20.847.113-1.581.163-3.212.163-4.893 0-1.68 0-3.098-.138-4.666a90.29 90.29 0 0 0-1.103-9.935c-3.861-23.268-16.294-47.014-32.037-61.264a65.41 65.41 0 0 0-6.97-5.506 55.498 55.498 0 0 0-3.421-2.158 51.5 51.5 0 0 0-2.933-1.568l-.827-.376c-6.543-3.048-12.66-3.926-18.062-2.885-9.188 1.768-16.295 9.106-19.666 20.822a61.621 61.621 0 0 0-2.206 17.035Z" opacity=".7"></path>
  <path fill="#263238" d="M42.754 74.988V71.84a61.51 61.51 0 0 1 2.194-17.048c1.98-6.836 5.227-12.167 9.4-15.792a22.345 22.345 0 0 1 3.021-.816c5.402-1.04 11.519-.163 18.062 2.885l.827.377a61.747 61.747 0 0 1 2.933 1.568 56.58 56.58 0 0 1 3.422 2.157 65.398 65.398 0 0 1 6.969 5.507c15.73 14.25 28.114 37.995 32.025 61.264a90.263 90.263 0 0 1 1.103 9.935c.1 1.568.138 3.111.138 4.666 0 1.556 0 3.312-.163 4.892-.552 8.417-2.507 15.442-5.653 20.848a27.481 27.481 0 0 1-5.753 7.075 23.88 23.88 0 0 1-11.131 1.003 38.11 38.11 0 0 1-13.725-5.017 45.019 45.019 0 0 1-2.331-1.443l-.602-.389c-22.047-14.638-39.595-48.406-40.736-78.524Z"></path>
  <path fill="#000" d="M42.754 74.988V71.84a61.51 61.51 0 0 1 2.194-17.048c1.98-6.836 5.227-12.167 9.4-15.792a22.345 22.345 0 0 1 3.021-.816c5.402-1.04 11.519-.163 18.062 2.885l.827.377a61.747 61.747 0 0 1 2.933 1.568 56.58 56.58 0 0 1 3.422 2.157 65.398 65.398 0 0 1 6.969 5.507c15.73 14.25 28.114 37.995 32.025 61.264a90.263 90.263 0 0 1 1.103 9.935c.1 1.568.138 3.111.138 4.666 0 1.556 0 3.312-.163 4.892-.552 8.417-2.507 15.442-5.653 20.848a27.481 27.481 0 0 1-5.753 7.075 23.88 23.88 0 0 1-11.131 1.003 38.11 38.11 0 0 1-13.725-5.017 45.019 45.019 0 0 1-2.331-1.443l-.602-.389c-22.047-14.638-39.595-48.406-40.736-78.524Z" opacity=".6"></path>
  <path fill="#F5F5F5" d="M49.046 12.559a35.385 35.385 0 0 1 11.782.15c1.93.382 3.837.863 5.716 1.443.475.122.944.268 1.404.439l1.366.539 2.758 1.091A66.583 66.583 0 0 1 82.4 21.88c1.642 1.116 3.246 2.195 4.763 3.462 1.516 1.267 3.158 2.433 4.562 3.763 1.404 1.33 2.97 2.622 4.35 4.014 1.378 1.392 2.782 2.772 4.098 4.24l3.886 4.403 3.76 4.666 3.485 4.767c1.14 1.605 2.193 3.273 3.296 4.904 2.106 3.324 4.161 6.686 6.004 10.16l1.416 2.597 1.254 2.647c.877 1.769 1.78 3.512 2.506 5.331 1.642 3.575 3.109 7.238 4.55 10.9l1.968 5.57c.627 1.87 1.166 3.763 1.755 5.645.589 1.881 1.028 3.763 1.554 5.695.527 1.932.928 3.763 1.341 5.745l.615 2.898.488 2.91c.314 1.957.677 3.851.853 5.833.175 1.982.464 3.938.639 5.883.176 1.944.288 3.926.351 5.883 0 .991 0 1.969.063 2.96.062.991-.063 1.957-.088 2.935-.088 1.97-.1 3.989-.251 5.896l-.652 5.87-1.09 5.821v.075-.075a59.351 59.351 0 0 1-5.452 14.939c-.665 1.129-1.316 2.321-2.043 3.425a39.269 39.269 0 0 1-2.369 3.211 34.314 34.314 0 0 1-5.729 5.557 34.4 34.4 0 0 0 5.866-5.444 57.68 57.68 0 0 0 2.507-3.174c.815-1.103 1.417-2.257 2.144-3.399a57.725 57.725 0 0 0 5.79-14.952v-.088.063l1.166-5.821.74-5.908c.188-2.032.213-3.964.326-5.946 0-1.003.1-1.956.125-2.985.025-1.029 0-1.994 0-2.985 0-1.982-.138-3.964-.276-5.946-.138-1.982-.414-3.939-.614-5.921-.201-1.982-.527-3.951-.84-5.895l-.476-2.936-.602-2.91c-.401-1.944-.802-3.888-1.328-5.808-.527-1.919-.928-3.863-1.542-5.745-.614-1.881-1.116-3.763-1.742-5.695l-1.968-5.62-2.181-5.531c-.702-1.857-1.592-3.638-2.382-5.457-.789-1.819-1.704-3.587-2.582-5.356l-1.328-2.672-1.479-2.659c-1.881-3.5-3.961-6.887-6.105-10.223-1.103-1.644-2.18-3.312-3.334-4.93l-3.534-4.792-3.761-4.616c-1.253-1.505-2.644-2.96-3.973-4.428-1.329-1.468-2.808-2.822-4.199-4.24-1.391-1.417-2.945-2.646-4.412-3.976-1.466-1.33-3.096-2.509-4.65-3.7a56.864 56.864 0 0 0-4.863-3.45 61.133 61.133 0 0 0-10.541-5.532l-2.77-1.041-1.392-.514a13.89 13.89 0 0 0-1.441-.402 53.765 53.765 0 0 0-5.791-1.33 35.271 35.271 0 0 0-11.795.114Z"></path>
  <path fill="#7D8488" d="M77.48 83.948c21.264 25.966 31.018 41.195 26.141 50.761-1.951 2.538-5.764 5.182-8.584 6.638l-1.56.39c-18.779-1.251-25.104-9.104-37.846-31.627l4.877-5.076c9.679 14.938 14.213 22.986 28.872 29.675-.975-24.599-38.431-44.318-28.872-70.09 16.387-10.15 28.872-.974 43.893 27.53l-8.193 2.927-1.366-2.928c-12.29-24.6-25.09-21.003-17.362-8.2Z"></path>
  <path fill="#646A6D" d="M82.551 100.349C70.662 87.315 68.147 80.335 66.75 68.136c-10.924-1.172-13.07 13.47 7.218 36.703 13.48 13.122 15.798 20.721 13.655 34.556h8.194c3.263-11.831 2.912-19.347-13.266-39.046Z"></path>
  <path fill="#fff" stroke="#fff" stroke-width="2.25" d="M82.348 99.3c-7.539-9.361-14.053-17.437-13.574-25.847.205-3.289 2.232-3.941 3.894-3.904 2.073.043 4.851 1.235 7.265 3.089 6.423 4.943 11.48 11.712 16.399 21.926l1.89-.69c-5.33-11.078-11.092-18.747-18.13-24.169a20.217 20.217 0 0 0-1.662-1.17c-.114-.08-.228-.158-.319-.22-4.623-3.18-9.656-4.817-13.528-4.382-4.555.517-7.106 3.769-7.174 9.17-.182 13.206 8.905 23.992 16.922 33.516 7.379 8.781 13.779 16.364 13.642 25.037-.068 5.871-6.764 4.447-11.479 1.204l-.182-.125v.027l-.023-.015c-6.969-4.905-13.164-12.706-18.425-23.183l-1.844.805c5.67 11.313 12.663 20.105 20.247 25.432l.341.235c4.897 3.368 10.18 5.426 14.235 5.504 4.965.123 7.857-2.672 8.153-7.834.752-12.813-8.495-24.29-16.648-34.406Zm14.143 32.434c-.296 5.3-3.895 6.338-6.855 6.265a7.759 7.759 0 0 1-.82-.039c1.025-.899 1.64-2.384 1.685-4.538.137-10.747-7.652-20.004-15.19-28.951-7.972-9.465-15.51-18.439-15.374-29.601.045-4.366 2.209-7 6.058-7.45.57-.078 1.184-.07 1.822-.046-.888.938-1.412 2.32-1.503 4.138-.615 10.418 7.334 20.283 15.032 29.809 8.108 10.113 15.783 19.651 15.145 30.413Z"></path>
  <mask id="mask1" width="46" height="81" x="54" y="62" maskUnits="userSpaceOnUse" style="mask-type:alpha">
    <path fill="#fff" stroke="#fff" stroke-width="2.25" d="M82.348 99.3c-7.539-9.361-14.053-17.437-13.574-25.847.205-3.289 2.232-3.941 3.894-3.904 2.073.043 4.851 1.235 7.265 3.089 6.423 4.943 11.48 11.712 16.399 21.926l1.89-.69c-5.33-11.078-11.092-18.747-18.13-24.169a20.217 20.217 0 0 0-1.662-1.17c-.114-.08-.228-.158-.319-.22-4.623-3.18-9.656-4.817-13.528-4.382-4.555.517-7.106 3.769-7.174 9.17-.182 13.206 8.905 23.992 16.922 33.516 7.379 8.781 13.779 16.364 13.642 25.037-.068 5.871-6.764 4.446-11.479 1.204l-.182-.125v.027l-.023-.015c-6.969-4.905-13.164-12.706-18.425-23.183l-1.844.805c5.67 11.313 12.663 20.105 20.247 25.432l.341.235c4.897 3.368 10.18 5.426 14.235 5.504 4.965.123 7.857-2.672 8.153-7.834.752-12.813-8.495-24.29-16.648-34.406Zm14.143 32.434c-.296 5.3-3.895 6.338-6.855 6.265a7.759 7.759 0 0 1-.82-.039c1.025-.899 1.64-2.384 1.685-4.538.137-10.747-7.652-20.004-15.19-28.951-7.972-9.465-15.51-18.439-15.374-29.601.045-4.366 2.209-7 6.058-7.45.57-.078 1.184-.07 1.822-.046-.888.938-1.412 2.32-1.503 4.138-.615 10.418 7.334 20.283 15.032 29.809 8.108 10.113 15.783 19.651 15.145 30.413Z"></path>
  </mask>
  <g fill="#9DA3A6" mask="url(#mask1)">
    <path d="M130.248 83.477c1.968 4.942 3.685 10.035 5.151 15.052l-71.77 71.826-.978-.916a118.881 118.881 0 0 1-8.774-9.52l76.371-76.442ZM106.784 42.832a143.956 143.956 0 0 1 9.125 12.745l-78.965 79.026c-2.507-4.792-4.901-9.81-7.007-14.827l76.847-76.944ZM97.822 32.898a119.537 119.537 0 0 1 5.565 5.921l-75.531 75.589a167.636 167.636 0 0 1-2.946-8.555l72.911-72.955Z" opacity=".25"></path>
  </g>
</svg>
