<svg width="32" height="32" viewBox="0 0 32 32" fill="none" xmlns="http://www.w3.org/2000/svg">
<circle cx="16" cy="16" r="16" fill="white"/>
<circle cx="16" cy="16" r="15.5" stroke="white" stroke-opacity="0.2"/>
<path fill-rule="evenodd" clip-rule="evenodd" d="M15.9957 4C13.147 4.00148 10.3916 5.01046 8.22235 6.84652C6.05309 8.68259 4.61139 11.226 4.15503 14.022C3.69867 16.818 4.25741 19.6842 5.73135 22.1082C7.2053 24.5321 9.49832 26.3558 12.2004 27.253C12.7965 27.3636 13.0211 26.9941 13.0211 26.68C13.0211 26.3658 13.0092 25.455 13.0052 24.4592C9.66688 25.1804 8.96147 23.0505 8.96147 23.0505C8.41701 21.6674 7.63012 21.3039 7.63012 21.3039C6.5412 20.565 7.7116 20.5788 7.7116 20.5788C8.91776 20.6637 9.55164 21.8097 9.55164 21.8097C10.6207 23.6333 12.3594 23.1058 13.0429 22.7976C13.1502 22.0251 13.4622 21.4995 13.806 21.2012C11.1393 20.9008 8.33752 19.8774 8.33752 15.3054C8.32099 14.1197 8.76351 12.9731 9.57349 12.1027C9.45029 11.8024 9.03896 10.5892 9.69072 8.94143C9.69072 8.94143 10.6982 8.62136 12.9913 10.1644C14.9582 9.62962 17.0333 9.62962 19.0002 10.1644C21.2913 8.62136 22.2968 8.94143 22.2968 8.94143C22.9505 10.5853 22.5392 11.7984 22.416 12.1027C23.2286 12.9732 23.672 14.1218 23.654 15.3094C23.654 19.8912 20.8462 20.9008 18.1756 21.1952C18.6048 21.5667 18.9883 22.2918 18.9883 23.4061C18.9883 25.0026 18.9744 26.2868 18.9744 26.68C18.9744 26.9981 19.191 27.3695 19.799 27.253C22.5014 26.3557 24.7947 24.5317 26.2686 22.1073C27.7425 19.683 28.301 16.8163 27.8441 14.0201C27.3872 11.2238 25.9448 8.68035 23.7748 6.84461C21.6048 5.00886 18.8488 4.00054 15.9997 4H15.9957Z" fill="#191717"/>
<path d="M8.54444 21.6316C8.5186 21.6909 8.42322 21.7087 8.34573 21.6672C8.26823 21.6257 8.21061 21.5487 8.23843 21.4874C8.26625 21.4262 8.35964 21.4104 8.43714 21.4518C8.51463 21.4933 8.57424 21.5724 8.54444 21.6316Z" fill="#191717"/>
<path d="M9.03129 22.1711C8.99014 22.1918 8.94306 22.1975 8.89811 22.1874C8.85316 22.1773 8.81314 22.152 8.78489 22.1158C8.7074 22.0328 8.69149 21.9182 8.7511 21.8669C8.81072 21.8155 8.91803 21.8392 8.99552 21.9222C9.07302 22.0052 9.0909 22.1198 9.03129 22.1711Z" fill="#191717"/>
<path d="M9.50424 22.8568C9.43072 22.9082 9.30553 22.8568 9.23598 22.754C9.21675 22.7356 9.20146 22.7135 9.19101 22.6891C9.18056 22.6646 9.17517 22.6383 9.17517 22.6118C9.17517 22.5852 9.18056 22.5589 9.19101 22.5345C9.20146 22.5101 9.21675 22.488 9.23598 22.4695C9.3095 22.4201 9.4347 22.4695 9.50424 22.5703C9.57379 22.6711 9.57578 22.8054 9.50424 22.8568Z" fill="#191717"/>
<path d="M10.1461 23.5203C10.0805 23.5934 9.94735 23.5736 9.83806 23.4748C9.72877 23.376 9.70293 23.2417 9.7685 23.1705C9.83408 23.0994 9.96721 23.1192 10.0805 23.216C10.1937 23.3128 10.2156 23.4491 10.1461 23.5203Z" fill="#191717"/>
<path d="M11.0462 23.9084C11.0164 24.0012 10.8812 24.0427 10.7461 24.0032C10.611 23.9637 10.5216 23.8531 10.5474 23.7582C10.5732 23.6634 10.7104 23.6199 10.8475 23.6634C10.9846 23.7069 11.072 23.8116 11.0462 23.9084Z" fill="#191717"/>
<path d="M12.0278 23.9757C12.0278 24.0725 11.9166 24.1555 11.7735 24.1574C11.6304 24.1594 11.5132 24.0804 11.5132 23.9836C11.5132 23.8868 11.6245 23.8038 11.7675 23.8018C11.9106 23.7998 12.0278 23.8769 12.0278 23.9757Z" fill="#191717"/>
<path d="M12.9419 23.8239C12.9598 23.9207 12.8604 24.0215 12.7174 24.0452C12.5743 24.0689 12.4491 24.0116 12.4312 23.9168C12.4133 23.8219 12.5167 23.7192 12.6558 23.6935C12.7949 23.6678 12.924 23.7271 12.9419 23.8239Z" fill="#191717"/>
</svg>
