<svg width="32" height="32" viewBox="0 0 32 32" fill="none" xmlns="http://www.w3.org/2000/svg">
<circle cx="16" cy="16" r="16" fill="white"/>
<circle cx="16" cy="16" r="15.5" stroke="white" stroke-opacity="0.2"/>
<rect x="4" y="4" width="24" height="24" rx="12" fill="white"/>
<path d="M4 16C4 14.5975 4.24062 13.2511 4.68282 12C6.33017 7.33923 10.7751 4 16 4C21.2249 4 25.6698 7.33923 27.3172 12C27.7594 13.2511 28 14.5975 28 16C28 17.4025 27.7594 18.7489 27.3172 20C25.6698 24.6608 21.2249 28 16 28C10.7751 28 6.33017 24.6608 4.68282 20C4.24062 18.7489 4 17.4025 4 16Z" fill="#040506"/>
<path d="M4.68282 20L3.97569 20.2499L4.68282 20ZM15.5232 3.42108C11.675 6.59058 9.25 11.042 9.25 16H10.75C10.75 11.5569 12.9196 7.50878 16.4768 4.57892L15.5232 3.42108ZM16.4768 27.4211C12.9196 24.4912 10.75 20.4431 10.75 16H9.25C9.25 20.958 11.675 25.4094 15.5232 28.5789L16.4768 27.4211ZM15.5232 4.57892C19.0804 7.50878 21.25 11.5569 21.25 16H22.75C22.75 11.042 20.325 6.59058 16.4768 3.42108L15.5232 4.57892ZM16.4768 28.5789C20.325 25.4094 22.75 20.958 22.75 16H21.25C21.25 20.4431 19.0804 24.4912 15.5232 27.4211L16.4768 28.5789ZM15.25 4V28H16.75V4H15.25ZM16 27.25C11.1029 27.25 6.9347 24.1205 5.38995 19.7501L3.97569 20.2499C5.72564 25.201 10.4474 28.75 16 28.75V27.25ZM5.38995 19.7501C4.97572 18.5781 4.75 17.3162 4.75 16H3.25C3.25 17.4889 3.50551 18.9197 3.97569 20.2499L5.38995 19.7501ZM27.25 16C27.25 17.3162 27.0243 18.5781 26.61 19.7501L28.0243 20.2499C28.4945 18.9197 28.75 17.4889 28.75 16H27.25ZM26.61 19.7501C25.0653 24.1205 20.8972 27.25 16 27.25V28.75C21.5526 28.75 26.2744 25.201 28.0243 20.2499L26.61 19.7501ZM4.68282 20.75H27.3172V19.25H4.68282V20.75ZM16 3.25C10.4474 3.25 5.72564 6.79901 3.97569 11.7501L5.38995 12.2499C6.9347 7.87945 11.1029 4.75 16 4.75V3.25ZM3.97569 11.7501C3.50551 13.0803 3.25 14.5111 3.25 16H4.75C4.75 14.6838 4.97572 13.4219 5.38995 12.2499L3.97569 11.7501ZM16 4.75C20.8972 4.75 25.0653 7.87945 26.61 12.2499L28.0243 11.7501C26.2744 6.79901 21.5526 3.25 16 3.25V4.75ZM26.61 12.2499C27.0243 13.4219 27.25 14.6838 27.25 16H28.75C28.75 14.5111 28.4945 13.0803 28.0243 11.7501L26.61 12.2499ZM4.68282 12.75L27.3172 12.75V11.25L4.68282 11.25L4.68282 12.75Z" fill="white"/>
</svg>
