<svg width="32" height="32" viewBox="0 0 32 32" fill="none" xmlns="http://www.w3.org/2000/svg">
<circle cx="16" cy="16" r="16" fill="white"/>
<circle cx="16" cy="16" r="15.5" stroke="white" stroke-opacity="0.2"/>
<path d="M12.2896 24.1251C19.8368 24.1251 23.9648 17.8723 23.9648 12.4499C23.9648 12.2723 23.9648 12.0955 23.9528 11.9195C24.7559 11.3386 25.4491 10.6194 26 9.79546C25.2512 10.1275 24.4567 10.3451 23.6432 10.4411C24.4998 9.9283 25.141 9.12172 25.4472 8.17146C24.6417 8.64947 23.7605 8.98632 22.8416 9.16746C22.2229 8.50961 21.4047 8.074 20.5135 7.92803C19.6223 7.78207 18.7078 7.93389 17.9116 8.36001C17.1154 8.78612 16.4819 9.46278 16.109 10.2853C15.7361 11.1077 15.6446 12.0302 15.8488 12.9099C14.2174 12.828 12.6215 12.4041 11.1645 11.6655C9.70763 10.9269 8.4223 9.89018 7.392 8.62266C6.86727 9.52599 6.70656 10.5954 6.94258 11.613C7.17861 12.6307 7.79362 13.5201 8.6624 14.1003C8.00936 14.0811 7.37054 13.905 6.8 13.5867V13.6387C6.80026 14.586 7.12821 15.5042 7.72823 16.2373C8.32824 16.9704 9.16338 17.4735 10.092 17.6611C9.4879 17.8258 8.85406 17.8499 8.2392 17.7315C8.50151 18.5467 9.01202 19.2597 9.69937 19.7706C10.3867 20.2815 11.2165 20.5649 12.0728 20.5811C11.222 21.2498 10.2478 21.7442 9.20573 22.0361C8.16369 22.3279 7.07435 22.4114 6 22.2819C7.87653 23.486 10.0599 24.1248 12.2896 24.1219" fill="#191717"/>
</svg>
